%TF.GenerationSoftware,KiCad,Pcbnew,9.0.2*%
%TF.CreationDate,2025-06-26T23:30:40+05:30*%
%TF.ProjectId,MCU data logger,4d435520-6461-4746-9120-6c6f67676572,VERSION 1*%
%TF.SameCoordinates,Original*%
%TF.FileFunction,Copper,L1,Top*%
%TF.FilePolarity,Positive*%
%FSLAX46Y46*%
G04 Gerber Fmt 4.6, Leading zero omitted, Abs format (unit mm)*
G04 Created by KiCad (PCBNEW 9.0.2) date 2025-06-26 23:30:40*
%MOMM*%
%LPD*%
G01*
G04 APERTURE LIST*
G04 Aperture macros list*
%AMRoundRect*
0 Rectangle with rounded corners*
0 $1 Rounding radius*
0 $2 $3 $4 $5 $6 $7 $8 $9 X,Y pos of 4 corners*
0 Add a 4 corners polygon primitive as box body*
4,1,4,$2,$3,$4,$5,$6,$7,$8,$9,$2,$3,0*
0 Add four circle primitives for the rounded corners*
1,1,$1+$1,$2,$3*
1,1,$1+$1,$4,$5*
1,1,$1+$1,$6,$7*
1,1,$1+$1,$8,$9*
0 Add four rect primitives between the rounded corners*
20,1,$1+$1,$2,$3,$4,$5,0*
20,1,$1+$1,$4,$5,$6,$7,0*
20,1,$1+$1,$6,$7,$8,$9,0*
20,1,$1+$1,$8,$9,$2,$3,0*%
G04 Aperture macros list end*
%TA.AperFunction,SMDPad,CuDef*%
%ADD10RoundRect,0.243750X0.456250X-0.243750X0.456250X0.243750X-0.456250X0.243750X-0.456250X-0.243750X0*%
%TD*%
%TA.AperFunction,SMDPad,CuDef*%
%ADD11RoundRect,0.162500X-0.650000X-0.162500X0.650000X-0.162500X0.650000X0.162500X-0.650000X0.162500X0*%
%TD*%
%TA.AperFunction,SMDPad,CuDef*%
%ADD12RoundRect,0.073750X-0.911250X-0.221250X0.911250X-0.221250X0.911250X0.221250X-0.911250X0.221250X0*%
%TD*%
%TA.AperFunction,ComponentPad*%
%ADD13R,1.700000X1.700000*%
%TD*%
%TA.AperFunction,ComponentPad*%
%ADD14C,1.700000*%
%TD*%
%TA.AperFunction,SMDPad,CuDef*%
%ADD15RoundRect,0.250000X0.475000X-0.250000X0.475000X0.250000X-0.475000X0.250000X-0.475000X-0.250000X0*%
%TD*%
%TA.AperFunction,SMDPad,CuDef*%
%ADD16RoundRect,0.250000X0.450000X-0.262500X0.450000X0.262500X-0.450000X0.262500X-0.450000X-0.262500X0*%
%TD*%
%TA.AperFunction,SMDPad,CuDef*%
%ADD17RoundRect,0.250000X-0.262500X-0.450000X0.262500X-0.450000X0.262500X0.450000X-0.262500X0.450000X0*%
%TD*%
%TA.AperFunction,SMDPad,CuDef*%
%ADD18RoundRect,0.250000X-0.250000X-0.475000X0.250000X-0.475000X0.250000X0.475000X-0.250000X0.475000X0*%
%TD*%
%TA.AperFunction,SMDPad,CuDef*%
%ADD19RoundRect,0.068750X-0.666250X-0.206250X0.666250X-0.206250X0.666250X0.206250X-0.666250X0.206250X0*%
%TD*%
%TA.AperFunction,SMDPad,CuDef*%
%ADD20RoundRect,0.068750X-0.206250X-0.666250X0.206250X-0.666250X0.206250X0.666250X-0.206250X0.666250X0*%
%TD*%
%TA.AperFunction,SMDPad,CuDef*%
%ADD21RoundRect,0.243750X-0.243750X-0.456250X0.243750X-0.456250X0.243750X0.456250X-0.243750X0.456250X0*%
%TD*%
%TA.AperFunction,SMDPad,CuDef*%
%ADD22RoundRect,0.250001X0.949999X-1.499999X0.949999X1.499999X-0.949999X1.499999X-0.949999X-1.499999X0*%
%TD*%
%TA.AperFunction,SMDPad,CuDef*%
%ADD23RoundRect,0.250001X-1.499999X-0.949999X1.499999X-0.949999X1.499999X0.949999X-1.499999X0.949999X0*%
%TD*%
%TA.AperFunction,ViaPad*%
%ADD24C,0.600000*%
%TD*%
%TA.AperFunction,Conductor*%
%ADD25C,0.200000*%
%TD*%
G04 APERTURE END LIST*
D10*
%TO.P,D2,1,K*%
%TO.N,Net-(D2-K)*%
X110960000Y-75625000D03*
%TO.P,D2,2,A*%
%TO.N,/VCC*%
X110960000Y-73750000D03*
%TD*%
D11*
%TO.P,U1,1,A0*%
%TO.N,/VCC*%
X120352500Y-50835000D03*
%TO.P,U1,2,A1*%
X120352500Y-52105000D03*
%TO.P,U1,3,A2*%
X120352500Y-53375000D03*
%TO.P,U1,4,GND*%
%TO.N,GND*%
X120352500Y-54645000D03*
%TO.P,U1,5,SDA*%
%TO.N,/SDA*%
X127527500Y-54645000D03*
%TO.P,U1,6,SCL*%
%TO.N,/SCK*%
X127527500Y-53375000D03*
%TO.P,U1,7,WP*%
%TO.N,GND*%
X127527500Y-52105000D03*
%TO.P,U1,8,VCC*%
%TO.N,/VCC*%
X127527500Y-50835000D03*
%TD*%
D12*
%TO.P,U3,1,X1*%
%TO.N,Net-(U3-X1)*%
X121408100Y-66837000D03*
%TO.P,U3,2,X2*%
%TO.N,Net-(U3-X2)*%
X121408100Y-68107000D03*
%TO.P,U3,3,~{INTA}*%
%TO.N,Net-(U3-~{INTA})*%
X121408100Y-69377000D03*
%TO.P,U3,4,GND*%
%TO.N,GND*%
X121408100Y-70647000D03*
%TO.P,U3,5,SDA*%
%TO.N,/SDA*%
X126358100Y-70647000D03*
%TO.P,U3,6,SCL*%
%TO.N,/SCK*%
X126358100Y-69377000D03*
%TO.P,U3,7,SQW/~INT*%
%TO.N,Net-(U3-SQW{slash}~INT)*%
X126358100Y-68107000D03*
%TO.P,U3,8,VCC*%
%TO.N,/VCC*%
X126358100Y-66837000D03*
%TD*%
D11*
%TO.P,U2,1,A0*%
%TO.N,/VCC*%
X120352500Y-57685000D03*
%TO.P,U2,2,A1*%
%TO.N,GND*%
X120352500Y-58955000D03*
%TO.P,U2,3,A2*%
%TO.N,/VCC*%
X120352500Y-60225000D03*
%TO.P,U2,4,GND*%
%TO.N,GND*%
X120352500Y-61495000D03*
%TO.P,U2,5,SDA*%
%TO.N,/SDA*%
X127527500Y-61495000D03*
%TO.P,U2,6,SCL*%
%TO.N,/SCK*%
X127527500Y-60225000D03*
%TO.P,U2,7,WP*%
%TO.N,GND*%
X127527500Y-58955000D03*
%TO.P,U2,8,VCC*%
%TO.N,/VCC*%
X127527500Y-57685000D03*
%TD*%
D13*
%TO.P,J3,1,Pin_1*%
%TO.N,GND*%
X150600000Y-78770000D03*
D14*
%TO.P,J3,2,Pin_2*%
%TO.N,/VCC*%
X153140000Y-78770000D03*
%TO.P,J3,3,Pin_3*%
%TO.N,/RX*%
X155680000Y-78770000D03*
%TO.P,J3,4,Pin_4*%
%TO.N,/TX*%
X158220000Y-78770000D03*
%TD*%
D15*
%TO.P,C1,1*%
%TO.N,/VCC*%
X137060000Y-70680000D03*
%TO.P,C1,2*%
%TO.N,GND*%
X137060000Y-68780000D03*
%TD*%
D16*
%TO.P,R3,1*%
%TO.N,/VCC*%
X158750000Y-59222500D03*
%TO.P,R3,2*%
%TO.N,/SCK*%
X158750000Y-57397500D03*
%TD*%
%TO.P,R1,1*%
%TO.N,/VCC*%
X114262000Y-75399100D03*
%TO.P,R1,2*%
%TO.N,Net-(U3-~{INTA})*%
X114262000Y-73574100D03*
%TD*%
%TO.P,R2,1*%
%TO.N,/VCC*%
X158770000Y-63652500D03*
%TO.P,R2,2*%
%TO.N,Net-(U3-SQW{slash}~INT)*%
X158770000Y-61827500D03*
%TD*%
D13*
%TO.P,J4,1,Pin_1*%
%TO.N,/MISO*%
X165630000Y-51790000D03*
D14*
%TO.P,J4,2,Pin_2*%
%TO.N,/VCC*%
X168170000Y-51790000D03*
%TO.P,J4,3,Pin_3*%
%TO.N,/SCK*%
X165630000Y-54330000D03*
%TO.P,J4,4,Pin_4*%
%TO.N,/MOSI*%
X168170000Y-54330000D03*
%TO.P,J4,5,Pin_5*%
%TO.N,/RESET*%
X165630000Y-56870000D03*
%TO.P,J4,6,Pin_6*%
%TO.N,GND*%
X168170000Y-56870000D03*
%TD*%
D17*
%TO.P,R4,1*%
%TO.N,/VCC*%
X147640000Y-50880000D03*
%TO.P,R4,2*%
%TO.N,/SDA*%
X149465000Y-50880000D03*
%TD*%
D18*
%TO.P,C2,1*%
%TO.N,GND*%
X139092500Y-51000000D03*
%TO.P,C2,2*%
%TO.N,Net-(U4-PB6)*%
X140992500Y-51000000D03*
%TD*%
D15*
%TO.P,C5,1*%
%TO.N,/VCC*%
X132830000Y-57760000D03*
%TO.P,C5,2*%
%TO.N,GND*%
X132830000Y-55860000D03*
%TD*%
%TO.P,C3,1*%
%TO.N,GND*%
X132750000Y-62050000D03*
%TO.P,C3,2*%
%TO.N,Net-(U4-PB7)*%
X132750000Y-60150000D03*
%TD*%
D16*
%TO.P,R7,1*%
%TO.N,Net-(D2-K)*%
X158820000Y-68692500D03*
%TO.P,R7,2*%
%TO.N,GND*%
X158820000Y-66867500D03*
%TD*%
D19*
%TO.P,U4,1,PD3*%
%TO.N,/D3*%
X144050000Y-58430000D03*
%TO.P,U4,2,PD4*%
%TO.N,/D4*%
X144050000Y-59230000D03*
%TO.P,U4,3,GND*%
%TO.N,GND*%
X144050000Y-60030000D03*
%TO.P,U4,4,VCC*%
%TO.N,/VCC*%
X144050000Y-60830000D03*
%TO.P,U4,5,GND*%
%TO.N,GND*%
X144050000Y-61630000D03*
%TO.P,U4,6,VCC*%
%TO.N,unconnected-(U4-VCC-Pad6)*%
X144050000Y-62430000D03*
%TO.P,U4,7,PB6*%
%TO.N,Net-(U4-PB6)*%
X144050000Y-63230000D03*
%TO.P,U4,8,PB7*%
%TO.N,Net-(U4-PB7)*%
X144050000Y-64030000D03*
D20*
%TO.P,U4,9,PD5*%
%TO.N,/D5*%
X145420000Y-65400000D03*
%TO.P,U4,10,PD6*%
%TO.N,/D6*%
X146220000Y-65400000D03*
%TO.P,U4,11,PD7*%
%TO.N,/D7*%
X147020000Y-65400000D03*
%TO.P,U4,12,PB0*%
%TO.N,/D8*%
X147820000Y-65400000D03*
%TO.P,U4,13,PB1*%
%TO.N,unconnected-(U4-PB1-Pad13)*%
X148620000Y-65400000D03*
%TO.P,U4,14,PB2*%
%TO.N,unconnected-(U4-PB2-Pad14)*%
X149420000Y-65400000D03*
%TO.P,U4,15,PB3*%
%TO.N,/MOSI*%
X150220000Y-65400000D03*
%TO.P,U4,16,PB4*%
%TO.N,/MISO*%
X151020000Y-65400000D03*
D19*
%TO.P,U4,17,PB5*%
%TO.N,/SCK*%
X152390000Y-64030000D03*
%TO.P,U4,18,AVCC*%
%TO.N,/VCC*%
X152390000Y-63230000D03*
%TO.P,U4,19,ADC6*%
%TO.N,unconnected-(U4-ADC6-Pad19)*%
X152390000Y-62430000D03*
%TO.P,U4,20,AREF*%
%TO.N,Net-(U4-AREF)*%
X152390000Y-61630000D03*
%TO.P,U4,21,GND*%
%TO.N,GND*%
X152390000Y-60830000D03*
%TO.P,U4,22,ADC7*%
%TO.N,unconnected-(U4-ADC7-Pad22)*%
X152390000Y-60030000D03*
%TO.P,U4,23,PC0*%
%TO.N,unconnected-(U4-PC0-Pad23)*%
X152390000Y-59230000D03*
%TO.P,U4,24,PC1*%
%TO.N,unconnected-(U4-PC1-Pad24)*%
X152390000Y-58430000D03*
D20*
%TO.P,U4,25,PC2*%
%TO.N,unconnected-(U4-PC2-Pad25)*%
X151020000Y-57060000D03*
%TO.P,U4,26,PC3*%
%TO.N,unconnected-(U4-PC3-Pad26)*%
X150220000Y-57060000D03*
%TO.P,U4,27,PC4*%
%TO.N,/SDA*%
X149420000Y-57060000D03*
%TO.P,U4,28,PC5*%
%TO.N,/SCK*%
X148620000Y-57060000D03*
%TO.P,U4,29,PC6/~{RESET}*%
%TO.N,/RESET*%
X147820000Y-57060000D03*
%TO.P,U4,30,PD0*%
%TO.N,/RX*%
X147020000Y-57060000D03*
%TO.P,U4,31,PD1*%
%TO.N,/TX*%
X146220000Y-57060000D03*
%TO.P,U4,32,PD2*%
%TO.N,/D2*%
X145420000Y-57060000D03*
%TD*%
D21*
%TO.P,D1,1,K*%
%TO.N,Net-(D1-K)*%
X152032500Y-50900000D03*
%TO.P,D1,2,A*%
%TO.N,/SCK*%
X153907500Y-50900000D03*
%TD*%
D13*
%TO.P,BT1,1,Pin_1*%
%TO.N,GND*%
X111770000Y-51785000D03*
D14*
%TO.P,BT1,2,Pin_2*%
%TO.N,/VCC*%
X111770000Y-54325000D03*
%TD*%
D16*
%TO.P,R5,1*%
%TO.N,GND*%
X132750000Y-66282500D03*
%TO.P,R5,2*%
%TO.N,Net-(D1-K)*%
X132750000Y-64457500D03*
%TD*%
D13*
%TO.P,J1,1,Pin_1*%
%TO.N,GND*%
X166850000Y-62830000D03*
D14*
%TO.P,J1,2,Pin_2*%
%TO.N,/VCC*%
X166850000Y-65370000D03*
%TO.P,J1,3,Pin_3*%
%TO.N,/SDA*%
X166850000Y-67910000D03*
%TO.P,J1,4,Pin_4*%
%TO.N,/SCK*%
X166850000Y-70450000D03*
%TD*%
D18*
%TO.P,C4,1*%
%TO.N,GND*%
X143362500Y-50940000D03*
%TO.P,C4,2*%
%TO.N,Net-(U4-AREF)*%
X145262500Y-50940000D03*
%TD*%
D16*
%TO.P,R6,1*%
%TO.N,/VCC*%
X132830000Y-70805000D03*
%TO.P,R6,2*%
%TO.N,/RESET*%
X132830000Y-68980000D03*
%TD*%
D22*
%TO.P,Y1,1,1*%
%TO.N,Net-(U3-X2)*%
X112060000Y-67240000D03*
%TO.P,Y1,2,2*%
%TO.N,Net-(U3-X1)*%
X112060000Y-62040000D03*
%TD*%
D13*
%TO.P,J2,1,Pin_1*%
%TO.N,/D2*%
X123640000Y-78800000D03*
D14*
%TO.P,J2,2,Pin_2*%
%TO.N,/D3*%
X126180000Y-78800000D03*
%TO.P,J2,3,Pin_3*%
%TO.N,/D4*%
X128720000Y-78800000D03*
%TO.P,J2,4,Pin_4*%
%TO.N,/D5*%
X131260000Y-78800000D03*
%TO.P,J2,5,Pin_5*%
%TO.N,/D6*%
X133800000Y-78800000D03*
%TO.P,J2,6,Pin_6*%
%TO.N,/D7*%
X136340000Y-78800000D03*
%TO.P,J2,7,Pin_7*%
%TO.N,/D8*%
X138880000Y-78800000D03*
%TO.P,J2,8,Pin_8*%
%TO.N,GND*%
X141420000Y-78800000D03*
%TO.P,J2,9,Pin_9*%
%TO.N,/VCC*%
X143960000Y-78800000D03*
%TD*%
D23*
%TO.P,Y2,1,1*%
%TO.N,Net-(U4-PB7)*%
X145690000Y-70600000D03*
%TO.P,Y2,2,2*%
%TO.N,Net-(U4-PB6)*%
X150890000Y-70600000D03*
%TD*%
D24*
%TO.N,/VCC*%
X151030000Y-62340000D03*
X134140000Y-57550000D03*
X143280000Y-76620000D03*
X116480000Y-68770000D03*
X117500000Y-50830000D03*
X154350000Y-63200000D03*
X150059999Y-63368527D03*
X137450000Y-73030000D03*
X162089000Y-60420000D03*
X119434246Y-60723316D03*
X142040000Y-54240000D03*
%TO.N,GND*%
X131830000Y-59180000D03*
X119010000Y-55250000D03*
X122190000Y-58285000D03*
X132920000Y-67310000D03*
X118870000Y-61300000D03*
X113430000Y-51710000D03*
X118780000Y-59200000D03*
X134200000Y-66250000D03*
X130380000Y-51970000D03*
X128975735Y-52704265D03*
X150060000Y-60720000D03*
X134180000Y-62510000D03*
X150390000Y-61860000D03*
X157250000Y-66690000D03*
X138400000Y-73850000D03*
X131980000Y-56520000D03*
X145910000Y-61430000D03*
X136190000Y-67350000D03*
X146630000Y-60230000D03*
X147760001Y-60279451D03*
X120160000Y-55550000D03*
X164080000Y-66810000D03*
X145303890Y-62208472D03*
X140400000Y-61110000D03*
X164390000Y-62600000D03*
X141660000Y-77820000D03*
%TO.N,Net-(U4-PB6)*%
X143790000Y-73560000D03*
X141238000Y-62740000D03*
%TO.N,Net-(U4-PB7)*%
X144060000Y-64890000D03*
X142857468Y-65459203D03*
X141086037Y-61954565D03*
X144720000Y-68870000D03*
%TO.N,/SCK*%
X128950000Y-60269000D03*
X162090000Y-70470000D03*
X145850000Y-59430000D03*
X124760000Y-60370000D03*
X124770000Y-69380000D03*
X152500000Y-64640000D03*
%TO.N,Net-(D1-K)*%
X134800000Y-63530000D03*
X150237928Y-52381850D03*
%TO.N,Net-(D2-K)*%
X114090000Y-77220000D03*
X155780000Y-68670000D03*
%TO.N,/SDA*%
X129310000Y-61540000D03*
X149510000Y-52050000D03*
X162689000Y-67890000D03*
X149060000Y-55690000D03*
X151536382Y-55900000D03*
X129320000Y-55216765D03*
%TO.N,/D3*%
X142622902Y-58460102D03*
X140580526Y-64929072D03*
%TO.N,/D2*%
X139780656Y-64943627D03*
X144390000Y-57010000D03*
%TO.N,/D4*%
X141380000Y-64900000D03*
X142610000Y-59260000D03*
%TO.N,/TX*%
X154210000Y-67360000D03*
X147160000Y-58920000D03*
%TO.N,/RX*%
X147110000Y-58090000D03*
X149460000Y-67590000D03*
%TO.N,/RESET*%
X147910000Y-55380000D03*
X136670000Y-62554565D03*
X163490000Y-58780000D03*
X147160000Y-55300000D03*
%TO.N,/MOSI*%
X171020000Y-54330000D03*
X150210000Y-66760000D03*
%TO.N,/MISO*%
X163230000Y-51720000D03*
X152070000Y-65430000D03*
%TO.N,Net-(U3-SQW{slash}~INT)*%
X124170000Y-68150000D03*
X155150000Y-67820000D03*
%TD*%
D25*
%TO.N,/VCC*%
X162089000Y-60420000D02*
X161160000Y-61349000D01*
X150580000Y-76210000D02*
X153140000Y-78770000D01*
X144010000Y-60830000D02*
X147521472Y-60830000D01*
X127527500Y-57685000D02*
X120352500Y-57685000D01*
X144270000Y-76210000D02*
X150580000Y-76210000D01*
X144777340Y-49914000D02*
X144163500Y-50527840D01*
X158750000Y-59222500D02*
X160530000Y-61002500D01*
X144163500Y-50527840D02*
X144163500Y-53146500D01*
X164808100Y-55719000D02*
X161304600Y-59222500D01*
X112612900Y-72637100D02*
X116480000Y-68770000D01*
X129488943Y-60869000D02*
X131749000Y-63129057D01*
X120352500Y-50835000D02*
X117505000Y-50835000D01*
X131749000Y-69724000D02*
X132830000Y-70805000D01*
X120352500Y-60225000D02*
X118155000Y-60225000D01*
X144163500Y-53146500D02*
X143760000Y-53550000D01*
X151030000Y-62520000D02*
X151740000Y-63230000D01*
X143960000Y-78800000D02*
X143960000Y-76730000D01*
X147640000Y-50880000D02*
X146674000Y-49914000D01*
X165868760Y-55719000D02*
X164808100Y-55719000D01*
X144010000Y-60830000D02*
X143330057Y-60830000D01*
X117970000Y-60040000D02*
X117970000Y-59080000D01*
X143280000Y-76620000D02*
X143960000Y-77300000D01*
X143760000Y-53550000D02*
X143070000Y-54240000D01*
X114262000Y-75399100D02*
X112612900Y-73750000D01*
X144270000Y-76420000D02*
X144270000Y-76210000D01*
X120352500Y-53375000D02*
X120352500Y-52105000D01*
X131340000Y-54220000D02*
X131340000Y-57350000D01*
X137060000Y-70680000D02*
X137060000Y-72640000D01*
X158820000Y-65370000D02*
X158690000Y-65240000D01*
X147521472Y-60830000D02*
X150059999Y-63368527D01*
X161160000Y-64660000D02*
X160152500Y-63652500D01*
X146674000Y-49914000D02*
X144777340Y-49914000D01*
X167019000Y-52941000D02*
X167019000Y-54568760D01*
X152370000Y-63230000D02*
X154320000Y-63230000D01*
X119365000Y-57685000D02*
X120352500Y-57685000D01*
X142009000Y-54271000D02*
X142040000Y-54240000D01*
X161160000Y-61349000D02*
X161160000Y-64660000D01*
X120575000Y-60225000D02*
X120352500Y-60225000D01*
X126681010Y-60869000D02*
X129488943Y-60869000D01*
X158690000Y-65240000D02*
X158770000Y-65160000D01*
X160530000Y-61002500D02*
X160530000Y-63790000D01*
X160530000Y-63790000D02*
X160350000Y-63970000D01*
X110960000Y-73750000D02*
X112612900Y-73750000D01*
X143070000Y-54240000D02*
X142040000Y-54240000D01*
X154320000Y-63230000D02*
X154350000Y-63200000D01*
X158770000Y-63652500D02*
X158770000Y-65160000D01*
X126358100Y-61191910D02*
X126681010Y-60869000D01*
X143960000Y-76730000D02*
X144270000Y-76420000D01*
X119854184Y-60723316D02*
X120352500Y-60225000D01*
X120352500Y-57685000D02*
X118230000Y-55562500D01*
X126358100Y-66837000D02*
X126358100Y-61191910D01*
X119865000Y-53375000D02*
X120352500Y-53375000D01*
X143960000Y-77300000D02*
X143960000Y-78800000D01*
X117970000Y-59080000D02*
X119365000Y-57685000D01*
X161304600Y-59222500D02*
X158750000Y-59222500D01*
X131750000Y-57760000D02*
X132830000Y-57760000D01*
X127527500Y-50835000D02*
X120352500Y-50835000D01*
X133040000Y-57550000D02*
X132830000Y-57760000D01*
X119434246Y-60723316D02*
X119854184Y-60723316D01*
X127527500Y-50835000D02*
X127955000Y-50835000D01*
X126358100Y-66837000D02*
X126358100Y-66008100D01*
X117505000Y-50835000D02*
X117500000Y-50830000D01*
X132830000Y-70805000D02*
X136935000Y-70805000D01*
X142009000Y-59508943D02*
X142009000Y-54271000D01*
X136935000Y-70805000D02*
X137060000Y-70680000D01*
X168170000Y-51790000D02*
X167019000Y-52941000D01*
X166850000Y-65370000D02*
X158820000Y-65370000D01*
X131749000Y-63129057D02*
X131749000Y-69724000D01*
X117970000Y-60040000D02*
X118155000Y-60225000D01*
X137060000Y-72640000D02*
X137450000Y-73030000D01*
X118230000Y-55562500D02*
X118230000Y-55010000D01*
X127955000Y-50835000D02*
X131340000Y-54220000D01*
X112612900Y-73750000D02*
X112612900Y-72637100D01*
X134140000Y-57550000D02*
X133040000Y-57550000D01*
X151740000Y-63230000D02*
X152370000Y-63230000D01*
X151030000Y-62340000D02*
X151030000Y-62520000D01*
X160350000Y-63970000D02*
X160032500Y-63652500D01*
X131340000Y-57350000D02*
X131750000Y-57760000D01*
X167019000Y-54568760D02*
X165868760Y-55719000D01*
X118230000Y-55010000D02*
X119865000Y-53375000D01*
X160152500Y-63652500D02*
X158770000Y-63652500D01*
X160032500Y-63652500D02*
X158770000Y-63652500D01*
X120352500Y-50835000D02*
X120352500Y-52105000D01*
X143330057Y-60830000D02*
X142009000Y-59508943D01*
X126358100Y-66008100D02*
X120575000Y-60225000D01*
%TO.N,GND*%
X137060000Y-68780000D02*
X138400000Y-70120000D01*
X141660000Y-78560000D02*
X141420000Y-78800000D01*
X132920000Y-66452500D02*
X132750000Y-66282500D01*
X128126765Y-52704265D02*
X127527500Y-52105000D01*
X127527500Y-52105000D02*
X123094990Y-52105000D01*
X158820000Y-66867500D02*
X158877500Y-66810000D01*
X113430000Y-51710000D02*
X111845000Y-51710000D01*
X166850000Y-58190000D02*
X168170000Y-56870000D01*
X120480000Y-59599000D02*
X120480000Y-59590000D01*
X134232500Y-55860000D02*
X139092500Y-51000000D01*
X144030000Y-61650000D02*
X144010000Y-61630000D01*
X151420000Y-60830000D02*
X150390000Y-61860000D01*
X149419000Y-79951000D02*
X142571000Y-79951000D01*
X138639000Y-59349000D02*
X140400000Y-61110000D01*
X146630000Y-60230000D02*
X146430000Y-60030000D01*
X121520000Y-58955000D02*
X120352500Y-58955000D01*
X139180000Y-49340000D02*
X139092500Y-49427500D01*
X120352500Y-59462500D02*
X120352500Y-58955000D01*
X123094990Y-52105000D02*
X120554990Y-54645000D01*
X139180000Y-49200000D02*
X139180000Y-49340000D01*
X132170000Y-56520000D02*
X132830000Y-55860000D01*
X144234000Y-61854000D02*
X144010000Y-61630000D01*
X120352500Y-54645000D02*
X119615000Y-54645000D01*
X120160000Y-55550000D02*
X120160000Y-54837500D01*
X118780000Y-59200000D02*
X120107500Y-59200000D01*
X131724000Y-61024000D02*
X131724000Y-59664840D01*
X146679451Y-60279451D02*
X147760001Y-60279451D01*
X124190000Y-58940000D02*
X123531000Y-59599000D01*
X136190000Y-67910000D02*
X137060000Y-68780000D01*
X131830000Y-59360000D02*
X131830000Y-59180000D01*
X120352500Y-61495000D02*
X119065000Y-61495000D01*
X132039840Y-59349000D02*
X138639000Y-59349000D01*
X145303890Y-62208472D02*
X144949418Y-61854000D01*
X124205000Y-58955000D02*
X124190000Y-58940000D01*
X152370000Y-60830000D02*
X151420000Y-60830000D01*
X123170000Y-69870100D02*
X123170000Y-63830000D01*
X120580000Y-63150000D02*
X120352500Y-62922500D01*
X164620000Y-62830000D02*
X166850000Y-62830000D01*
X122393100Y-70647000D02*
X123170000Y-69870100D01*
X132830000Y-54420000D02*
X130380000Y-51970000D01*
X158877500Y-66810000D02*
X164080000Y-66810000D01*
X138400000Y-70120000D02*
X138400000Y-73850000D01*
X132750000Y-62050000D02*
X131724000Y-61024000D01*
X141660000Y-77820000D02*
X141660000Y-78560000D01*
X123531000Y-59599000D02*
X120480000Y-59599000D01*
X152370000Y-60830000D02*
X150170000Y-60830000D01*
X134180000Y-62510000D02*
X133210000Y-62510000D01*
X120480000Y-59590000D02*
X120352500Y-59462500D01*
X119065000Y-61495000D02*
X118870000Y-61300000D01*
X136190000Y-67350000D02*
X136190000Y-67910000D01*
X127527500Y-58955000D02*
X124205000Y-58955000D01*
X122540000Y-63200000D02*
X120580000Y-63200000D01*
X120352500Y-62922500D02*
X120352500Y-61495000D01*
X133210000Y-62510000D02*
X132750000Y-62050000D01*
X142571000Y-79951000D02*
X141420000Y-78800000D01*
X139092500Y-49427500D02*
X139092500Y-51000000D01*
X131929420Y-59459420D02*
X131830000Y-59360000D01*
X120107500Y-59200000D02*
X120352500Y-58955000D01*
X144210000Y-61430000D02*
X144010000Y-61630000D01*
X131724000Y-59664840D02*
X131929420Y-59459420D01*
X132920000Y-67310000D02*
X132920000Y-66452500D01*
X141622500Y-49200000D02*
X139180000Y-49200000D01*
X122190000Y-58285000D02*
X121520000Y-58955000D01*
X111845000Y-51710000D02*
X111770000Y-51785000D01*
X132830000Y-55860000D02*
X132830000Y-54420000D01*
X145910000Y-61430000D02*
X144210000Y-61430000D01*
X146430000Y-60030000D02*
X144010000Y-60030000D01*
X134200000Y-66250000D02*
X132782500Y-66250000D01*
X121408100Y-70647000D02*
X122393100Y-70647000D01*
X120580000Y-63200000D02*
X120580000Y-63150000D01*
X119615000Y-54645000D02*
X119010000Y-55250000D01*
X120160000Y-54837500D02*
X120352500Y-54645000D01*
X123170000Y-63830000D02*
X122540000Y-63200000D01*
X157250000Y-66690000D02*
X158642500Y-66690000D01*
X146630000Y-60230000D02*
X146679451Y-60279451D01*
X150170000Y-60830000D02*
X150060000Y-60720000D01*
X143362500Y-50940000D02*
X141622500Y-49200000D01*
X132830000Y-55860000D02*
X134232500Y-55860000D01*
X128975735Y-52704265D02*
X128126765Y-52704265D01*
X131929420Y-59459420D02*
X132039840Y-59349000D01*
X164390000Y-62600000D02*
X164620000Y-62830000D01*
X144949418Y-61854000D02*
X144234000Y-61854000D01*
X132782500Y-66250000D02*
X132750000Y-66282500D01*
X120554990Y-54645000D02*
X120352500Y-54645000D01*
X131980000Y-56520000D02*
X132170000Y-56520000D01*
X158642500Y-66690000D02*
X158820000Y-66867500D01*
X150600000Y-78770000D02*
X149419000Y-79951000D01*
X166850000Y-62830000D02*
X166850000Y-58190000D01*
%TO.N,Net-(U4-PB6)*%
X150890000Y-73410000D02*
X150900000Y-73420000D01*
X150890000Y-70600000D02*
X150890000Y-73410000D01*
X150900000Y-73420000D02*
X150760000Y-73560000D01*
X150760000Y-73560000D02*
X143790000Y-73560000D01*
X140992500Y-61012499D02*
X140992500Y-51000000D01*
X144010000Y-63230000D02*
X143210001Y-63230000D01*
X141238000Y-62740000D02*
X141728000Y-63230000D01*
X141728000Y-63230000D02*
X144010000Y-63230000D01*
X143210001Y-63230000D02*
X140992500Y-61012499D01*
%TO.N,Net-(U4-PB7)*%
X145690000Y-70600000D02*
X145690000Y-69840000D01*
X143500000Y-64540000D02*
X144010000Y-64030000D01*
X144060000Y-64890000D02*
X144060000Y-64080000D01*
X145690000Y-69840000D02*
X144720000Y-68870000D01*
X143460797Y-65459203D02*
X143500000Y-65420000D01*
X143500000Y-65420000D02*
X143500000Y-64540000D01*
X144060000Y-64080000D02*
X144010000Y-64030000D01*
X142857468Y-65459203D02*
X143460797Y-65459203D01*
X132750000Y-60150000D02*
X134554565Y-61954565D01*
X134554565Y-61954565D02*
X141086037Y-61954565D01*
X144010000Y-64230000D02*
X144010000Y-64030000D01*
%TO.N,Net-(U4-AREF)*%
X154260000Y-61610000D02*
X154280000Y-61630000D01*
X149622500Y-55300000D02*
X154260000Y-55300000D01*
X154280000Y-61630000D02*
X152370000Y-61630000D01*
X154260000Y-55300000D02*
X154260000Y-61610000D01*
X145262500Y-50940000D02*
X149622500Y-55300000D01*
%TO.N,/SCK*%
X155070000Y-50760000D02*
X154930000Y-50900000D01*
X126358100Y-69377000D02*
X124773000Y-69377000D01*
X128950000Y-60269000D02*
X127571500Y-60269000D01*
X154860000Y-64010000D02*
X154840000Y-64030000D01*
X153907500Y-50900000D02*
X154980000Y-51972500D01*
X148590000Y-57050000D02*
X148590000Y-58339943D01*
X154930000Y-50900000D02*
X153907500Y-50900000D01*
X127571500Y-60269000D02*
X127527500Y-60225000D01*
X124773000Y-69377000D02*
X124770000Y-69380000D01*
X162562500Y-57397500D02*
X165630000Y-54330000D01*
X124760000Y-60370000D02*
X124905000Y-60225000D01*
X148590000Y-58339943D02*
X147300943Y-59629000D01*
X162110000Y-70450000D02*
X162090000Y-70470000D01*
X127527500Y-60225000D02*
X128339999Y-60225000D01*
X154840000Y-64030000D02*
X152370000Y-64030000D01*
X152500000Y-64160000D02*
X152370000Y-64030000D01*
X154980000Y-51972500D02*
X154980000Y-64010000D01*
X158750000Y-57397500D02*
X162562500Y-57397500D01*
X128339999Y-53375000D02*
X129920000Y-54955001D01*
X148590000Y-57050000D02*
X148590000Y-61050000D01*
X147300943Y-59629000D02*
X146049000Y-59629000D01*
X158750000Y-54440000D02*
X155070000Y-50760000D01*
X166850000Y-70450000D02*
X162110000Y-70450000D01*
X158750000Y-57397500D02*
X158750000Y-54440000D01*
X146049000Y-59629000D02*
X145850000Y-59430000D01*
X127527500Y-53375000D02*
X128339999Y-53375000D01*
X128339999Y-60225000D02*
X129920000Y-58644999D01*
X148590000Y-61050000D02*
X151570001Y-64030000D01*
X124905000Y-60225000D02*
X127527500Y-60225000D01*
X151570001Y-64030000D02*
X152370000Y-64030000D01*
X129920000Y-54955001D02*
X129920000Y-58644999D01*
X152500000Y-64640000D02*
X152500000Y-64160000D01*
X154980000Y-64010000D02*
X154860000Y-64010000D01*
%TO.N,Net-(D1-K)*%
X133872500Y-64457500D02*
X132750000Y-64457500D01*
X150550650Y-52381850D02*
X150237928Y-52381850D01*
X152032500Y-50900000D02*
X150550650Y-52381850D01*
X134800000Y-63530000D02*
X133872500Y-64457500D01*
%TO.N,Net-(D2-K)*%
X112495000Y-75625000D02*
X110960000Y-75625000D01*
X158820000Y-68692500D02*
X155802500Y-68692500D01*
X155802500Y-68692500D02*
X155780000Y-68670000D01*
X114090000Y-77220000D02*
X112495000Y-75625000D01*
%TO.N,/SDA*%
X151536382Y-55900000D02*
X149412308Y-55900000D01*
X149412308Y-55900000D02*
X149390000Y-55922308D01*
X149390000Y-57669338D02*
X149390000Y-57050000D01*
X166850000Y-67910000D02*
X162709000Y-67910000D01*
X129310000Y-61540000D02*
X127572500Y-61540000D01*
X127572500Y-61540000D02*
X127527500Y-61495000D01*
X127527500Y-54645000D02*
X128748235Y-54645000D01*
X126358100Y-70647000D02*
X126475100Y-70530000D01*
X149390000Y-56020000D02*
X149390000Y-57050000D01*
X128748235Y-54645000D02*
X129320000Y-55216765D01*
X149465000Y-52005000D02*
X149510000Y-52050000D01*
X149390000Y-55922308D02*
X149390000Y-57050000D01*
X149217692Y-56877692D02*
X149390000Y-57050000D01*
X128120000Y-70530000D02*
X128120000Y-62087500D01*
X162709000Y-67910000D02*
X162689000Y-67890000D01*
X128120000Y-62087500D02*
X127527500Y-61495000D01*
X149465000Y-50880000D02*
X149465000Y-52005000D01*
X126475100Y-70530000D02*
X128120000Y-70530000D01*
X127527500Y-54645000D02*
X127527500Y-54807500D01*
X149060000Y-55690000D02*
X149390000Y-56020000D01*
%TO.N,/D6*%
X140210350Y-76335450D02*
X142305450Y-74240350D01*
X133800000Y-78800000D02*
X136264550Y-76335450D01*
X142305450Y-68020350D02*
X142857800Y-67468000D01*
X142305450Y-74240350D02*
X142305450Y-68020350D01*
X146190000Y-67458000D02*
X146190000Y-65410000D01*
X142857800Y-67468000D02*
X146200000Y-67468000D01*
X146200000Y-67468000D02*
X146190000Y-67458000D01*
X136264550Y-76335450D02*
X140210350Y-76335450D01*
%TO.N,/D8*%
X147790000Y-68250000D02*
X147790000Y-65410000D01*
X147810000Y-68270000D02*
X147790000Y-68250000D01*
X138880000Y-78800000D02*
X143190000Y-74490000D01*
X143190000Y-68270000D02*
X147810000Y-68270000D01*
X143190000Y-74490000D02*
X143190000Y-68270000D01*
%TO.N,/D3*%
X143979898Y-58460102D02*
X144010000Y-58430000D01*
X129862750Y-75117250D02*
X139727250Y-75117250D01*
X126180000Y-78800000D02*
X129862750Y-75117250D01*
X140779000Y-65127546D02*
X140580526Y-64929072D01*
X140779000Y-74065500D02*
X140779000Y-65127546D01*
X142622902Y-58460102D02*
X143979898Y-58460102D01*
X139727250Y-75117250D02*
X140779000Y-74065500D01*
%TO.N,/D7*%
X136340000Y-78800000D02*
X138403550Y-76736450D01*
X140376450Y-76736450D02*
X142706450Y-74406450D01*
X138403550Y-76736450D02*
X140376450Y-76736450D01*
X142706450Y-74406450D02*
X142706450Y-68186450D01*
X143023900Y-67869000D02*
X146970000Y-67869000D01*
X146970000Y-67869000D02*
X146990000Y-67849000D01*
X146990000Y-67849000D02*
X146990000Y-65410000D01*
X142706450Y-68186450D02*
X143023900Y-67869000D01*
%TO.N,/D2*%
X140378000Y-73899400D02*
X139780656Y-73302056D01*
X139561150Y-74716250D02*
X140378000Y-73899400D01*
X127723750Y-74716250D02*
X132540000Y-74716250D01*
X145350000Y-57010000D02*
X145390000Y-57050000D01*
X144390000Y-57010000D02*
X145350000Y-57010000D01*
X132540000Y-74716250D02*
X139561150Y-74716250D01*
X123640000Y-78800000D02*
X127723750Y-74716250D01*
X139780656Y-73302056D02*
X139780656Y-64943627D01*
%TO.N,/D5*%
X134125550Y-75934450D02*
X140044250Y-75934450D01*
X145410000Y-66960000D02*
X145390000Y-66940000D01*
X140044250Y-75934450D02*
X141904450Y-74074250D01*
X142691700Y-67067000D02*
X145410000Y-67067000D01*
X145410000Y-67067000D02*
X145410000Y-66960000D01*
X131260000Y-78800000D02*
X134125550Y-75934450D01*
X145390000Y-66940000D02*
X145390000Y-65410000D01*
X141904450Y-67854250D02*
X142691700Y-67067000D01*
X141904450Y-74074250D02*
X141904450Y-67854250D01*
%TO.N,/D4*%
X142610000Y-59260000D02*
X143980000Y-59260000D01*
X141380000Y-74031600D02*
X141380000Y-64900000D01*
X143980000Y-59260000D02*
X144010000Y-59230000D01*
X131994200Y-75525800D02*
X139885800Y-75525800D01*
X139885800Y-75525800D02*
X141380000Y-74031600D01*
X128720000Y-78800000D02*
X131994200Y-75525800D01*
%TO.N,/TX*%
X147160000Y-58920000D02*
X147110000Y-58870000D01*
X154190000Y-67380000D02*
X154210000Y-67360000D01*
X146210000Y-58870000D02*
X146190000Y-58850000D01*
X146190000Y-58850000D02*
X146190000Y-57050000D01*
X154190000Y-67580000D02*
X154190000Y-67380000D01*
X154210000Y-74760000D02*
X154210000Y-67600000D01*
X154210000Y-67600000D02*
X154190000Y-67580000D01*
X158220000Y-78770000D02*
X154210000Y-74760000D01*
X147110000Y-58870000D02*
X146210000Y-58870000D01*
%TO.N,/RX*%
X153270000Y-67910000D02*
X153160000Y-67800000D01*
X155680000Y-78770000D02*
X153270000Y-76360000D01*
X149670000Y-67800000D02*
X149460000Y-67590000D01*
X147130000Y-57190000D02*
X146990000Y-57050000D01*
X147110000Y-57170000D02*
X146990000Y-57050000D01*
X147110000Y-58090000D02*
X147110000Y-57170000D01*
X153270000Y-76360000D02*
X153270000Y-67910000D01*
X153160000Y-67800000D02*
X149670000Y-67800000D01*
%TO.N,/RESET*%
X135380000Y-68980000D02*
X135410000Y-68950000D01*
X147790000Y-55930000D02*
X147790000Y-57050000D01*
X147910000Y-55380000D02*
X147910000Y-56930000D01*
X147160000Y-55300000D02*
X147790000Y-55930000D01*
X163720000Y-58780000D02*
X163490000Y-58780000D01*
X135410000Y-68950000D02*
X135401000Y-68941000D01*
X135401000Y-63823565D02*
X136670000Y-62554565D01*
X135401000Y-68941000D02*
X135401000Y-63823565D01*
X147910000Y-56930000D02*
X147790000Y-57050000D01*
X132830000Y-68980000D02*
X135380000Y-68980000D01*
X165630000Y-56870000D02*
X163720000Y-58780000D01*
%TO.N,/MOSI*%
X150210000Y-66760000D02*
X150210000Y-65430000D01*
X150210000Y-65430000D02*
X150190000Y-65410000D01*
X168170000Y-54330000D02*
X171020000Y-54330000D01*
%TO.N,/MISO*%
X163300000Y-51790000D02*
X163230000Y-51720000D01*
X165630000Y-51790000D02*
X163300000Y-51790000D01*
X151010000Y-65430000D02*
X150990000Y-65410000D01*
X152070000Y-65430000D02*
X151010000Y-65430000D01*
%TO.N,Net-(U3-~{INTA})*%
X121408100Y-69377000D02*
X118459100Y-69377000D01*
X118459100Y-69377000D02*
X114262000Y-73574100D01*
%TO.N,Net-(U3-SQW{slash}~INT)*%
X156550000Y-61840000D02*
X156550000Y-66420000D01*
X124213000Y-68107000D02*
X126358100Y-68107000D01*
X124170000Y-68150000D02*
X124213000Y-68107000D01*
X156550000Y-66420000D02*
X155150000Y-67820000D01*
X156562500Y-61827500D02*
X156550000Y-61840000D01*
X158770000Y-61827500D02*
X156562500Y-61827500D01*
%TO.N,Net-(U3-X2)*%
X112060000Y-67240000D02*
X112927000Y-68107000D01*
X112927000Y-68107000D02*
X121408100Y-68107000D01*
%TO.N,Net-(U3-X1)*%
X116611100Y-62040000D02*
X121408100Y-66837000D01*
X112060000Y-62040000D02*
X116611100Y-62040000D01*
%TD*%
M02*
