%TF.GenerationSoftware,KiCad,Pcbnew,9.0.2*%
%TF.CreationDate,2025-06-26T23:30:40+05:30*%
%TF.ProjectId,MCU data logger,4d435520-6461-4746-9120-6c6f67676572,VERSION 1*%
%TF.SameCoordinates,Original*%
%TF.FileFunction,Copper,L4,Bot*%
%TF.FilePolarity,Positive*%
%FSLAX46Y46*%
G04 Gerber Fmt 4.6, Leading zero omitted, Abs format (unit mm)*
G04 Created by KiCad (PCBNEW 9.0.2) date 2025-06-26 23:30:40*
%MOMM*%
%LPD*%
G01*
G04 APERTURE LIST*
%TA.AperFunction,ComponentPad*%
%ADD10R,1.700000X1.700000*%
%TD*%
%TA.AperFunction,ComponentPad*%
%ADD11C,1.700000*%
%TD*%
%TA.AperFunction,ViaPad*%
%ADD12C,0.600000*%
%TD*%
%TA.AperFunction,Conductor*%
%ADD13C,0.200000*%
%TD*%
G04 APERTURE END LIST*
D10*
%TO.P,J3,1,Pin_1*%
%TO.N,GND*%
X150600000Y-78770000D03*
D11*
%TO.P,J3,2,Pin_2*%
%TO.N,/VCC*%
X153140000Y-78770000D03*
%TO.P,J3,3,Pin_3*%
%TO.N,/RX*%
X155680000Y-78770000D03*
%TO.P,J3,4,Pin_4*%
%TO.N,/TX*%
X158220000Y-78770000D03*
%TD*%
D10*
%TO.P,J4,1,Pin_1*%
%TO.N,/MISO*%
X165630000Y-51790000D03*
D11*
%TO.P,J4,2,Pin_2*%
%TO.N,/VCC*%
X168170000Y-51790000D03*
%TO.P,J4,3,Pin_3*%
%TO.N,/SCK*%
X165630000Y-54330000D03*
%TO.P,J4,4,Pin_4*%
%TO.N,/MOSI*%
X168170000Y-54330000D03*
%TO.P,J4,5,Pin_5*%
%TO.N,/RESET*%
X165630000Y-56870000D03*
%TO.P,J4,6,Pin_6*%
%TO.N,GND*%
X168170000Y-56870000D03*
%TD*%
D10*
%TO.P,BT1,1,Pin_1*%
%TO.N,GND*%
X111770000Y-51785000D03*
D11*
%TO.P,BT1,2,Pin_2*%
%TO.N,/VCC*%
X111770000Y-54325000D03*
%TD*%
D10*
%TO.P,J1,1,Pin_1*%
%TO.N,GND*%
X166850000Y-62830000D03*
D11*
%TO.P,J1,2,Pin_2*%
%TO.N,/VCC*%
X166850000Y-65370000D03*
%TO.P,J1,3,Pin_3*%
%TO.N,/SDA*%
X166850000Y-67910000D03*
%TO.P,J1,4,Pin_4*%
%TO.N,/SCK*%
X166850000Y-70450000D03*
%TD*%
D10*
%TO.P,J2,1,Pin_1*%
%TO.N,/D2*%
X123640000Y-78800000D03*
D11*
%TO.P,J2,2,Pin_2*%
%TO.N,/D3*%
X126180000Y-78800000D03*
%TO.P,J2,3,Pin_3*%
%TO.N,/D4*%
X128720000Y-78800000D03*
%TO.P,J2,4,Pin_4*%
%TO.N,/D5*%
X131260000Y-78800000D03*
%TO.P,J2,5,Pin_5*%
%TO.N,/D6*%
X133800000Y-78800000D03*
%TO.P,J2,6,Pin_6*%
%TO.N,/D7*%
X136340000Y-78800000D03*
%TO.P,J2,7,Pin_7*%
%TO.N,/D8*%
X138880000Y-78800000D03*
%TO.P,J2,8,Pin_8*%
%TO.N,GND*%
X141420000Y-78800000D03*
%TO.P,J2,9,Pin_9*%
%TO.N,/VCC*%
X143960000Y-78800000D03*
%TD*%
D12*
%TO.N,/VCC*%
X151030000Y-62340000D03*
X134140000Y-57550000D03*
X143280000Y-76620000D03*
X116480000Y-68770000D03*
X117500000Y-50830000D03*
X154350000Y-63200000D03*
X150059999Y-63368527D03*
X137450000Y-73030000D03*
X162089000Y-60420000D03*
X119434246Y-60723316D03*
X142040000Y-54240000D03*
%TO.N,GND*%
X131830000Y-59180000D03*
X119010000Y-55250000D03*
X122190000Y-58285000D03*
X132920000Y-67310000D03*
X118870000Y-61300000D03*
X113430000Y-51710000D03*
X118780000Y-59200000D03*
X134200000Y-66250000D03*
X130380000Y-51970000D03*
X128975735Y-52704265D03*
X150060000Y-60720000D03*
X134180000Y-62510000D03*
X150390000Y-61860000D03*
X157250000Y-66690000D03*
X138400000Y-73850000D03*
X131980000Y-56520000D03*
X145910000Y-61430000D03*
X136190000Y-67350000D03*
X146630000Y-60230000D03*
X147760001Y-60279451D03*
X120160000Y-55550000D03*
X164080000Y-66810000D03*
X145303890Y-62208472D03*
X140400000Y-61110000D03*
X164390000Y-62600000D03*
X141660000Y-77820000D03*
%TO.N,Net-(U4-PB6)*%
X143790000Y-73560000D03*
X141238000Y-62740000D03*
%TO.N,Net-(U4-PB7)*%
X144060000Y-64890000D03*
X142857468Y-65459203D03*
X141086037Y-61954565D03*
X144720000Y-68870000D03*
%TO.N,/SCK*%
X128950000Y-60269000D03*
X162090000Y-70470000D03*
X145850000Y-59430000D03*
X124760000Y-60370000D03*
X124770000Y-69380000D03*
X152500000Y-64640000D03*
%TO.N,Net-(D1-K)*%
X134800000Y-63530000D03*
X150237928Y-52381850D03*
%TO.N,Net-(D2-K)*%
X114090000Y-77220000D03*
X155780000Y-68670000D03*
%TO.N,/SDA*%
X129310000Y-61540000D03*
X149510000Y-52050000D03*
X162689000Y-67890000D03*
X149060000Y-55690000D03*
X151536382Y-55900000D03*
X129320000Y-55216765D03*
%TO.N,/D3*%
X142622902Y-58460102D03*
X140580526Y-64929072D03*
%TO.N,/D2*%
X139780656Y-64943627D03*
X144390000Y-57010000D03*
%TO.N,/D4*%
X141380000Y-64900000D03*
X142610000Y-59260000D03*
%TO.N,/TX*%
X154210000Y-67360000D03*
X147160000Y-58920000D03*
%TO.N,/RX*%
X147110000Y-58090000D03*
X149460000Y-67590000D03*
%TO.N,/RESET*%
X147910000Y-55380000D03*
X136670000Y-62554565D03*
X163490000Y-58780000D03*
X147160000Y-55300000D03*
%TO.N,/MOSI*%
X171020000Y-54330000D03*
X150210000Y-66760000D03*
%TO.N,/MISO*%
X163230000Y-51720000D03*
X152070000Y-65430000D03*
%TO.N,Net-(U3-SQW{slash}~INT)*%
X124170000Y-68150000D03*
X155150000Y-67820000D03*
%TD*%
D13*
%TO.N,/VCC*%
X155941436Y-60348621D02*
X161908621Y-60348621D01*
X161908621Y-60348621D02*
X162040000Y-60480000D01*
X154350000Y-63200000D02*
X154350000Y-61940057D01*
X154350000Y-61940057D02*
X155941436Y-60348621D01*
X139690000Y-73030000D02*
X143280000Y-76620000D01*
X116480000Y-68770000D02*
X119471000Y-65779000D01*
X162040000Y-60469000D02*
X162089000Y-60420000D01*
X119471000Y-60760070D02*
X119434246Y-60723316D01*
X119471000Y-65779000D02*
X119471000Y-60760070D01*
X137450000Y-73030000D02*
X139690000Y-73030000D01*
X162040000Y-60480000D02*
X162040000Y-60469000D01*
X137450000Y-54240000D02*
X134140000Y-57550000D01*
X142040000Y-54240000D02*
X137450000Y-54240000D01*
%TO.N,GND*%
X151469000Y-63927585D02*
X151469000Y-65859000D01*
X122190000Y-58285000D02*
X122190000Y-57580000D01*
X150390000Y-62848585D02*
X151469000Y-63927585D01*
X146609452Y-61430000D02*
X145910000Y-61430000D01*
X164080000Y-62910000D02*
X164390000Y-62600000D01*
X146630000Y-60230000D02*
X145970000Y-60890000D01*
X156919000Y-66359000D02*
X157250000Y-66690000D01*
X136190000Y-67350000D02*
X132960000Y-67350000D01*
X138400000Y-73850000D02*
X138400000Y-74560000D01*
X150060000Y-60720000D02*
X148571528Y-62208472D01*
X134180000Y-62510000D02*
X134180000Y-66230000D01*
X116970000Y-55250000D02*
X113430000Y-51710000D01*
X134180000Y-66230000D02*
X134200000Y-66250000D01*
X151969000Y-66359000D02*
X156919000Y-66359000D01*
X145970000Y-60890000D02*
X140620000Y-60890000D01*
X140620000Y-60890000D02*
X140400000Y-61110000D01*
X118780000Y-61210000D02*
X118780000Y-59200000D01*
X129710000Y-51970000D02*
X128975735Y-52704265D01*
X148571528Y-62208472D02*
X145303890Y-62208472D01*
X132960000Y-67350000D02*
X132920000Y-67310000D01*
X119010000Y-55250000D02*
X116970000Y-55250000D01*
X131830000Y-59180000D02*
X131830000Y-56670000D01*
X164080000Y-66810000D02*
X164080000Y-62910000D01*
X122190000Y-57580000D02*
X120160000Y-55550000D01*
X131830000Y-56670000D02*
X131980000Y-56520000D01*
X130380000Y-51970000D02*
X129710000Y-51970000D01*
X151469000Y-65859000D02*
X151969000Y-66359000D01*
X150390000Y-61860000D02*
X150390000Y-62848585D01*
X138400000Y-74560000D02*
X141660000Y-77820000D01*
X118870000Y-61300000D02*
X118780000Y-61210000D01*
X147760001Y-60279451D02*
X146609452Y-61430000D01*
%TO.N,Net-(U4-PB7)*%
X141086037Y-61954565D02*
X141302508Y-61954565D01*
X142857468Y-63509525D02*
X142857468Y-65459203D01*
X141302508Y-61954565D02*
X142857468Y-63509525D01*
%TO.N,/SCK*%
X161540000Y-60750000D02*
X161490000Y-60800000D01*
X161540000Y-69920000D02*
X161540000Y-60750000D01*
X156770000Y-60800000D02*
X156770000Y-64610000D01*
X136918943Y-63155565D02*
X135675508Y-63155565D01*
X140213508Y-59861000D02*
X136918943Y-63155565D01*
X145419000Y-59861000D02*
X140213508Y-59861000D01*
X135675508Y-63155565D02*
X132788943Y-60269000D01*
X156770000Y-64610000D02*
X156740000Y-64640000D01*
X162090000Y-70470000D02*
X161540000Y-69920000D01*
X132788943Y-60269000D02*
X128950000Y-60269000D01*
X145850000Y-59430000D02*
X145419000Y-59861000D01*
X156740000Y-64640000D02*
X152500000Y-64640000D01*
X161490000Y-60800000D02*
X156770000Y-60800000D01*
%TO.N,/SDA*%
X153066382Y-54370000D02*
X151536382Y-55900000D01*
X162689000Y-67890000D02*
X162689000Y-54421000D01*
X133539000Y-56596943D02*
X133539000Y-57798943D01*
X148078943Y-54699000D02*
X149060000Y-55680057D01*
X133891057Y-58151000D02*
X140506465Y-58151000D01*
X149060000Y-55680057D02*
X149060000Y-55690000D01*
X140506465Y-58151000D02*
X143958465Y-54699000D01*
X129320000Y-55216765D02*
X132158822Y-55216765D01*
X149510000Y-52050000D02*
X149510000Y-55240000D01*
X162740000Y-54370000D02*
X153066382Y-54370000D01*
X149510000Y-55240000D02*
X149060000Y-55690000D01*
X143958465Y-54699000D02*
X148078943Y-54699000D01*
X133539000Y-57798943D02*
X133891057Y-58151000D01*
X132158822Y-55216765D02*
X133539000Y-56596943D01*
X162689000Y-54421000D02*
X162740000Y-54370000D01*
%TO.N,/RESET*%
X136670000Y-62554565D02*
X143924565Y-55300000D01*
X143924565Y-55300000D02*
X147160000Y-55300000D01*
%TO.N,/MOSI*%
X153609000Y-67111057D02*
X153257943Y-66760000D01*
X170950000Y-72770000D02*
X153630000Y-72770000D01*
X153609000Y-72749000D02*
X153609000Y-67111057D01*
X171020000Y-54330000D02*
X171020000Y-72700000D01*
X153257943Y-66760000D02*
X150210000Y-66760000D01*
X171020000Y-72700000D02*
X170950000Y-72770000D01*
X153630000Y-72770000D02*
X153609000Y-72749000D01*
%TD*%
%TA.AperFunction,Conductor*%
%TO.N,GND*%
G36*
X166971444Y-54983999D02*
G01*
X167010484Y-55029054D01*
X167014591Y-55037115D01*
X167014951Y-55037820D01*
X167139890Y-55209786D01*
X167290213Y-55360109D01*
X167462179Y-55485048D01*
X167462181Y-55485049D01*
X167462184Y-55485051D01*
X167471493Y-55489794D01*
X167522290Y-55537766D01*
X167539087Y-55605587D01*
X167516552Y-55671722D01*
X167471505Y-55710760D01*
X167462446Y-55715376D01*
X167462440Y-55715380D01*
X167408282Y-55754727D01*
X167408282Y-55754728D01*
X168040591Y-56387037D01*
X167977007Y-56404075D01*
X167862993Y-56469901D01*
X167769901Y-56562993D01*
X167704075Y-56677007D01*
X167687037Y-56740591D01*
X167054728Y-56108282D01*
X167054727Y-56108282D01*
X167015380Y-56162440D01*
X167015376Y-56162446D01*
X167010760Y-56171505D01*
X166962781Y-56222297D01*
X166894959Y-56239087D01*
X166828826Y-56216543D01*
X166789794Y-56171493D01*
X166785051Y-56162184D01*
X166785049Y-56162181D01*
X166785048Y-56162179D01*
X166660109Y-55990213D01*
X166509786Y-55839890D01*
X166337820Y-55714951D01*
X166329600Y-55710763D01*
X166329054Y-55710485D01*
X166278259Y-55662512D01*
X166261463Y-55594692D01*
X166283999Y-55528556D01*
X166329054Y-55489515D01*
X166337816Y-55485051D01*
X166385710Y-55450254D01*
X166509786Y-55360109D01*
X166509788Y-55360106D01*
X166509792Y-55360104D01*
X166660104Y-55209792D01*
X166660106Y-55209788D01*
X166660109Y-55209786D01*
X166785048Y-55037820D01*
X166785047Y-55037820D01*
X166785051Y-55037816D01*
X166789514Y-55029054D01*
X166837488Y-54978259D01*
X166905308Y-54961463D01*
X166971444Y-54983999D01*
G37*
%TD.AperFunction*%
%TA.AperFunction,Conductor*%
G36*
X171605197Y-47446853D02*
G01*
X171672179Y-47466725D01*
X171717787Y-47519656D01*
X171728848Y-47571403D01*
X171724509Y-48549113D01*
X171704527Y-48616065D01*
X171676308Y-48646699D01*
X171672029Y-48650004D01*
X171671791Y-48650187D01*
X171671666Y-48650282D01*
X171625448Y-48696736D01*
X171625449Y-48696737D01*
X171625325Y-48696862D01*
X171579087Y-48743225D01*
X171578932Y-48743493D01*
X171578713Y-48743714D01*
X171578688Y-48743756D01*
X171578686Y-48743759D01*
X171546094Y-48800544D01*
X171546095Y-48800545D01*
X171546080Y-48800572D01*
X171513348Y-48857442D01*
X171513267Y-48857743D01*
X171513114Y-48858011D01*
X171513099Y-48858065D01*
X171513098Y-48858068D01*
X171496260Y-48921556D01*
X171496216Y-48921725D01*
X171479412Y-48984782D01*
X171479412Y-48985087D01*
X171479332Y-48985391D01*
X171479332Y-48985440D01*
X171479332Y-48985441D01*
X171479502Y-49051687D01*
X171479502Y-49051837D01*
X171485448Y-53470594D01*
X171465854Y-53537660D01*
X171413111Y-53583486D01*
X171343966Y-53593522D01*
X171313996Y-53585322D01*
X171253501Y-53560264D01*
X171253489Y-53560261D01*
X171098845Y-53529500D01*
X171098842Y-53529500D01*
X170941158Y-53529500D01*
X170941155Y-53529500D01*
X170786510Y-53560261D01*
X170786498Y-53560264D01*
X170640827Y-53620602D01*
X170640814Y-53620609D01*
X170509711Y-53708210D01*
X170509707Y-53708213D01*
X170398213Y-53819707D01*
X170398210Y-53819711D01*
X170310609Y-53950814D01*
X170310602Y-53950827D01*
X170250264Y-54096498D01*
X170250261Y-54096510D01*
X170219500Y-54251153D01*
X170219500Y-54408846D01*
X170250261Y-54563489D01*
X170250264Y-54563501D01*
X170310602Y-54709172D01*
X170310609Y-54709185D01*
X170398602Y-54840874D01*
X170419480Y-54907551D01*
X170419500Y-54909765D01*
X170419500Y-72045500D01*
X170399815Y-72112539D01*
X170347011Y-72158294D01*
X170295500Y-72169500D01*
X154333500Y-72169500D01*
X154266461Y-72149815D01*
X154220706Y-72097011D01*
X154209500Y-72045500D01*
X154209500Y-68278046D01*
X154218442Y-68247592D01*
X154225742Y-68216693D01*
X154228216Y-68214304D01*
X154229185Y-68211007D01*
X154253166Y-68190226D01*
X154276018Y-68168174D01*
X154280402Y-68166627D01*
X154281989Y-68165252D01*
X154309298Y-68156430D01*
X154318722Y-68154556D01*
X154388311Y-68160779D01*
X154443491Y-68203639D01*
X154446020Y-68207282D01*
X154528207Y-68330284D01*
X154528213Y-68330292D01*
X154639707Y-68441786D01*
X154639711Y-68441789D01*
X154770814Y-68529390D01*
X154770827Y-68529397D01*
X154902952Y-68584124D01*
X154957356Y-68627964D01*
X154979421Y-68694258D01*
X154979500Y-68698685D01*
X154979500Y-68748846D01*
X155010261Y-68903489D01*
X155010264Y-68903501D01*
X155070602Y-69049172D01*
X155070609Y-69049185D01*
X155158210Y-69180288D01*
X155158213Y-69180292D01*
X155269707Y-69291786D01*
X155269711Y-69291789D01*
X155400814Y-69379390D01*
X155400827Y-69379397D01*
X155498602Y-69419896D01*
X155546503Y-69439737D01*
X155701153Y-69470499D01*
X155701156Y-69470500D01*
X155701158Y-69470500D01*
X155858844Y-69470500D01*
X155858845Y-69470499D01*
X156013497Y-69439737D01*
X156159179Y-69379394D01*
X156290289Y-69291789D01*
X156401789Y-69180289D01*
X156489394Y-69049179D01*
X156549737Y-68903497D01*
X156580500Y-68748842D01*
X156580500Y-68591158D01*
X156580500Y-68591155D01*
X156580499Y-68591153D01*
X156568173Y-68529185D01*
X156549737Y-68436503D01*
X156549735Y-68436498D01*
X156489397Y-68290827D01*
X156489390Y-68290814D01*
X156401789Y-68159711D01*
X156401786Y-68159707D01*
X156290292Y-68048213D01*
X156290288Y-68048210D01*
X156159185Y-67960609D01*
X156159176Y-67960604D01*
X156027047Y-67905875D01*
X155972644Y-67862034D01*
X155950579Y-67795740D01*
X155950500Y-67791314D01*
X155950500Y-67741155D01*
X155950499Y-67741153D01*
X155922593Y-67600862D01*
X155919737Y-67586503D01*
X155908966Y-67560500D01*
X155859397Y-67440827D01*
X155859390Y-67440814D01*
X155771789Y-67309711D01*
X155771786Y-67309707D01*
X155660292Y-67198213D01*
X155660288Y-67198210D01*
X155529185Y-67110609D01*
X155529172Y-67110602D01*
X155383501Y-67050264D01*
X155383489Y-67050261D01*
X155228845Y-67019500D01*
X155228842Y-67019500D01*
X155071158Y-67019500D01*
X155071157Y-67019500D01*
X155041270Y-67025444D01*
X154971679Y-67019215D01*
X154916502Y-66976350D01*
X154913980Y-66972717D01*
X154831789Y-66849711D01*
X154831786Y-66849707D01*
X154720292Y-66738213D01*
X154720288Y-66738210D01*
X154589185Y-66650609D01*
X154589172Y-66650602D01*
X154443501Y-66590264D01*
X154443489Y-66590261D01*
X154288845Y-66559500D01*
X154288842Y-66559500D01*
X154131158Y-66559500D01*
X154131153Y-66559500D01*
X154008927Y-66583812D01*
X153939335Y-66577585D01*
X153897055Y-66549876D01*
X153626660Y-66279481D01*
X153626652Y-66279475D01*
X153539120Y-66228939D01*
X153539119Y-66228939D01*
X153518244Y-66216887D01*
X153489728Y-66200423D01*
X153337000Y-66159499D01*
X153178886Y-66159499D01*
X153171290Y-66159499D01*
X153171274Y-66159500D01*
X152771941Y-66159500D01*
X152704902Y-66139815D01*
X152659147Y-66087011D01*
X152649203Y-66017853D01*
X152678228Y-65954297D01*
X152684260Y-65947819D01*
X152691786Y-65940292D01*
X152691789Y-65940289D01*
X152779394Y-65809179D01*
X152839737Y-65663497D01*
X152870500Y-65508842D01*
X152870500Y-65421472D01*
X152872736Y-65413854D01*
X152871467Y-65406018D01*
X152882440Y-65380808D01*
X152890185Y-65354433D01*
X152896894Y-65347602D01*
X152899353Y-65341954D01*
X152925606Y-65318371D01*
X153010289Y-65261789D01*
X153010288Y-65261789D01*
X153010876Y-65261397D01*
X153077554Y-65240520D01*
X153079766Y-65240500D01*
X156653331Y-65240500D01*
X156653347Y-65240501D01*
X156660943Y-65240501D01*
X156819054Y-65240501D01*
X156819057Y-65240501D01*
X156971785Y-65199577D01*
X157035884Y-65162569D01*
X157108716Y-65120520D01*
X157220520Y-65008716D01*
X157250520Y-64978716D01*
X157329577Y-64841784D01*
X157359534Y-64729981D01*
X157370500Y-64689058D01*
X157370500Y-64530943D01*
X157370500Y-61524500D01*
X157390185Y-61457461D01*
X157442989Y-61411706D01*
X157494500Y-61400500D01*
X160815500Y-61400500D01*
X160882539Y-61420185D01*
X160928294Y-61472989D01*
X160939500Y-61524500D01*
X160939500Y-69833330D01*
X160939499Y-69833348D01*
X160939499Y-69999054D01*
X160939498Y-69999054D01*
X160979873Y-70149735D01*
X160980423Y-70151785D01*
X160997001Y-70180499D01*
X160997003Y-70180501D01*
X161059479Y-70288714D01*
X161059481Y-70288717D01*
X161178349Y-70407585D01*
X161178355Y-70407590D01*
X161255425Y-70484660D01*
X161288910Y-70545983D01*
X161289361Y-70548149D01*
X161320261Y-70703491D01*
X161320264Y-70703501D01*
X161380602Y-70849172D01*
X161380609Y-70849185D01*
X161468210Y-70980288D01*
X161468213Y-70980292D01*
X161579707Y-71091786D01*
X161579711Y-71091789D01*
X161710814Y-71179390D01*
X161710827Y-71179397D01*
X161856498Y-71239735D01*
X161856503Y-71239737D01*
X162011153Y-71270499D01*
X162011156Y-71270500D01*
X162011158Y-71270500D01*
X162168844Y-71270500D01*
X162168845Y-71270499D01*
X162323497Y-71239737D01*
X162469179Y-71179394D01*
X162600289Y-71091789D01*
X162711789Y-70980289D01*
X162799394Y-70849179D01*
X162859737Y-70703497D01*
X162890500Y-70548842D01*
X162890500Y-70391158D01*
X162890500Y-70391155D01*
X162890499Y-70391153D01*
X162859737Y-70236503D01*
X162859735Y-70236498D01*
X162799397Y-70090827D01*
X162799390Y-70090814D01*
X162711789Y-69959711D01*
X162711786Y-69959707D01*
X162600292Y-69848213D01*
X162600288Y-69848210D01*
X162469185Y-69760609D01*
X162469172Y-69760602D01*
X162323501Y-69700264D01*
X162323491Y-69700261D01*
X162240308Y-69683715D01*
X162178397Y-69651330D01*
X162143823Y-69590614D01*
X162140500Y-69562098D01*
X162140500Y-68714838D01*
X162160185Y-68647799D01*
X162212989Y-68602044D01*
X162282147Y-68592100D01*
X162311952Y-68600277D01*
X162426682Y-68647799D01*
X162455503Y-68659737D01*
X162588918Y-68686275D01*
X162610153Y-68690499D01*
X162610156Y-68690500D01*
X162610158Y-68690500D01*
X162767844Y-68690500D01*
X162767845Y-68690499D01*
X162922497Y-68659737D01*
X163041939Y-68610263D01*
X163068172Y-68599397D01*
X163068172Y-68599396D01*
X163068179Y-68599394D01*
X163199289Y-68511789D01*
X163310789Y-68400289D01*
X163398394Y-68269179D01*
X163458737Y-68123497D01*
X163489500Y-67968842D01*
X163489500Y-67811158D01*
X163489500Y-67811155D01*
X163489499Y-67811153D01*
X163461192Y-67668846D01*
X163458737Y-67656503D01*
X163429745Y-67586510D01*
X163398397Y-67510827D01*
X163398390Y-67510814D01*
X163310398Y-67379125D01*
X163289520Y-67312447D01*
X163289500Y-67310234D01*
X163289500Y-65263713D01*
X165499500Y-65263713D01*
X165499500Y-65476286D01*
X165530139Y-65669737D01*
X165532754Y-65686243D01*
X165588579Y-65858055D01*
X165598444Y-65888414D01*
X165694951Y-66077820D01*
X165819890Y-66249786D01*
X165970213Y-66400109D01*
X166142182Y-66525050D01*
X166150946Y-66529516D01*
X166201742Y-66577491D01*
X166218536Y-66645312D01*
X166195998Y-66711447D01*
X166150946Y-66750484D01*
X166142182Y-66754949D01*
X165970213Y-66879890D01*
X165819890Y-67030213D01*
X165694951Y-67202179D01*
X165598444Y-67391585D01*
X165532753Y-67593760D01*
X165509408Y-67741155D01*
X165499500Y-67803713D01*
X165499500Y-68016287D01*
X165506520Y-68060609D01*
X165530464Y-68211789D01*
X165532754Y-68226243D01*
X165589306Y-68400292D01*
X165598444Y-68428414D01*
X165694951Y-68617820D01*
X165819890Y-68789786D01*
X165970213Y-68940109D01*
X166142182Y-69065050D01*
X166150946Y-69069516D01*
X166201742Y-69117491D01*
X166218536Y-69185312D01*
X166195998Y-69251447D01*
X166150946Y-69290484D01*
X166142182Y-69294949D01*
X165970213Y-69419890D01*
X165819890Y-69570213D01*
X165694951Y-69742179D01*
X165598444Y-69931585D01*
X165532753Y-70133760D01*
X165499500Y-70343713D01*
X165499500Y-70556286D01*
X165522816Y-70703501D01*
X165532754Y-70766243D01*
X165559699Y-70849172D01*
X165598444Y-70968414D01*
X165694951Y-71157820D01*
X165819890Y-71329786D01*
X165970213Y-71480109D01*
X166142179Y-71605048D01*
X166142181Y-71605049D01*
X166142184Y-71605051D01*
X166331588Y-71701557D01*
X166533757Y-71767246D01*
X166743713Y-71800500D01*
X166743714Y-71800500D01*
X166956286Y-71800500D01*
X166956287Y-71800500D01*
X167166243Y-71767246D01*
X167368412Y-71701557D01*
X167557816Y-71605051D01*
X167579789Y-71589086D01*
X167729786Y-71480109D01*
X167729788Y-71480106D01*
X167729792Y-71480104D01*
X167880104Y-71329792D01*
X167880106Y-71329788D01*
X167880109Y-71329786D01*
X168005048Y-71157820D01*
X168005047Y-71157820D01*
X168005051Y-71157816D01*
X168101557Y-70968412D01*
X168167246Y-70766243D01*
X168200500Y-70556287D01*
X168200500Y-70343713D01*
X168167246Y-70133757D01*
X168101557Y-69931588D01*
X168005051Y-69742184D01*
X168005049Y-69742181D01*
X168005048Y-69742179D01*
X167880109Y-69570213D01*
X167729786Y-69419890D01*
X167557820Y-69294951D01*
X167551608Y-69291786D01*
X167549054Y-69290485D01*
X167498259Y-69242512D01*
X167481463Y-69174692D01*
X167503999Y-69108556D01*
X167549054Y-69069515D01*
X167557816Y-69065051D01*
X167579789Y-69049086D01*
X167729786Y-68940109D01*
X167729788Y-68940106D01*
X167729792Y-68940104D01*
X167880104Y-68789792D01*
X167880106Y-68789788D01*
X167880109Y-68789786D01*
X168005048Y-68617820D01*
X168005047Y-68617820D01*
X168005051Y-68617816D01*
X168101557Y-68428412D01*
X168167246Y-68226243D01*
X168200500Y-68016287D01*
X168200500Y-67803713D01*
X168167246Y-67593757D01*
X168101557Y-67391588D01*
X168005051Y-67202184D01*
X168005049Y-67202181D01*
X168005048Y-67202179D01*
X167880109Y-67030213D01*
X167729786Y-66879890D01*
X167557820Y-66754951D01*
X167557115Y-66754591D01*
X167549054Y-66750485D01*
X167498259Y-66702512D01*
X167481463Y-66634692D01*
X167503999Y-66568556D01*
X167549054Y-66529515D01*
X167557816Y-66525051D01*
X167579789Y-66509086D01*
X167729786Y-66400109D01*
X167729788Y-66400106D01*
X167729792Y-66400104D01*
X167880104Y-66249792D01*
X167880106Y-66249788D01*
X167880109Y-66249786D01*
X167998370Y-66087011D01*
X168005051Y-66077816D01*
X168101557Y-65888412D01*
X168167246Y-65686243D01*
X168200500Y-65476287D01*
X168200500Y-65263713D01*
X168167246Y-65053757D01*
X168101557Y-64851588D01*
X168005051Y-64662184D01*
X168005049Y-64662181D01*
X168005048Y-64662179D01*
X167880109Y-64490213D01*
X167766181Y-64376285D01*
X167732696Y-64314962D01*
X167737680Y-64245270D01*
X167779552Y-64189337D01*
X167810529Y-64172422D01*
X167942086Y-64123354D01*
X167942093Y-64123350D01*
X168057187Y-64037190D01*
X168057190Y-64037187D01*
X168143350Y-63922093D01*
X168143354Y-63922086D01*
X168193596Y-63787379D01*
X168193598Y-63787372D01*
X168199999Y-63727844D01*
X168200000Y-63727827D01*
X168200000Y-63080000D01*
X167283012Y-63080000D01*
X167315925Y-63022993D01*
X167350000Y-62895826D01*
X167350000Y-62764174D01*
X167315925Y-62637007D01*
X167283012Y-62580000D01*
X168200000Y-62580000D01*
X168200000Y-61932172D01*
X168199999Y-61932155D01*
X168193598Y-61872627D01*
X168193596Y-61872620D01*
X168143354Y-61737913D01*
X168143350Y-61737906D01*
X168057190Y-61622812D01*
X168057187Y-61622809D01*
X167942093Y-61536649D01*
X167942086Y-61536645D01*
X167807379Y-61486403D01*
X167807372Y-61486401D01*
X167747844Y-61480000D01*
X167100000Y-61480000D01*
X167100000Y-62396988D01*
X167042993Y-62364075D01*
X166915826Y-62330000D01*
X166784174Y-62330000D01*
X166657007Y-62364075D01*
X166600000Y-62396988D01*
X166600000Y-61480000D01*
X165952155Y-61480000D01*
X165892627Y-61486401D01*
X165892620Y-61486403D01*
X165757913Y-61536645D01*
X165757906Y-61536649D01*
X165642812Y-61622809D01*
X165642809Y-61622812D01*
X165556649Y-61737906D01*
X165556645Y-61737913D01*
X165506403Y-61872620D01*
X165506401Y-61872627D01*
X165500000Y-61932155D01*
X165500000Y-62580000D01*
X166416988Y-62580000D01*
X166384075Y-62637007D01*
X166350000Y-62764174D01*
X166350000Y-62895826D01*
X166384075Y-63022993D01*
X166416988Y-63080000D01*
X165500000Y-63080000D01*
X165500000Y-63727844D01*
X165506401Y-63787372D01*
X165506403Y-63787379D01*
X165556645Y-63922086D01*
X165556649Y-63922093D01*
X165642809Y-64037187D01*
X165642812Y-64037190D01*
X165757906Y-64123350D01*
X165757913Y-64123354D01*
X165889470Y-64172422D01*
X165945404Y-64214293D01*
X165969821Y-64279758D01*
X165954969Y-64348031D01*
X165933819Y-64376285D01*
X165819889Y-64490215D01*
X165694951Y-64662179D01*
X165598444Y-64851585D01*
X165532753Y-65053760D01*
X165499500Y-65263713D01*
X163289500Y-65263713D01*
X163289500Y-59704500D01*
X163309185Y-59637461D01*
X163361989Y-59591706D01*
X163413500Y-59580500D01*
X163568844Y-59580500D01*
X163568845Y-59580499D01*
X163723497Y-59549737D01*
X163869179Y-59489394D01*
X164000289Y-59401789D01*
X164111789Y-59290289D01*
X164199394Y-59159179D01*
X164259737Y-59013497D01*
X164290500Y-58858842D01*
X164290500Y-58701158D01*
X164290500Y-58701155D01*
X164290499Y-58701153D01*
X164271178Y-58604021D01*
X164259737Y-58546503D01*
X164257386Y-58540828D01*
X164199397Y-58400827D01*
X164199390Y-58400814D01*
X164111789Y-58269711D01*
X164111786Y-58269707D01*
X164000292Y-58158213D01*
X164000288Y-58158210D01*
X163869185Y-58070609D01*
X163869172Y-58070602D01*
X163723501Y-58010264D01*
X163723489Y-58010261D01*
X163568845Y-57979500D01*
X163568842Y-57979500D01*
X163413500Y-57979500D01*
X163346461Y-57959815D01*
X163300706Y-57907011D01*
X163289500Y-57855500D01*
X163289500Y-54650778D01*
X163297673Y-54609689D01*
X163297473Y-54609636D01*
X163298292Y-54606576D01*
X163298940Y-54603323D01*
X163299572Y-54601792D01*
X163299577Y-54601785D01*
X163340501Y-54449057D01*
X163340501Y-54290943D01*
X163299577Y-54138215D01*
X163270639Y-54088095D01*
X163220520Y-54001284D01*
X163108716Y-53889480D01*
X163108714Y-53889479D01*
X163108709Y-53889475D01*
X162997607Y-53825331D01*
X162997606Y-53825330D01*
X162997606Y-53825331D01*
X162971785Y-53810423D01*
X162957473Y-53806588D01*
X162819057Y-53769499D01*
X162660943Y-53769499D01*
X162653347Y-53769499D01*
X162653331Y-53769500D01*
X153153052Y-53769500D01*
X153153036Y-53769499D01*
X153145440Y-53769499D01*
X152987325Y-53769499D01*
X152910961Y-53789961D01*
X152834596Y-53810423D01*
X152834591Y-53810426D01*
X152697672Y-53889475D01*
X152697664Y-53889481D01*
X151521721Y-55065425D01*
X151460398Y-55098910D01*
X151458232Y-55099361D01*
X151302890Y-55130261D01*
X151302880Y-55130264D01*
X151157209Y-55190602D01*
X151157196Y-55190609D01*
X151026093Y-55278210D01*
X151026089Y-55278213D01*
X150914595Y-55389707D01*
X150914592Y-55389711D01*
X150826991Y-55520814D01*
X150826984Y-55520827D01*
X150766646Y-55666498D01*
X150766643Y-55666510D01*
X150735882Y-55821153D01*
X150735882Y-55978846D01*
X150766643Y-56133489D01*
X150766646Y-56133501D01*
X150826984Y-56279172D01*
X150826991Y-56279185D01*
X150914592Y-56410288D01*
X150914595Y-56410292D01*
X151026089Y-56521786D01*
X151026093Y-56521789D01*
X151157196Y-56609390D01*
X151157209Y-56609397D01*
X151285145Y-56662389D01*
X151302885Y-56669737D01*
X151457535Y-56700499D01*
X151457538Y-56700500D01*
X151457540Y-56700500D01*
X151615226Y-56700500D01*
X151615227Y-56700499D01*
X151769879Y-56669737D01*
X151915561Y-56609394D01*
X152046671Y-56521789D01*
X152158171Y-56410289D01*
X152245776Y-56279179D01*
X152306119Y-56133497D01*
X152335358Y-55986503D01*
X152337020Y-55978150D01*
X152369405Y-55916239D01*
X152370898Y-55914718D01*
X153278799Y-55006819D01*
X153340122Y-54973334D01*
X153366480Y-54970500D01*
X161964500Y-54970500D01*
X162031539Y-54990185D01*
X162077294Y-55042989D01*
X162088500Y-55094500D01*
X162088500Y-59502152D01*
X162068815Y-59569191D01*
X162016011Y-59614946D01*
X161988692Y-59623769D01*
X161855508Y-59650261D01*
X161855498Y-59650264D01*
X161709827Y-59710602D01*
X161709814Y-59710609D01*
X161684951Y-59727223D01*
X161618273Y-59748101D01*
X161616060Y-59748121D01*
X155862376Y-59748121D01*
X155821455Y-59759085D01*
X155821455Y-59759086D01*
X155784187Y-59769072D01*
X155709650Y-59789044D01*
X155709645Y-59789047D01*
X155572726Y-59868096D01*
X155572718Y-59868102D01*
X153869481Y-61571339D01*
X153869477Y-61571344D01*
X153850586Y-61604067D01*
X153850585Y-61604069D01*
X153790423Y-61708272D01*
X153749499Y-61861000D01*
X153749499Y-61861002D01*
X153749499Y-62029103D01*
X153749500Y-62029116D01*
X153749500Y-62620234D01*
X153729815Y-62687273D01*
X153728602Y-62689125D01*
X153640609Y-62820814D01*
X153640602Y-62820827D01*
X153580264Y-62966498D01*
X153580261Y-62966510D01*
X153549500Y-63121153D01*
X153549500Y-63278846D01*
X153580261Y-63433489D01*
X153580264Y-63433501D01*
X153640602Y-63579172D01*
X153640609Y-63579185D01*
X153728210Y-63710288D01*
X153728213Y-63710292D01*
X153844018Y-63826097D01*
X153842517Y-63827597D01*
X153876437Y-63877400D01*
X153878303Y-63947244D01*
X153842112Y-64007011D01*
X153779354Y-64037723D01*
X153758435Y-64039500D01*
X153079766Y-64039500D01*
X153012727Y-64019815D01*
X153010875Y-64018602D01*
X152879185Y-63930609D01*
X152879172Y-63930602D01*
X152733501Y-63870264D01*
X152733489Y-63870261D01*
X152578845Y-63839500D01*
X152578842Y-63839500D01*
X152421158Y-63839500D01*
X152421155Y-63839500D01*
X152266510Y-63870261D01*
X152266498Y-63870264D01*
X152120827Y-63930602D01*
X152120814Y-63930609D01*
X151989711Y-64018210D01*
X151989707Y-64018213D01*
X151878213Y-64129707D01*
X151878210Y-64129711D01*
X151790609Y-64260814D01*
X151790602Y-64260827D01*
X151730264Y-64406498D01*
X151730261Y-64406510D01*
X151699500Y-64561153D01*
X151699500Y-64648527D01*
X151679815Y-64715566D01*
X151644391Y-64751629D01*
X151559711Y-64808210D01*
X151559707Y-64808213D01*
X151448213Y-64919707D01*
X151448210Y-64919711D01*
X151360609Y-65050814D01*
X151360602Y-65050827D01*
X151300264Y-65196498D01*
X151300261Y-65196510D01*
X151269500Y-65351153D01*
X151269500Y-65508846D01*
X151300261Y-65663489D01*
X151300264Y-65663501D01*
X151360602Y-65809172D01*
X151360609Y-65809185D01*
X151448210Y-65940288D01*
X151448213Y-65940292D01*
X151455740Y-65947819D01*
X151489225Y-66009142D01*
X151484241Y-66078834D01*
X151442369Y-66134767D01*
X151376905Y-66159184D01*
X151368059Y-66159500D01*
X150789766Y-66159500D01*
X150722727Y-66139815D01*
X150720875Y-66138602D01*
X150589185Y-66050609D01*
X150589172Y-66050602D01*
X150443501Y-65990264D01*
X150443489Y-65990261D01*
X150288845Y-65959500D01*
X150288842Y-65959500D01*
X150131158Y-65959500D01*
X150131155Y-65959500D01*
X149976510Y-65990261D01*
X149976498Y-65990264D01*
X149830827Y-66050602D01*
X149830814Y-66050609D01*
X149699711Y-66138210D01*
X149699707Y-66138213D01*
X149588213Y-66249707D01*
X149588210Y-66249711D01*
X149500609Y-66380814D01*
X149500602Y-66380827D01*
X149440264Y-66526498D01*
X149440261Y-66526510D01*
X149409500Y-66681153D01*
X149409500Y-66682098D01*
X149409360Y-66682573D01*
X149408903Y-66687218D01*
X149408022Y-66687131D01*
X149389815Y-66749137D01*
X149337011Y-66794892D01*
X149309692Y-66803715D01*
X149226508Y-66820261D01*
X149226498Y-66820264D01*
X149080827Y-66880602D01*
X149080814Y-66880609D01*
X148949711Y-66968210D01*
X148949707Y-66968213D01*
X148838213Y-67079707D01*
X148838210Y-67079711D01*
X148750609Y-67210814D01*
X148750602Y-67210827D01*
X148690264Y-67356498D01*
X148690261Y-67356510D01*
X148659500Y-67511153D01*
X148659500Y-67668846D01*
X148690261Y-67823489D01*
X148690264Y-67823501D01*
X148750602Y-67969172D01*
X148750609Y-67969185D01*
X148838210Y-68100288D01*
X148838213Y-68100292D01*
X148949707Y-68211786D01*
X148949711Y-68211789D01*
X149080814Y-68299390D01*
X149080827Y-68299397D01*
X149226440Y-68359711D01*
X149226503Y-68359737D01*
X149345912Y-68383489D01*
X149381153Y-68390499D01*
X149381156Y-68390500D01*
X149381158Y-68390500D01*
X149538844Y-68390500D01*
X149538845Y-68390499D01*
X149693497Y-68359737D01*
X149839179Y-68299394D01*
X149970289Y-68211789D01*
X150081789Y-68100289D01*
X150169394Y-67969179D01*
X150169506Y-67968910D01*
X150203130Y-67887732D01*
X150229737Y-67823497D01*
X150260500Y-67668842D01*
X150260500Y-67667901D01*
X150260639Y-67667424D01*
X150261097Y-67662782D01*
X150261977Y-67662868D01*
X150280185Y-67600862D01*
X150332989Y-67555107D01*
X150360301Y-67546285D01*
X150443497Y-67529737D01*
X150589179Y-67469394D01*
X150589185Y-67469390D01*
X150720875Y-67381398D01*
X150787553Y-67360520D01*
X150789766Y-67360500D01*
X152884500Y-67360500D01*
X152951539Y-67380185D01*
X152997294Y-67432989D01*
X153008500Y-67484500D01*
X153008500Y-72662330D01*
X153008499Y-72662348D01*
X153008499Y-72828054D01*
X153008498Y-72828054D01*
X153049423Y-72980785D01*
X153078358Y-73030900D01*
X153078359Y-73030904D01*
X153078360Y-73030904D01*
X153128480Y-73117716D01*
X153149480Y-73138716D01*
X153261284Y-73250520D01*
X153261286Y-73250521D01*
X153261290Y-73250524D01*
X153347922Y-73300540D01*
X153398216Y-73329577D01*
X153510019Y-73359534D01*
X153550942Y-73370500D01*
X153550943Y-73370500D01*
X170863331Y-73370500D01*
X170863347Y-73370501D01*
X170870943Y-73370501D01*
X171029054Y-73370501D01*
X171029057Y-73370501D01*
X171181785Y-73329577D01*
X171232147Y-73300500D01*
X171318716Y-73250520D01*
X171318905Y-73250330D01*
X171326132Y-73246152D01*
X171352479Y-73239741D01*
X171377765Y-73229938D01*
X171385928Y-73231603D01*
X171394021Y-73229635D01*
X171419650Y-73238485D01*
X171446224Y-73243909D01*
X171452189Y-73249723D01*
X171460063Y-73252442D01*
X171476839Y-73273745D01*
X171496262Y-73292674D01*
X171498524Y-73301282D01*
X171503291Y-73307335D01*
X171505123Y-73326390D01*
X171512204Y-73353331D01*
X171517803Y-77514017D01*
X171517033Y-77527982D01*
X171516727Y-77530706D01*
X171517887Y-77591015D01*
X171517909Y-77592137D01*
X171517992Y-77653532D01*
X171519174Y-77657921D01*
X171519262Y-77662471D01*
X171535991Y-77720426D01*
X171536301Y-77721500D01*
X171552271Y-77780780D01*
X171554549Y-77784715D01*
X171555810Y-77789080D01*
X171555811Y-77789082D01*
X171555812Y-77789084D01*
X171576484Y-77823351D01*
X171594307Y-77887952D01*
X171582076Y-80643967D01*
X171562094Y-80710919D01*
X171514373Y-80753901D01*
X171428388Y-80797713D01*
X171262786Y-80918028D01*
X171118028Y-81062786D01*
X170997715Y-81228386D01*
X170904781Y-81410778D01*
X170841522Y-81605467D01*
X170829400Y-81682001D01*
X170799470Y-81745135D01*
X170740158Y-81782065D01*
X170706728Y-81786601D01*
X168378181Y-81782860D01*
X168370879Y-81780703D01*
X168363371Y-81781948D01*
X168337841Y-81770944D01*
X168311173Y-81763068D01*
X168304589Y-81756613D01*
X168299207Y-81754294D01*
X168284761Y-81737176D01*
X168275527Y-81728123D01*
X168273135Y-81724571D01*
X168260500Y-81702686D01*
X168254061Y-81696247D01*
X168247368Y-81686308D01*
X168247358Y-81686278D01*
X168247106Y-81685976D01*
X168244788Y-81683847D01*
X168206392Y-81648578D01*
X168167314Y-81609500D01*
X168157987Y-81604115D01*
X168150053Y-81596827D01*
X168150049Y-81596825D01*
X168103382Y-81572460D01*
X168103382Y-81572459D01*
X168101038Y-81571235D01*
X168053186Y-81543608D01*
X168042782Y-81540820D01*
X168033232Y-81535834D01*
X168033230Y-81535833D01*
X167981841Y-81524374D01*
X167981841Y-81524375D01*
X167979268Y-81523801D01*
X167925892Y-81509500D01*
X167915123Y-81509500D01*
X167904601Y-81507154D01*
X167852009Y-81509388D01*
X167846749Y-81509500D01*
X166820598Y-81509500D01*
X111635708Y-81414404D01*
X111635708Y-81414403D01*
X111623595Y-81414382D01*
X111606915Y-81411064D01*
X111557943Y-81414270D01*
X111553772Y-81414263D01*
X111553771Y-81414262D01*
X111508839Y-81414186D01*
X111508830Y-81414187D01*
X111504083Y-81415451D01*
X111504082Y-81415450D01*
X111492381Y-81418563D01*
X111475413Y-81419675D01*
X111428936Y-81435447D01*
X111424901Y-81436521D01*
X111424900Y-81436520D01*
X111381485Y-81448074D01*
X111377218Y-81450528D01*
X111370309Y-81454500D01*
X111366730Y-81456559D01*
X111350620Y-81462027D01*
X111309802Y-81489296D01*
X111306192Y-81491372D01*
X111306190Y-81491372D01*
X111267241Y-81513770D01*
X111263761Y-81517239D01*
X111245127Y-81532503D01*
X111241043Y-81535231D01*
X111241039Y-81535234D01*
X111211410Y-81569015D01*
X111205721Y-81575079D01*
X111173891Y-81606799D01*
X111171424Y-81611056D01*
X111161809Y-81625271D01*
X111159658Y-81628019D01*
X111154142Y-81634310D01*
X111153128Y-81636365D01*
X111147797Y-81643179D01*
X111123015Y-81660917D01*
X111099622Y-81680466D01*
X111094109Y-81681608D01*
X111090983Y-81683847D01*
X111080872Y-81684353D01*
X111049940Y-81690767D01*
X109063975Y-81687576D01*
X108996967Y-81667784D01*
X108951297Y-81614906D01*
X108941465Y-81545732D01*
X108941701Y-81544178D01*
X108943023Y-81535833D01*
X108970500Y-81362352D01*
X108970500Y-81157648D01*
X108938477Y-80955466D01*
X108875220Y-80760781D01*
X108875218Y-80760778D01*
X108875218Y-80760776D01*
X108815700Y-80643967D01*
X108782287Y-80578390D01*
X108716384Y-80487681D01*
X108661971Y-80412786D01*
X108517219Y-80268034D01*
X108365287Y-80157650D01*
X108322622Y-80102321D01*
X108314181Y-80058621D01*
X108290060Y-77724044D01*
X108291053Y-77720529D01*
X108290188Y-77716977D01*
X108300480Y-77687150D01*
X108309051Y-77656807D01*
X108312136Y-77653374D01*
X108312980Y-77650930D01*
X108321589Y-77642857D01*
X108337313Y-77625364D01*
X108344123Y-77619998D01*
X108345400Y-77619424D01*
X108360673Y-77606958D01*
X108361483Y-77606321D01*
X108362073Y-77606084D01*
X108375184Y-77596942D01*
X108391199Y-77587487D01*
X108391199Y-77587486D01*
X108391204Y-77587484D01*
X108413127Y-77565128D01*
X108423234Y-77555902D01*
X108447500Y-77536101D01*
X108463874Y-77513382D01*
X108483477Y-77493394D01*
X108502236Y-77460157D01*
X108524555Y-77429192D01*
X108534490Y-77403011D01*
X108548253Y-77378629D01*
X108557771Y-77341669D01*
X108571315Y-77305982D01*
X108574136Y-77278123D01*
X108581119Y-77251008D01*
X108580746Y-77212840D01*
X108584592Y-77174869D01*
X108581611Y-77156498D01*
X108580300Y-77141153D01*
X113289500Y-77141153D01*
X113289500Y-77298846D01*
X113320261Y-77453489D01*
X113320264Y-77453501D01*
X113380602Y-77599172D01*
X113380609Y-77599185D01*
X113468210Y-77730288D01*
X113468213Y-77730292D01*
X113579707Y-77841786D01*
X113579711Y-77841789D01*
X113710814Y-77929390D01*
X113710827Y-77929397D01*
X113826105Y-77977146D01*
X113856503Y-77989737D01*
X114011153Y-78020499D01*
X114011156Y-78020500D01*
X114011158Y-78020500D01*
X114168844Y-78020500D01*
X114168845Y-78020499D01*
X114323497Y-77989737D01*
X114469179Y-77929394D01*
X114509975Y-77902135D01*
X122289500Y-77902135D01*
X122289500Y-79697870D01*
X122289501Y-79697876D01*
X122295908Y-79757483D01*
X122346202Y-79892328D01*
X122346206Y-79892335D01*
X122432452Y-80007544D01*
X122432455Y-80007547D01*
X122547664Y-80093793D01*
X122547671Y-80093797D01*
X122682517Y-80144091D01*
X122682516Y-80144091D01*
X122689444Y-80144835D01*
X122742127Y-80150500D01*
X124537872Y-80150499D01*
X124597483Y-80144091D01*
X124732331Y-80093796D01*
X124847546Y-80007546D01*
X124933796Y-79892331D01*
X124982810Y-79760916D01*
X125024681Y-79704984D01*
X125090145Y-79680566D01*
X125158418Y-79695417D01*
X125186673Y-79716569D01*
X125300213Y-79830109D01*
X125472179Y-79955048D01*
X125472181Y-79955049D01*
X125472184Y-79955051D01*
X125661588Y-80051557D01*
X125863757Y-80117246D01*
X126073713Y-80150500D01*
X126073714Y-80150500D01*
X126286286Y-80150500D01*
X126286287Y-80150500D01*
X126496243Y-80117246D01*
X126698412Y-80051557D01*
X126887816Y-79955051D01*
X126974138Y-79892335D01*
X127059786Y-79830109D01*
X127059788Y-79830106D01*
X127059792Y-79830104D01*
X127210104Y-79679792D01*
X127210106Y-79679788D01*
X127210109Y-79679786D01*
X127335048Y-79507820D01*
X127335047Y-79507820D01*
X127335051Y-79507816D01*
X127339514Y-79499054D01*
X127387488Y-79448259D01*
X127455308Y-79431463D01*
X127521444Y-79453999D01*
X127560486Y-79499056D01*
X127564951Y-79507820D01*
X127689890Y-79679786D01*
X127840213Y-79830109D01*
X128012179Y-79955048D01*
X128012181Y-79955049D01*
X128012184Y-79955051D01*
X128201588Y-80051557D01*
X128403757Y-80117246D01*
X128613713Y-80150500D01*
X128613714Y-80150500D01*
X128826286Y-80150500D01*
X128826287Y-80150500D01*
X129036243Y-80117246D01*
X129238412Y-80051557D01*
X129427816Y-79955051D01*
X129514138Y-79892335D01*
X129599786Y-79830109D01*
X129599788Y-79830106D01*
X129599792Y-79830104D01*
X129750104Y-79679792D01*
X129750106Y-79679788D01*
X129750109Y-79679786D01*
X129875048Y-79507820D01*
X129875047Y-79507820D01*
X129875051Y-79507816D01*
X129879514Y-79499054D01*
X129927488Y-79448259D01*
X129995308Y-79431463D01*
X130061444Y-79453999D01*
X130100486Y-79499056D01*
X130104951Y-79507820D01*
X130229890Y-79679786D01*
X130380213Y-79830109D01*
X130552179Y-79955048D01*
X130552181Y-79955049D01*
X130552184Y-79955051D01*
X130741588Y-80051557D01*
X130943757Y-80117246D01*
X131153713Y-80150500D01*
X131153714Y-80150500D01*
X131366286Y-80150500D01*
X131366287Y-80150500D01*
X131576243Y-80117246D01*
X131778412Y-80051557D01*
X131967816Y-79955051D01*
X132054138Y-79892335D01*
X132139786Y-79830109D01*
X132139788Y-79830106D01*
X132139792Y-79830104D01*
X132290104Y-79679792D01*
X132290106Y-79679788D01*
X132290109Y-79679786D01*
X132415048Y-79507820D01*
X132415047Y-79507820D01*
X132415051Y-79507816D01*
X132419514Y-79499054D01*
X132467488Y-79448259D01*
X132535308Y-79431463D01*
X132601444Y-79453999D01*
X132640486Y-79499056D01*
X132644951Y-79507820D01*
X132769890Y-79679786D01*
X132920213Y-79830109D01*
X133092179Y-79955048D01*
X133092181Y-79955049D01*
X133092184Y-79955051D01*
X133281588Y-80051557D01*
X133483757Y-80117246D01*
X133693713Y-80150500D01*
X133693714Y-80150500D01*
X133906286Y-80150500D01*
X133906287Y-80150500D01*
X134116243Y-80117246D01*
X134318412Y-80051557D01*
X134507816Y-79955051D01*
X134594138Y-79892335D01*
X134679786Y-79830109D01*
X134679788Y-79830106D01*
X134679792Y-79830104D01*
X134830104Y-79679792D01*
X134830106Y-79679788D01*
X134830109Y-79679786D01*
X134955048Y-79507820D01*
X134955047Y-79507820D01*
X134955051Y-79507816D01*
X134959514Y-79499054D01*
X135007488Y-79448259D01*
X135075308Y-79431463D01*
X135141444Y-79453999D01*
X135180486Y-79499056D01*
X135184951Y-79507820D01*
X135309890Y-79679786D01*
X135460213Y-79830109D01*
X135632179Y-79955048D01*
X135632181Y-79955049D01*
X135632184Y-79955051D01*
X135821588Y-80051557D01*
X136023757Y-80117246D01*
X136233713Y-80150500D01*
X136233714Y-80150500D01*
X136446286Y-80150500D01*
X136446287Y-80150500D01*
X136656243Y-80117246D01*
X136858412Y-80051557D01*
X137047816Y-79955051D01*
X137134138Y-79892335D01*
X137219786Y-79830109D01*
X137219788Y-79830106D01*
X137219792Y-79830104D01*
X137370104Y-79679792D01*
X137370106Y-79679788D01*
X137370109Y-79679786D01*
X137495048Y-79507820D01*
X137495047Y-79507820D01*
X137495051Y-79507816D01*
X137499514Y-79499054D01*
X137547488Y-79448259D01*
X137615308Y-79431463D01*
X137681444Y-79453999D01*
X137720486Y-79499056D01*
X137724951Y-79507820D01*
X137849890Y-79679786D01*
X138000213Y-79830109D01*
X138172179Y-79955048D01*
X138172181Y-79955049D01*
X138172184Y-79955051D01*
X138361588Y-80051557D01*
X138563757Y-80117246D01*
X138773713Y-80150500D01*
X138773714Y-80150500D01*
X138986286Y-80150500D01*
X138986287Y-80150500D01*
X139196243Y-80117246D01*
X139398412Y-80051557D01*
X139587816Y-79955051D01*
X139674138Y-79892335D01*
X139759786Y-79830109D01*
X139759788Y-79830106D01*
X139759792Y-79830104D01*
X139910104Y-79679792D01*
X139910106Y-79679788D01*
X139910109Y-79679786D01*
X139995890Y-79561717D01*
X140035051Y-79507816D01*
X140039793Y-79498508D01*
X140087763Y-79447711D01*
X140155583Y-79430911D01*
X140221719Y-79453445D01*
X140260763Y-79498500D01*
X140265373Y-79507547D01*
X140304728Y-79561716D01*
X140937037Y-78929408D01*
X140954075Y-78992993D01*
X141019901Y-79107007D01*
X141112993Y-79200099D01*
X141227007Y-79265925D01*
X141290590Y-79282962D01*
X140658282Y-79915269D01*
X140658282Y-79915270D01*
X140712449Y-79954624D01*
X140901782Y-80051095D01*
X141103870Y-80116757D01*
X141313754Y-80150000D01*
X141526246Y-80150000D01*
X141736127Y-80116757D01*
X141736130Y-80116757D01*
X141938217Y-80051095D01*
X142127554Y-79954622D01*
X142181716Y-79915270D01*
X142181717Y-79915270D01*
X141549408Y-79282962D01*
X141612993Y-79265925D01*
X141727007Y-79200099D01*
X141820099Y-79107007D01*
X141885925Y-78992993D01*
X141902962Y-78929409D01*
X142535270Y-79561717D01*
X142535270Y-79561716D01*
X142574622Y-79507555D01*
X142579232Y-79498507D01*
X142627205Y-79447709D01*
X142695025Y-79430912D01*
X142761161Y-79453447D01*
X142800204Y-79498504D01*
X142804949Y-79507817D01*
X142929890Y-79679786D01*
X143080213Y-79830109D01*
X143252179Y-79955048D01*
X143252181Y-79955049D01*
X143252184Y-79955051D01*
X143441588Y-80051557D01*
X143643757Y-80117246D01*
X143853713Y-80150500D01*
X143853714Y-80150500D01*
X144066286Y-80150500D01*
X144066287Y-80150500D01*
X144276243Y-80117246D01*
X144478412Y-80051557D01*
X144667816Y-79955051D01*
X144754138Y-79892335D01*
X144839786Y-79830109D01*
X144839788Y-79830106D01*
X144839792Y-79830104D01*
X144990104Y-79679792D01*
X144990106Y-79679788D01*
X144990109Y-79679786D01*
X145115048Y-79507820D01*
X145115047Y-79507820D01*
X145115051Y-79507816D01*
X145211557Y-79318412D01*
X145277246Y-79116243D01*
X145301519Y-78962993D01*
X145303697Y-78949240D01*
X145303697Y-78949239D01*
X145310500Y-78906287D01*
X145310500Y-78693713D01*
X145292015Y-78577007D01*
X145277246Y-78483757D01*
X145211557Y-78281588D01*
X145115051Y-78092184D01*
X145115049Y-78092181D01*
X145115048Y-78092179D01*
X145005746Y-77941736D01*
X144990109Y-77920214D01*
X144990105Y-77920209D01*
X144942051Y-77872155D01*
X149250000Y-77872155D01*
X149250000Y-78520000D01*
X150166988Y-78520000D01*
X150134075Y-78577007D01*
X150100000Y-78704174D01*
X150100000Y-78835826D01*
X150134075Y-78962993D01*
X150166988Y-79020000D01*
X149250000Y-79020000D01*
X149250000Y-79667844D01*
X149256401Y-79727372D01*
X149256403Y-79727379D01*
X149306645Y-79862086D01*
X149306649Y-79862093D01*
X149392809Y-79977187D01*
X149392812Y-79977190D01*
X149507906Y-80063350D01*
X149507913Y-80063354D01*
X149642620Y-80113596D01*
X149642627Y-80113598D01*
X149702155Y-80119999D01*
X149702172Y-80120000D01*
X150350000Y-80120000D01*
X150350000Y-79203012D01*
X150407007Y-79235925D01*
X150534174Y-79270000D01*
X150665826Y-79270000D01*
X150792993Y-79235925D01*
X150850000Y-79203012D01*
X150850000Y-80120000D01*
X151497828Y-80120000D01*
X151497844Y-80119999D01*
X151557372Y-80113598D01*
X151557379Y-80113596D01*
X151692086Y-80063354D01*
X151692093Y-80063350D01*
X151807187Y-79977190D01*
X151807190Y-79977187D01*
X151893350Y-79862093D01*
X151893354Y-79862086D01*
X151942422Y-79730529D01*
X151984293Y-79674595D01*
X152049757Y-79650178D01*
X152118030Y-79665030D01*
X152146285Y-79686181D01*
X152260213Y-79800109D01*
X152432179Y-79925048D01*
X152432181Y-79925049D01*
X152432184Y-79925051D01*
X152621588Y-80021557D01*
X152823757Y-80087246D01*
X153033713Y-80120500D01*
X153033714Y-80120500D01*
X153246286Y-80120500D01*
X153246287Y-80120500D01*
X153456243Y-80087246D01*
X153658412Y-80021557D01*
X153847816Y-79925051D01*
X153934471Y-79862093D01*
X154019786Y-79800109D01*
X154019788Y-79800106D01*
X154019792Y-79800104D01*
X154170104Y-79649792D01*
X154170106Y-79649788D01*
X154170109Y-79649786D01*
X154295048Y-79477820D01*
X154295047Y-79477820D01*
X154295051Y-79477816D01*
X154299514Y-79469054D01*
X154347488Y-79418259D01*
X154415308Y-79401463D01*
X154481444Y-79423999D01*
X154520486Y-79469056D01*
X154524951Y-79477820D01*
X154649890Y-79649786D01*
X154800213Y-79800109D01*
X154972179Y-79925048D01*
X154972181Y-79925049D01*
X154972184Y-79925051D01*
X155161588Y-80021557D01*
X155363757Y-80087246D01*
X155573713Y-80120500D01*
X155573714Y-80120500D01*
X155786286Y-80120500D01*
X155786287Y-80120500D01*
X155996243Y-80087246D01*
X156198412Y-80021557D01*
X156387816Y-79925051D01*
X156474471Y-79862093D01*
X156559786Y-79800109D01*
X156559788Y-79800106D01*
X156559792Y-79800104D01*
X156710104Y-79649792D01*
X156710106Y-79649788D01*
X156710109Y-79649786D01*
X156835048Y-79477820D01*
X156835047Y-79477820D01*
X156835051Y-79477816D01*
X156839514Y-79469054D01*
X156887488Y-79418259D01*
X156955308Y-79401463D01*
X157021444Y-79423999D01*
X157060486Y-79469056D01*
X157064951Y-79477820D01*
X157189890Y-79649786D01*
X157340213Y-79800109D01*
X157512179Y-79925048D01*
X157512181Y-79925049D01*
X157512184Y-79925051D01*
X157701588Y-80021557D01*
X157903757Y-80087246D01*
X158113713Y-80120500D01*
X158113714Y-80120500D01*
X158326286Y-80120500D01*
X158326287Y-80120500D01*
X158536243Y-80087246D01*
X158738412Y-80021557D01*
X158927816Y-79925051D01*
X159014471Y-79862093D01*
X159099786Y-79800109D01*
X159099788Y-79800106D01*
X159099792Y-79800104D01*
X159250104Y-79649792D01*
X159250106Y-79649788D01*
X159250109Y-79649786D01*
X159375048Y-79477820D01*
X159375047Y-79477820D01*
X159375051Y-79477816D01*
X159471557Y-79288412D01*
X159537246Y-79086243D01*
X159570500Y-78876287D01*
X159570500Y-78663713D01*
X159537246Y-78453757D01*
X159471557Y-78251588D01*
X159375051Y-78062184D01*
X159375049Y-78062181D01*
X159375048Y-78062179D01*
X159250109Y-77890213D01*
X159099786Y-77739890D01*
X158927820Y-77614951D01*
X158738414Y-77518444D01*
X158738413Y-77518443D01*
X158738412Y-77518443D01*
X158536243Y-77452754D01*
X158536241Y-77452753D01*
X158536240Y-77452753D01*
X158374957Y-77427208D01*
X158326287Y-77419500D01*
X158113713Y-77419500D01*
X158065042Y-77427208D01*
X157903760Y-77452753D01*
X157701585Y-77518444D01*
X157512179Y-77614951D01*
X157340213Y-77739890D01*
X157189890Y-77890213D01*
X157064949Y-78062182D01*
X157060484Y-78070946D01*
X157012509Y-78121742D01*
X156944688Y-78138536D01*
X156878553Y-78115998D01*
X156839516Y-78070946D01*
X156835050Y-78062182D01*
X156710109Y-77890213D01*
X156559786Y-77739890D01*
X156387820Y-77614951D01*
X156198414Y-77518444D01*
X156198413Y-77518443D01*
X156198412Y-77518443D01*
X155996243Y-77452754D01*
X155996241Y-77452753D01*
X155996240Y-77452753D01*
X155834957Y-77427208D01*
X155786287Y-77419500D01*
X155573713Y-77419500D01*
X155525042Y-77427208D01*
X155363760Y-77452753D01*
X155161585Y-77518444D01*
X154972179Y-77614951D01*
X154800213Y-77739890D01*
X154649890Y-77890213D01*
X154524949Y-78062182D01*
X154520484Y-78070946D01*
X154472509Y-78121742D01*
X154404688Y-78138536D01*
X154338553Y-78115998D01*
X154299516Y-78070946D01*
X154295050Y-78062182D01*
X154170109Y-77890213D01*
X154019786Y-77739890D01*
X153847820Y-77614951D01*
X153658414Y-77518444D01*
X153658413Y-77518443D01*
X153658412Y-77518443D01*
X153456243Y-77452754D01*
X153456241Y-77452753D01*
X153456240Y-77452753D01*
X153294957Y-77427208D01*
X153246287Y-77419500D01*
X153033713Y-77419500D01*
X152985042Y-77427208D01*
X152823760Y-77452753D01*
X152621585Y-77518444D01*
X152432179Y-77614951D01*
X152260215Y-77739889D01*
X152146285Y-77853819D01*
X152084962Y-77887303D01*
X152015270Y-77882319D01*
X151959337Y-77840447D01*
X151942422Y-77809470D01*
X151893354Y-77677913D01*
X151893350Y-77677906D01*
X151807190Y-77562812D01*
X151807187Y-77562809D01*
X151692093Y-77476649D01*
X151692086Y-77476645D01*
X151557379Y-77426403D01*
X151557372Y-77426401D01*
X151497844Y-77420000D01*
X150850000Y-77420000D01*
X150850000Y-78336988D01*
X150792993Y-78304075D01*
X150665826Y-78270000D01*
X150534174Y-78270000D01*
X150407007Y-78304075D01*
X150350000Y-78336988D01*
X150350000Y-77420000D01*
X149702155Y-77420000D01*
X149642627Y-77426401D01*
X149642620Y-77426403D01*
X149507913Y-77476645D01*
X149507906Y-77476649D01*
X149392812Y-77562809D01*
X149392809Y-77562812D01*
X149306649Y-77677906D01*
X149306645Y-77677913D01*
X149256403Y-77812620D01*
X149256401Y-77812627D01*
X149250000Y-77872155D01*
X144942051Y-77872155D01*
X144839786Y-77769890D01*
X144667820Y-77644951D01*
X144478414Y-77548444D01*
X144478413Y-77548443D01*
X144478412Y-77548443D01*
X144276243Y-77482754D01*
X144276241Y-77482753D01*
X144276240Y-77482753D01*
X144114957Y-77457208D01*
X144066287Y-77449500D01*
X143881941Y-77449500D01*
X143814902Y-77429815D01*
X143769147Y-77377011D01*
X143759203Y-77307853D01*
X143788228Y-77244297D01*
X143794260Y-77237819D01*
X143901786Y-77130292D01*
X143901789Y-77130289D01*
X143989394Y-76999179D01*
X144049737Y-76853497D01*
X144080500Y-76698842D01*
X144080500Y-76541158D01*
X144080500Y-76541155D01*
X144080499Y-76541153D01*
X144062419Y-76450261D01*
X144049737Y-76386503D01*
X144049735Y-76386498D01*
X143989397Y-76240827D01*
X143989390Y-76240814D01*
X143901789Y-76109711D01*
X143901786Y-76109707D01*
X143790292Y-75998213D01*
X143790288Y-75998210D01*
X143659185Y-75910609D01*
X143659172Y-75910602D01*
X143513501Y-75850264D01*
X143513491Y-75850261D01*
X143358151Y-75819362D01*
X143296241Y-75786977D01*
X143294662Y-75785426D01*
X143213707Y-75704471D01*
X140990388Y-73481153D01*
X142989500Y-73481153D01*
X142989500Y-73638846D01*
X143020261Y-73793489D01*
X143020264Y-73793501D01*
X143080602Y-73939172D01*
X143080609Y-73939185D01*
X143168210Y-74070288D01*
X143168213Y-74070292D01*
X143279707Y-74181786D01*
X143279711Y-74181789D01*
X143410814Y-74269390D01*
X143410827Y-74269397D01*
X143556498Y-74329735D01*
X143556503Y-74329737D01*
X143711153Y-74360499D01*
X143711156Y-74360500D01*
X143711158Y-74360500D01*
X143868844Y-74360500D01*
X143868845Y-74360499D01*
X144023497Y-74329737D01*
X144169179Y-74269394D01*
X144300289Y-74181789D01*
X144411789Y-74070289D01*
X144499394Y-73939179D01*
X144559737Y-73793497D01*
X144590500Y-73638842D01*
X144590500Y-73481158D01*
X144590500Y-73481155D01*
X144590499Y-73481153D01*
X144559737Y-73326503D01*
X144559690Y-73326390D01*
X144499397Y-73180827D01*
X144499390Y-73180814D01*
X144411789Y-73049711D01*
X144411786Y-73049707D01*
X144300292Y-72938213D01*
X144300288Y-72938210D01*
X144169185Y-72850609D01*
X144169172Y-72850602D01*
X144023501Y-72790264D01*
X144023489Y-72790261D01*
X143868845Y-72759500D01*
X143868842Y-72759500D01*
X143711158Y-72759500D01*
X143711155Y-72759500D01*
X143556510Y-72790261D01*
X143556498Y-72790264D01*
X143410827Y-72850602D01*
X143410814Y-72850609D01*
X143279711Y-72938210D01*
X143279707Y-72938213D01*
X143168213Y-73049707D01*
X143168210Y-73049711D01*
X143080609Y-73180814D01*
X143080602Y-73180827D01*
X143020264Y-73326498D01*
X143020261Y-73326510D01*
X142989500Y-73481153D01*
X140990388Y-73481153D01*
X140177589Y-72668354D01*
X140177588Y-72668352D01*
X140058717Y-72549481D01*
X140058716Y-72549480D01*
X139971904Y-72499360D01*
X139971904Y-72499359D01*
X139971900Y-72499358D01*
X139921785Y-72470423D01*
X139769057Y-72429499D01*
X139610943Y-72429499D01*
X139603347Y-72429499D01*
X139603331Y-72429500D01*
X138029766Y-72429500D01*
X137962727Y-72409815D01*
X137960875Y-72408602D01*
X137829185Y-72320609D01*
X137829172Y-72320602D01*
X137683501Y-72260264D01*
X137683489Y-72260261D01*
X137528845Y-72229500D01*
X137528842Y-72229500D01*
X137371158Y-72229500D01*
X137371155Y-72229500D01*
X137216510Y-72260261D01*
X137216498Y-72260264D01*
X137070827Y-72320602D01*
X137070814Y-72320609D01*
X136939711Y-72408210D01*
X136939707Y-72408213D01*
X136828213Y-72519707D01*
X136828210Y-72519711D01*
X136740609Y-72650814D01*
X136740602Y-72650827D01*
X136680264Y-72796498D01*
X136680261Y-72796510D01*
X136649500Y-72951153D01*
X136649500Y-73108846D01*
X136680261Y-73263489D01*
X136680264Y-73263501D01*
X136740602Y-73409172D01*
X136740609Y-73409185D01*
X136828210Y-73540288D01*
X136828213Y-73540292D01*
X136939707Y-73651786D01*
X136939711Y-73651789D01*
X137070814Y-73739390D01*
X137070827Y-73739397D01*
X137201419Y-73793489D01*
X137216503Y-73799737D01*
X137371153Y-73830499D01*
X137371156Y-73830500D01*
X137371158Y-73830500D01*
X137528844Y-73830500D01*
X137528845Y-73830499D01*
X137683497Y-73799737D01*
X137829179Y-73739394D01*
X137829185Y-73739390D01*
X137960875Y-73651398D01*
X138027553Y-73630520D01*
X138029766Y-73630500D01*
X139389903Y-73630500D01*
X139456942Y-73650185D01*
X139477584Y-73666819D01*
X142445425Y-76634660D01*
X142478910Y-76695983D01*
X142479361Y-76698149D01*
X142510261Y-76853491D01*
X142510264Y-76853501D01*
X142570602Y-76999172D01*
X142570609Y-76999185D01*
X142658210Y-77130288D01*
X142658213Y-77130292D01*
X142769707Y-77241786D01*
X142769711Y-77241789D01*
X142900814Y-77329390D01*
X142900827Y-77329397D01*
X143046498Y-77389735D01*
X143046503Y-77389737D01*
X143201158Y-77420500D01*
X143205703Y-77421404D01*
X143267614Y-77453789D01*
X143302188Y-77514504D01*
X143298449Y-77584274D01*
X143257583Y-77640946D01*
X143254397Y-77643339D01*
X143080214Y-77769890D01*
X143080209Y-77769894D01*
X142929890Y-77920213D01*
X142804949Y-78092182D01*
X142800202Y-78101499D01*
X142752227Y-78152293D01*
X142684405Y-78169087D01*
X142618271Y-78146548D01*
X142579234Y-78101495D01*
X142574626Y-78092452D01*
X142535270Y-78038282D01*
X142535269Y-78038282D01*
X141902962Y-78670590D01*
X141885925Y-78607007D01*
X141820099Y-78492993D01*
X141727007Y-78399901D01*
X141612993Y-78334075D01*
X141549409Y-78317037D01*
X142181716Y-77684728D01*
X142127550Y-77645375D01*
X141938217Y-77548904D01*
X141736129Y-77483242D01*
X141526246Y-77450000D01*
X141313754Y-77450000D01*
X141103872Y-77483242D01*
X141103869Y-77483242D01*
X140901782Y-77548904D01*
X140712439Y-77645380D01*
X140658282Y-77684727D01*
X140658282Y-77684728D01*
X141290591Y-78317037D01*
X141227007Y-78334075D01*
X141112993Y-78399901D01*
X141019901Y-78492993D01*
X140954075Y-78607007D01*
X140937037Y-78670591D01*
X140304728Y-78038282D01*
X140304727Y-78038282D01*
X140265380Y-78092440D01*
X140265376Y-78092446D01*
X140260760Y-78101505D01*
X140212781Y-78152297D01*
X140144959Y-78169087D01*
X140078826Y-78146543D01*
X140039794Y-78101493D01*
X140035051Y-78092184D01*
X140035049Y-78092181D01*
X140035048Y-78092179D01*
X139910109Y-77920213D01*
X139759786Y-77769890D01*
X139587820Y-77644951D01*
X139398414Y-77548444D01*
X139398413Y-77548443D01*
X139398412Y-77548443D01*
X139196243Y-77482754D01*
X139196241Y-77482753D01*
X139196240Y-77482753D01*
X139034957Y-77457208D01*
X138986287Y-77449500D01*
X138773713Y-77449500D01*
X138725042Y-77457208D01*
X138563760Y-77482753D01*
X138361585Y-77548444D01*
X138172179Y-77644951D01*
X138000213Y-77769890D01*
X137849890Y-77920213D01*
X137724949Y-78092182D01*
X137720484Y-78100946D01*
X137672509Y-78151742D01*
X137604688Y-78168536D01*
X137538553Y-78145998D01*
X137499516Y-78100946D01*
X137495050Y-78092182D01*
X137370109Y-77920213D01*
X137219786Y-77769890D01*
X137047820Y-77644951D01*
X136858414Y-77548444D01*
X136858413Y-77548443D01*
X136858412Y-77548443D01*
X136656243Y-77482754D01*
X136656241Y-77482753D01*
X136656240Y-77482753D01*
X136494957Y-77457208D01*
X136446287Y-77449500D01*
X136233713Y-77449500D01*
X136185042Y-77457208D01*
X136023760Y-77482753D01*
X135821585Y-77548444D01*
X135632179Y-77644951D01*
X135460213Y-77769890D01*
X135309890Y-77920213D01*
X135184949Y-78092182D01*
X135180484Y-78100946D01*
X135132509Y-78151742D01*
X135064688Y-78168536D01*
X134998553Y-78145998D01*
X134959516Y-78100946D01*
X134955050Y-78092182D01*
X134830109Y-77920213D01*
X134679786Y-77769890D01*
X134507820Y-77644951D01*
X134318414Y-77548444D01*
X134318413Y-77548443D01*
X134318412Y-77548443D01*
X134116243Y-77482754D01*
X134116241Y-77482753D01*
X134116240Y-77482753D01*
X133954957Y-77457208D01*
X133906287Y-77449500D01*
X133693713Y-77449500D01*
X133645042Y-77457208D01*
X133483760Y-77482753D01*
X133281585Y-77548444D01*
X133092179Y-77644951D01*
X132920213Y-77769890D01*
X132769890Y-77920213D01*
X132644949Y-78092182D01*
X132640484Y-78100946D01*
X132592509Y-78151742D01*
X132524688Y-78168536D01*
X132458553Y-78145998D01*
X132419516Y-78100946D01*
X132415050Y-78092182D01*
X132290109Y-77920213D01*
X132139786Y-77769890D01*
X131967820Y-77644951D01*
X131778414Y-77548444D01*
X131778413Y-77548443D01*
X131778412Y-77548443D01*
X131576243Y-77482754D01*
X131576241Y-77482753D01*
X131576240Y-77482753D01*
X131414957Y-77457208D01*
X131366287Y-77449500D01*
X131153713Y-77449500D01*
X131105042Y-77457208D01*
X130943760Y-77482753D01*
X130741585Y-77548444D01*
X130552179Y-77644951D01*
X130380213Y-77769890D01*
X130229890Y-77920213D01*
X130104949Y-78092182D01*
X130100484Y-78100946D01*
X130052509Y-78151742D01*
X129984688Y-78168536D01*
X129918553Y-78145998D01*
X129879516Y-78100946D01*
X129875050Y-78092182D01*
X129750109Y-77920213D01*
X129599786Y-77769890D01*
X129427820Y-77644951D01*
X129238414Y-77548444D01*
X129238413Y-77548443D01*
X129238412Y-77548443D01*
X129036243Y-77482754D01*
X129036241Y-77482753D01*
X129036240Y-77482753D01*
X128874957Y-77457208D01*
X128826287Y-77449500D01*
X128613713Y-77449500D01*
X128565042Y-77457208D01*
X128403760Y-77482753D01*
X128201585Y-77548444D01*
X128012179Y-77644951D01*
X127840213Y-77769890D01*
X127689890Y-77920213D01*
X127564949Y-78092182D01*
X127560484Y-78100946D01*
X127512509Y-78151742D01*
X127444688Y-78168536D01*
X127378553Y-78145998D01*
X127339516Y-78100946D01*
X127335050Y-78092182D01*
X127210109Y-77920213D01*
X127059786Y-77769890D01*
X126887820Y-77644951D01*
X126698414Y-77548444D01*
X126698413Y-77548443D01*
X126698412Y-77548443D01*
X126496243Y-77482754D01*
X126496241Y-77482753D01*
X126496240Y-77482753D01*
X126334957Y-77457208D01*
X126286287Y-77449500D01*
X126073713Y-77449500D01*
X126025042Y-77457208D01*
X125863760Y-77482753D01*
X125661585Y-77548444D01*
X125472179Y-77644951D01*
X125300215Y-77769889D01*
X125186673Y-77883431D01*
X125125350Y-77916915D01*
X125055658Y-77911931D01*
X124999725Y-77870059D01*
X124982810Y-77839082D01*
X124933797Y-77707671D01*
X124933793Y-77707664D01*
X124847547Y-77592455D01*
X124847544Y-77592452D01*
X124732335Y-77506206D01*
X124732328Y-77506202D01*
X124597482Y-77455908D01*
X124597483Y-77455908D01*
X124537883Y-77449501D01*
X124537881Y-77449500D01*
X124537873Y-77449500D01*
X124537864Y-77449500D01*
X122742129Y-77449500D01*
X122742123Y-77449501D01*
X122682516Y-77455908D01*
X122547671Y-77506202D01*
X122547664Y-77506206D01*
X122432455Y-77592452D01*
X122432452Y-77592455D01*
X122346206Y-77707664D01*
X122346202Y-77707671D01*
X122295908Y-77842517D01*
X122289501Y-77902116D01*
X122289500Y-77902135D01*
X114509975Y-77902135D01*
X114600289Y-77841789D01*
X114602996Y-77839082D01*
X114630954Y-77811125D01*
X114711786Y-77730292D01*
X114711789Y-77730289D01*
X114799394Y-77599179D01*
X114859737Y-77453497D01*
X114890500Y-77298842D01*
X114890500Y-77141158D01*
X114890500Y-77141155D01*
X114890499Y-77141153D01*
X114883006Y-77103484D01*
X114859737Y-76986503D01*
X114817353Y-76884177D01*
X114799397Y-76840827D01*
X114799390Y-76840814D01*
X114711789Y-76709711D01*
X114711786Y-76709707D01*
X114600292Y-76598213D01*
X114600288Y-76598210D01*
X114469185Y-76510609D01*
X114469172Y-76510602D01*
X114323501Y-76450264D01*
X114323489Y-76450261D01*
X114168845Y-76419500D01*
X114168842Y-76419500D01*
X114011158Y-76419500D01*
X114011155Y-76419500D01*
X113856510Y-76450261D01*
X113856498Y-76450264D01*
X113710827Y-76510602D01*
X113710814Y-76510609D01*
X113579711Y-76598210D01*
X113579707Y-76598213D01*
X113468213Y-76709707D01*
X113468210Y-76709711D01*
X113380609Y-76840814D01*
X113380602Y-76840827D01*
X113320264Y-76986498D01*
X113320261Y-76986510D01*
X113289500Y-77141153D01*
X108580300Y-77141153D01*
X108580015Y-77137820D01*
X108580000Y-77136253D01*
X108567460Y-75850261D01*
X108497653Y-68691153D01*
X115679500Y-68691153D01*
X115679500Y-68848846D01*
X115710261Y-69003489D01*
X115710264Y-69003501D01*
X115770602Y-69149172D01*
X115770609Y-69149185D01*
X115858210Y-69280288D01*
X115858213Y-69280292D01*
X115969707Y-69391786D01*
X115969711Y-69391789D01*
X116100814Y-69479390D01*
X116100827Y-69479397D01*
X116246498Y-69539735D01*
X116246503Y-69539737D01*
X116358919Y-69562098D01*
X116401153Y-69570499D01*
X116401156Y-69570500D01*
X116401158Y-69570500D01*
X116558844Y-69570500D01*
X116558845Y-69570499D01*
X116713497Y-69539737D01*
X116859179Y-69479394D01*
X116990289Y-69391789D01*
X117101789Y-69280289D01*
X117189394Y-69149179D01*
X117190503Y-69146503D01*
X117214608Y-69088307D01*
X117249737Y-69003497D01*
X117276350Y-68869707D01*
X117280638Y-68848150D01*
X117313023Y-68786239D01*
X117314517Y-68784717D01*
X118028082Y-68071153D01*
X123369500Y-68071153D01*
X123369500Y-68228846D01*
X123400261Y-68383489D01*
X123400264Y-68383501D01*
X123460602Y-68529172D01*
X123460609Y-68529185D01*
X123548210Y-68660288D01*
X123548213Y-68660292D01*
X123659707Y-68771786D01*
X123659711Y-68771789D01*
X123790814Y-68859390D01*
X123790827Y-68859397D01*
X123936498Y-68919735D01*
X123936503Y-68919737D01*
X123936507Y-68919737D01*
X123942335Y-68921506D01*
X123941786Y-68923313D01*
X123995908Y-68951623D01*
X124030482Y-69012339D01*
X124026743Y-69082108D01*
X124024368Y-69088307D01*
X124000263Y-69146503D01*
X124000261Y-69146510D01*
X123969500Y-69301153D01*
X123969500Y-69458846D01*
X124000261Y-69613489D01*
X124000264Y-69613501D01*
X124060602Y-69759172D01*
X124060609Y-69759185D01*
X124148210Y-69890288D01*
X124148213Y-69890292D01*
X124259707Y-70001786D01*
X124259711Y-70001789D01*
X124390814Y-70089390D01*
X124390827Y-70089397D01*
X124536498Y-70149735D01*
X124536503Y-70149737D01*
X124691148Y-70180498D01*
X124691153Y-70180499D01*
X124691156Y-70180500D01*
X124691158Y-70180500D01*
X124848844Y-70180500D01*
X124848845Y-70180499D01*
X125003497Y-70149737D01*
X125116166Y-70103067D01*
X125149172Y-70089397D01*
X125149172Y-70089396D01*
X125149179Y-70089394D01*
X125280289Y-70001789D01*
X125391789Y-69890289D01*
X125479394Y-69759179D01*
X125539737Y-69613497D01*
X125570500Y-69458842D01*
X125570500Y-69301158D01*
X125570500Y-69301155D01*
X125570499Y-69301153D01*
X125560159Y-69249172D01*
X125539737Y-69146503D01*
X125521925Y-69103501D01*
X125479397Y-69000827D01*
X125479390Y-69000814D01*
X125391789Y-68869711D01*
X125391786Y-68869707D01*
X125313232Y-68791153D01*
X143919500Y-68791153D01*
X143919500Y-68948846D01*
X143950261Y-69103489D01*
X143950264Y-69103501D01*
X144010602Y-69249172D01*
X144010609Y-69249185D01*
X144098210Y-69380288D01*
X144098213Y-69380292D01*
X144209707Y-69491786D01*
X144209711Y-69491789D01*
X144340814Y-69579390D01*
X144340827Y-69579397D01*
X144423163Y-69613501D01*
X144486503Y-69639737D01*
X144636131Y-69669500D01*
X144641153Y-69670499D01*
X144641156Y-69670500D01*
X144641158Y-69670500D01*
X144798844Y-69670500D01*
X144798845Y-69670499D01*
X144953497Y-69639737D01*
X145099179Y-69579394D01*
X145230289Y-69491789D01*
X145341789Y-69380289D01*
X145429394Y-69249179D01*
X145489737Y-69103497D01*
X145520500Y-68948842D01*
X145520500Y-68791158D01*
X145520500Y-68791155D01*
X145520499Y-68791153D01*
X145513946Y-68758210D01*
X145489737Y-68636503D01*
X145478868Y-68610263D01*
X145429397Y-68490827D01*
X145429390Y-68490814D01*
X145341789Y-68359711D01*
X145341786Y-68359707D01*
X145230292Y-68248213D01*
X145230288Y-68248210D01*
X145099185Y-68160609D01*
X145099172Y-68160602D01*
X144953501Y-68100264D01*
X144953489Y-68100261D01*
X144798845Y-68069500D01*
X144798842Y-68069500D01*
X144641158Y-68069500D01*
X144641155Y-68069500D01*
X144486510Y-68100261D01*
X144486498Y-68100264D01*
X144340827Y-68160602D01*
X144340814Y-68160609D01*
X144209711Y-68248210D01*
X144209707Y-68248213D01*
X144098213Y-68359707D01*
X144098210Y-68359711D01*
X144010609Y-68490814D01*
X144010602Y-68490827D01*
X143950264Y-68636498D01*
X143950261Y-68636510D01*
X143919500Y-68791153D01*
X125313232Y-68791153D01*
X125280292Y-68758213D01*
X125280288Y-68758210D01*
X125149185Y-68670609D01*
X125149172Y-68670602D01*
X125003501Y-68610264D01*
X124997665Y-68608494D01*
X124998211Y-68606691D01*
X124944072Y-68578357D01*
X124909510Y-68517634D01*
X124913265Y-68447865D01*
X124915621Y-68441717D01*
X124939737Y-68383497D01*
X124970500Y-68228842D01*
X124970500Y-68071158D01*
X124970500Y-68071155D01*
X124970499Y-68071153D01*
X124965936Y-68048213D01*
X124939737Y-67916503D01*
X124927820Y-67887732D01*
X124879397Y-67770827D01*
X124879390Y-67770814D01*
X124791789Y-67639711D01*
X124791786Y-67639707D01*
X124680292Y-67528213D01*
X124680288Y-67528210D01*
X124549185Y-67440609D01*
X124549172Y-67440602D01*
X124403501Y-67380264D01*
X124403489Y-67380261D01*
X124248845Y-67349500D01*
X124248842Y-67349500D01*
X124091158Y-67349500D01*
X124091155Y-67349500D01*
X123936510Y-67380261D01*
X123936498Y-67380264D01*
X123790827Y-67440602D01*
X123790814Y-67440609D01*
X123659711Y-67528210D01*
X123659707Y-67528213D01*
X123548213Y-67639707D01*
X123548210Y-67639711D01*
X123460609Y-67770814D01*
X123460602Y-67770827D01*
X123400264Y-67916498D01*
X123400261Y-67916510D01*
X123369500Y-68071153D01*
X118028082Y-68071153D01*
X119951520Y-66147716D01*
X120030577Y-66010784D01*
X120071501Y-65858057D01*
X120071501Y-65699942D01*
X120071501Y-65692347D01*
X120071500Y-65692329D01*
X120071500Y-64864780D01*
X138980156Y-64864780D01*
X138980156Y-65022473D01*
X139010917Y-65177116D01*
X139010920Y-65177128D01*
X139071258Y-65322799D01*
X139071265Y-65322812D01*
X139158866Y-65453915D01*
X139158869Y-65453919D01*
X139270363Y-65565413D01*
X139270367Y-65565416D01*
X139401470Y-65653017D01*
X139401483Y-65653024D01*
X139514755Y-65699942D01*
X139547159Y-65713364D01*
X139701809Y-65744126D01*
X139701812Y-65744127D01*
X139701814Y-65744127D01*
X139859500Y-65744127D01*
X139859501Y-65744126D01*
X140014153Y-65713364D01*
X140150709Y-65656800D01*
X140220176Y-65649332D01*
X140245609Y-65656799D01*
X140347029Y-65698809D01*
X140501679Y-65729571D01*
X140501682Y-65729572D01*
X140501684Y-65729572D01*
X140659370Y-65729572D01*
X140659371Y-65729571D01*
X140814023Y-65698809D01*
X140884210Y-65669737D01*
X140965334Y-65636135D01*
X140966168Y-65638148D01*
X141024937Y-65625891D01*
X141062476Y-65634932D01*
X141146503Y-65669737D01*
X141292647Y-65698807D01*
X141301153Y-65700499D01*
X141301156Y-65700500D01*
X141301158Y-65700500D01*
X141458844Y-65700500D01*
X141458845Y-65700499D01*
X141613497Y-65669737D01*
X141759179Y-65609394D01*
X141880256Y-65528492D01*
X141946932Y-65507615D01*
X142014312Y-65526099D01*
X142061003Y-65578078D01*
X142070763Y-65607402D01*
X142087730Y-65692695D01*
X142087732Y-65692704D01*
X142148070Y-65838375D01*
X142148077Y-65838388D01*
X142235678Y-65969491D01*
X142235681Y-65969495D01*
X142347175Y-66080989D01*
X142347179Y-66080992D01*
X142478282Y-66168593D01*
X142478295Y-66168600D01*
X142555124Y-66200423D01*
X142623971Y-66228940D01*
X142778621Y-66259702D01*
X142778624Y-66259703D01*
X142778626Y-66259703D01*
X142936312Y-66259703D01*
X142936313Y-66259702D01*
X143090965Y-66228940D01*
X143236647Y-66168597D01*
X143367757Y-66080992D01*
X143479257Y-65969492D01*
X143566862Y-65838382D01*
X143620594Y-65708660D01*
X143664432Y-65654260D01*
X143730726Y-65632194D01*
X143782604Y-65641553D01*
X143826503Y-65659737D01*
X143959737Y-65686239D01*
X143981153Y-65690499D01*
X143981156Y-65690500D01*
X143981158Y-65690500D01*
X144138844Y-65690500D01*
X144138845Y-65690499D01*
X144293497Y-65659737D01*
X144413562Y-65610005D01*
X144439172Y-65599397D01*
X144439172Y-65599396D01*
X144439179Y-65599394D01*
X144570289Y-65511789D01*
X144681789Y-65400289D01*
X144769394Y-65269179D01*
X144829737Y-65123497D01*
X144860500Y-64968842D01*
X144860500Y-64811158D01*
X144860500Y-64811155D01*
X144860499Y-64811153D01*
X144844353Y-64729981D01*
X144829737Y-64656503D01*
X144826433Y-64648527D01*
X144769397Y-64510827D01*
X144769390Y-64510814D01*
X144681789Y-64379711D01*
X144681786Y-64379707D01*
X144570292Y-64268213D01*
X144570288Y-64268210D01*
X144439185Y-64180609D01*
X144439172Y-64180602D01*
X144293501Y-64120264D01*
X144293489Y-64120261D01*
X144138845Y-64089500D01*
X144138842Y-64089500D01*
X143981158Y-64089500D01*
X143981155Y-64089500D01*
X143826510Y-64120261D01*
X143826498Y-64120264D01*
X143680827Y-64180602D01*
X143680816Y-64180608D01*
X143650858Y-64200626D01*
X143584181Y-64221503D01*
X143516801Y-64203018D01*
X143470111Y-64151039D01*
X143457968Y-64097523D01*
X143457968Y-63598585D01*
X143457969Y-63598572D01*
X143457969Y-63430470D01*
X143457969Y-63430468D01*
X143420244Y-63289680D01*
X149259499Y-63289680D01*
X149259499Y-63447373D01*
X149290260Y-63602016D01*
X149290263Y-63602028D01*
X149350601Y-63747699D01*
X149350608Y-63747712D01*
X149438209Y-63878815D01*
X149438212Y-63878819D01*
X149549706Y-63990313D01*
X149549710Y-63990316D01*
X149680813Y-64077917D01*
X149680826Y-64077924D01*
X149807188Y-64130264D01*
X149826502Y-64138264D01*
X149981152Y-64169026D01*
X149981155Y-64169027D01*
X149981157Y-64169027D01*
X150138843Y-64169027D01*
X150138844Y-64169026D01*
X150293496Y-64138264D01*
X150439178Y-64077921D01*
X150570288Y-63990316D01*
X150681788Y-63878816D01*
X150769393Y-63747706D01*
X150829736Y-63602024D01*
X150860499Y-63447369D01*
X150860499Y-63289685D01*
X150860499Y-63289682D01*
X150860498Y-63289680D01*
X150860302Y-63288691D01*
X150860349Y-63288162D01*
X150859902Y-63283620D01*
X150860763Y-63283535D01*
X150866529Y-63219099D01*
X150909393Y-63163922D01*
X150975282Y-63140678D01*
X150981919Y-63140500D01*
X151108844Y-63140500D01*
X151108845Y-63140499D01*
X151263497Y-63109737D01*
X151409179Y-63049394D01*
X151540289Y-62961789D01*
X151651789Y-62850289D01*
X151739394Y-62719179D01*
X151799737Y-62573497D01*
X151830500Y-62418842D01*
X151830500Y-62261158D01*
X151830500Y-62261155D01*
X151830499Y-62261153D01*
X151815960Y-62188062D01*
X151799737Y-62106503D01*
X151773962Y-62044276D01*
X151739397Y-61960827D01*
X151739390Y-61960814D01*
X151651789Y-61829711D01*
X151651786Y-61829707D01*
X151540292Y-61718213D01*
X151540288Y-61718210D01*
X151409185Y-61630609D01*
X151409172Y-61630602D01*
X151263501Y-61570264D01*
X151263489Y-61570261D01*
X151108845Y-61539500D01*
X151108842Y-61539500D01*
X150951158Y-61539500D01*
X150951155Y-61539500D01*
X150796510Y-61570261D01*
X150796498Y-61570264D01*
X150650827Y-61630602D01*
X150650814Y-61630609D01*
X150519711Y-61718210D01*
X150519707Y-61718213D01*
X150408213Y-61829707D01*
X150408210Y-61829711D01*
X150320609Y-61960814D01*
X150320602Y-61960827D01*
X150260264Y-62106498D01*
X150260261Y-62106510D01*
X150229500Y-62261153D01*
X150229500Y-62418846D01*
X150229697Y-62419836D01*
X150229649Y-62420364D01*
X150230097Y-62424907D01*
X150229235Y-62424991D01*
X150223470Y-62489428D01*
X150180606Y-62544605D01*
X150114717Y-62567849D01*
X150108080Y-62568027D01*
X149981154Y-62568027D01*
X149826509Y-62598788D01*
X149826497Y-62598791D01*
X149680826Y-62659129D01*
X149680813Y-62659136D01*
X149549710Y-62746737D01*
X149549706Y-62746740D01*
X149438212Y-62858234D01*
X149438209Y-62858238D01*
X149350608Y-62989341D01*
X149350601Y-62989354D01*
X149290263Y-63135025D01*
X149290260Y-63135037D01*
X149259499Y-63289680D01*
X143420244Y-63289680D01*
X143417045Y-63277741D01*
X143417041Y-63277734D01*
X143337992Y-63140815D01*
X143337986Y-63140807D01*
X141829041Y-61631863D01*
X141802161Y-61591635D01*
X141795431Y-61575386D01*
X141795426Y-61575379D01*
X141707826Y-61444276D01*
X141707823Y-61444272D01*
X141596329Y-61332778D01*
X141596325Y-61332775D01*
X141465222Y-61245174D01*
X141465209Y-61245167D01*
X141319538Y-61184829D01*
X141319526Y-61184826D01*
X141164882Y-61154065D01*
X141164879Y-61154065D01*
X141007195Y-61154065D01*
X141007192Y-61154065D01*
X140852547Y-61184826D01*
X140852535Y-61184829D01*
X140706864Y-61245167D01*
X140706851Y-61245174D01*
X140575748Y-61332775D01*
X140575744Y-61332778D01*
X140464250Y-61444272D01*
X140464247Y-61444276D01*
X140376646Y-61575379D01*
X140376639Y-61575392D01*
X140316301Y-61721063D01*
X140316298Y-61721075D01*
X140285537Y-61875718D01*
X140285537Y-62033411D01*
X140316298Y-62188054D01*
X140316301Y-62188066D01*
X140376639Y-62333737D01*
X140376646Y-62333750D01*
X140445190Y-62436332D01*
X140466068Y-62503009D01*
X140463705Y-62529414D01*
X140437500Y-62661153D01*
X140437500Y-62818846D01*
X140468261Y-62973489D01*
X140468264Y-62973501D01*
X140528602Y-63119172D01*
X140528609Y-63119185D01*
X140616210Y-63250288D01*
X140616213Y-63250292D01*
X140727707Y-63361786D01*
X140727711Y-63361789D01*
X140858814Y-63449390D01*
X140858827Y-63449397D01*
X141004498Y-63509735D01*
X141004503Y-63509737D01*
X141159153Y-63540499D01*
X141159156Y-63540500D01*
X141159158Y-63540500D01*
X141316844Y-63540500D01*
X141316845Y-63540499D01*
X141471497Y-63509737D01*
X141584166Y-63463067D01*
X141617172Y-63449397D01*
X141617172Y-63449396D01*
X141617179Y-63449394D01*
X141730940Y-63373380D01*
X141797615Y-63352504D01*
X141864995Y-63370988D01*
X141887510Y-63388803D01*
X142220649Y-63721941D01*
X142254134Y-63783264D01*
X142256968Y-63809622D01*
X142256968Y-64362839D01*
X142237283Y-64429878D01*
X142184479Y-64475633D01*
X142115321Y-64485577D01*
X142051765Y-64456552D01*
X142029866Y-64431730D01*
X142001789Y-64389711D01*
X142001786Y-64389707D01*
X141890292Y-64278213D01*
X141890288Y-64278210D01*
X141759185Y-64190609D01*
X141759172Y-64190602D01*
X141613501Y-64130264D01*
X141613489Y-64130261D01*
X141458845Y-64099500D01*
X141458842Y-64099500D01*
X141301158Y-64099500D01*
X141301155Y-64099500D01*
X141146510Y-64130261D01*
X141146498Y-64130264D01*
X140995193Y-64192937D01*
X140994363Y-64190934D01*
X140935524Y-64203174D01*
X140898043Y-64194137D01*
X140814023Y-64159335D01*
X140814015Y-64159333D01*
X140659371Y-64128572D01*
X140659368Y-64128572D01*
X140501684Y-64128572D01*
X140501681Y-64128572D01*
X140347036Y-64159333D01*
X140347024Y-64159336D01*
X140210473Y-64215897D01*
X140141004Y-64223366D01*
X140115569Y-64215897D01*
X140014157Y-64173891D01*
X140014145Y-64173888D01*
X139859501Y-64143127D01*
X139859498Y-64143127D01*
X139701814Y-64143127D01*
X139701811Y-64143127D01*
X139547166Y-64173888D01*
X139547154Y-64173891D01*
X139401483Y-64234229D01*
X139401470Y-64234236D01*
X139270367Y-64321837D01*
X139270363Y-64321840D01*
X139158869Y-64433334D01*
X139158866Y-64433338D01*
X139071265Y-64564441D01*
X139071258Y-64564454D01*
X139010920Y-64710125D01*
X139010917Y-64710137D01*
X138980156Y-64864780D01*
X120071500Y-64864780D01*
X120071500Y-61248075D01*
X120091185Y-61181036D01*
X120092398Y-61179184D01*
X120110858Y-61151557D01*
X120143640Y-61102495D01*
X120203983Y-60956813D01*
X120234746Y-60802158D01*
X120234746Y-60644474D01*
X120234746Y-60644471D01*
X120234745Y-60644469D01*
X120226595Y-60603497D01*
X120203983Y-60489819D01*
X120175302Y-60420577D01*
X120143641Y-60344139D01*
X120143638Y-60344133D01*
X120108238Y-60291153D01*
X123959500Y-60291153D01*
X123959500Y-60448846D01*
X123990261Y-60603489D01*
X123990264Y-60603501D01*
X124050602Y-60749172D01*
X124050609Y-60749185D01*
X124138210Y-60880288D01*
X124138213Y-60880292D01*
X124249707Y-60991786D01*
X124249711Y-60991789D01*
X124380814Y-61079390D01*
X124380827Y-61079397D01*
X124526498Y-61139735D01*
X124526503Y-61139737D01*
X124681153Y-61170499D01*
X124681156Y-61170500D01*
X124681158Y-61170500D01*
X124838844Y-61170500D01*
X124838845Y-61170499D01*
X124993497Y-61139737D01*
X125139179Y-61079394D01*
X125270289Y-60991789D01*
X125381789Y-60880289D01*
X125469394Y-60749179D01*
X125529737Y-60603497D01*
X125560500Y-60448842D01*
X125560500Y-60291158D01*
X125560500Y-60291155D01*
X125544010Y-60208258D01*
X125544010Y-60208257D01*
X125540409Y-60190153D01*
X128149500Y-60190153D01*
X128149500Y-60347846D01*
X128180261Y-60502489D01*
X128180264Y-60502501D01*
X128240602Y-60648172D01*
X128240609Y-60648185D01*
X128328210Y-60779288D01*
X128328213Y-60779292D01*
X128439707Y-60890786D01*
X128439715Y-60890792D01*
X128572579Y-60979569D01*
X128617385Y-61033181D01*
X128626092Y-61102506D01*
X128606795Y-61151557D01*
X128600608Y-61160817D01*
X128600602Y-61160827D01*
X128540264Y-61306498D01*
X128540261Y-61306510D01*
X128509500Y-61461153D01*
X128509500Y-61618846D01*
X128540261Y-61773489D01*
X128540264Y-61773501D01*
X128600602Y-61919172D01*
X128600609Y-61919185D01*
X128688210Y-62050288D01*
X128688213Y-62050292D01*
X128799707Y-62161786D01*
X128799711Y-62161789D01*
X128930814Y-62249390D01*
X128930827Y-62249397D01*
X129076498Y-62309735D01*
X129076503Y-62309737D01*
X129197194Y-62333744D01*
X129231153Y-62340499D01*
X129231156Y-62340500D01*
X129231158Y-62340500D01*
X129388844Y-62340500D01*
X129388845Y-62340499D01*
X129543497Y-62309737D01*
X129689179Y-62249394D01*
X129820289Y-62161789D01*
X129931789Y-62050289D01*
X130019394Y-61919179D01*
X130079737Y-61773497D01*
X130110500Y-61618842D01*
X130110500Y-61461158D01*
X130110500Y-61461155D01*
X130110499Y-61461153D01*
X130098434Y-61400500D01*
X130079737Y-61306503D01*
X130060603Y-61260308D01*
X130019397Y-61160827D01*
X130019390Y-61160814D01*
X129953626Y-61062391D01*
X129932748Y-60995713D01*
X129951233Y-60928333D01*
X130003212Y-60881643D01*
X130056728Y-60869500D01*
X132488846Y-60869500D01*
X132555885Y-60889185D01*
X132576527Y-60905819D01*
X134356238Y-62685530D01*
X134389723Y-62746853D01*
X134384739Y-62816545D01*
X134342867Y-62872478D01*
X134337449Y-62876312D01*
X134289713Y-62908208D01*
X134289707Y-62908213D01*
X134178213Y-63019707D01*
X134178210Y-63019711D01*
X134090609Y-63150814D01*
X134090602Y-63150827D01*
X134030264Y-63296498D01*
X134030261Y-63296510D01*
X133999500Y-63451153D01*
X133999500Y-63608846D01*
X134030261Y-63763489D01*
X134030264Y-63763501D01*
X134090602Y-63909172D01*
X134090609Y-63909185D01*
X134178210Y-64040288D01*
X134178213Y-64040292D01*
X134289707Y-64151786D01*
X134289711Y-64151789D01*
X134420814Y-64239390D01*
X134420827Y-64239397D01*
X134514534Y-64278211D01*
X134566503Y-64299737D01*
X134677622Y-64321840D01*
X134721153Y-64330499D01*
X134721156Y-64330500D01*
X134721158Y-64330500D01*
X134878844Y-64330500D01*
X134878845Y-64330499D01*
X135033497Y-64299737D01*
X135179179Y-64239394D01*
X135310289Y-64151789D01*
X135421789Y-64040289D01*
X135509394Y-63909179D01*
X135509397Y-63909172D01*
X135541109Y-63832613D01*
X135584950Y-63778209D01*
X135651244Y-63756144D01*
X135655670Y-63756065D01*
X136832274Y-63756065D01*
X136832290Y-63756066D01*
X136839886Y-63756066D01*
X136997997Y-63756066D01*
X136998000Y-63756066D01*
X137150728Y-63715142D01*
X137200847Y-63686204D01*
X137287659Y-63636085D01*
X137399463Y-63524281D01*
X137399463Y-63524279D01*
X137409671Y-63514072D01*
X137409672Y-63514069D01*
X140425925Y-60497819D01*
X140487248Y-60464334D01*
X140513606Y-60461500D01*
X145332331Y-60461500D01*
X145332347Y-60461501D01*
X145339943Y-60461501D01*
X145498054Y-60461501D01*
X145498057Y-60461501D01*
X145650785Y-60420577D01*
X145718842Y-60381284D01*
X145787716Y-60341520D01*
X145869648Y-60259587D01*
X145875152Y-60255210D01*
X145901251Y-60244592D01*
X145925984Y-60231088D01*
X145928152Y-60230637D01*
X145928841Y-60230500D01*
X145928842Y-60230500D01*
X146083497Y-60199737D01*
X146229179Y-60139394D01*
X146360289Y-60051789D01*
X146471789Y-59940289D01*
X146559394Y-59809179D01*
X146608146Y-59691478D01*
X146651985Y-59637078D01*
X146718279Y-59615012D01*
X146774764Y-59628094D01*
X146775192Y-59627063D01*
X146926498Y-59689735D01*
X146926503Y-59689737D01*
X147081153Y-59720499D01*
X147081156Y-59720500D01*
X147081158Y-59720500D01*
X147238844Y-59720500D01*
X147238845Y-59720499D01*
X147393497Y-59689737D01*
X147539179Y-59629394D01*
X147670289Y-59541789D01*
X147781789Y-59430289D01*
X147869394Y-59299179D01*
X147929737Y-59153497D01*
X147960500Y-58998842D01*
X147960500Y-58841158D01*
X147960500Y-58841155D01*
X147960499Y-58841153D01*
X147936521Y-58720609D01*
X147929737Y-58686503D01*
X147918145Y-58658517D01*
X147869397Y-58540828D01*
X147869396Y-58540827D01*
X147869394Y-58540821D01*
X147857032Y-58522319D01*
X147836153Y-58455646D01*
X147845570Y-58405981D01*
X147879737Y-58323497D01*
X147910500Y-58168842D01*
X147910500Y-58011158D01*
X147910500Y-58011155D01*
X147910499Y-58011153D01*
X147909016Y-58003699D01*
X147879737Y-57856503D01*
X147835914Y-57750704D01*
X147819397Y-57710827D01*
X147819390Y-57710814D01*
X147731789Y-57579711D01*
X147731786Y-57579707D01*
X147620292Y-57468213D01*
X147620288Y-57468210D01*
X147489185Y-57380609D01*
X147489172Y-57380602D01*
X147343501Y-57320264D01*
X147343489Y-57320261D01*
X147188845Y-57289500D01*
X147188842Y-57289500D01*
X147031158Y-57289500D01*
X147031155Y-57289500D01*
X146876510Y-57320261D01*
X146876498Y-57320264D01*
X146730827Y-57380602D01*
X146730814Y-57380609D01*
X146599711Y-57468210D01*
X146599707Y-57468213D01*
X146488213Y-57579707D01*
X146488210Y-57579711D01*
X146400609Y-57710814D01*
X146400602Y-57710827D01*
X146340264Y-57856498D01*
X146340261Y-57856510D01*
X146309500Y-58011153D01*
X146309500Y-58168846D01*
X146340261Y-58323489D01*
X146340264Y-58323501D01*
X146400602Y-58469171D01*
X146400608Y-58469182D01*
X146412968Y-58487680D01*
X146415339Y-58495255D01*
X146420748Y-58501064D01*
X146425630Y-58528121D01*
X146433845Y-58554358D01*
X146432061Y-58563762D01*
X146433155Y-58569823D01*
X146424427Y-58604021D01*
X146401855Y-58658517D01*
X146358015Y-58712921D01*
X146291721Y-58734987D01*
X146235234Y-58721906D01*
X146234808Y-58722937D01*
X146083501Y-58660264D01*
X146083489Y-58660261D01*
X145928845Y-58629500D01*
X145928842Y-58629500D01*
X145771158Y-58629500D01*
X145771155Y-58629500D01*
X145616510Y-58660261D01*
X145616498Y-58660264D01*
X145470827Y-58720602D01*
X145470814Y-58720609D01*
X145339711Y-58808210D01*
X145339707Y-58808213D01*
X145228213Y-58919707D01*
X145228210Y-58919711D01*
X145140609Y-59050814D01*
X145140604Y-59050823D01*
X145085461Y-59183953D01*
X145041620Y-59238356D01*
X144975326Y-59260421D01*
X144970900Y-59260500D01*
X143528046Y-59260500D01*
X143461007Y-59240815D01*
X143415252Y-59188011D01*
X143406429Y-59160691D01*
X143398107Y-59118853D01*
X143379737Y-59026503D01*
X143336896Y-58923077D01*
X143329428Y-58853608D01*
X143336897Y-58828172D01*
X143338630Y-58823989D01*
X143392639Y-58693599D01*
X143423402Y-58538944D01*
X143423402Y-58381260D01*
X143423402Y-58381257D01*
X143423401Y-58381255D01*
X143411911Y-58323493D01*
X143392639Y-58226605D01*
X143368713Y-58168842D01*
X143332299Y-58080929D01*
X143332292Y-58080916D01*
X143244691Y-57949813D01*
X143244688Y-57949809D01*
X143133194Y-57838315D01*
X143133190Y-57838312D01*
X143002087Y-57750711D01*
X143002074Y-57750704D01*
X142856403Y-57690366D01*
X142856391Y-57690363D01*
X142701748Y-57659602D01*
X142700893Y-57659518D01*
X142700473Y-57659348D01*
X142695770Y-57658413D01*
X142695947Y-57657521D01*
X142636106Y-57633358D01*
X142595746Y-57576324D01*
X142592629Y-57506524D01*
X142625365Y-57448434D01*
X143269625Y-56804174D01*
X143411411Y-56662388D01*
X143472733Y-56628904D01*
X143542425Y-56633888D01*
X143598358Y-56675760D01*
X143622775Y-56741224D01*
X143620708Y-56774261D01*
X143589500Y-56931153D01*
X143589500Y-57088846D01*
X143620261Y-57243489D01*
X143620264Y-57243501D01*
X143680602Y-57389172D01*
X143680609Y-57389185D01*
X143768210Y-57520288D01*
X143768213Y-57520292D01*
X143879707Y-57631786D01*
X143879711Y-57631789D01*
X144010814Y-57719390D01*
X144010827Y-57719397D01*
X144156498Y-57779735D01*
X144156503Y-57779737D01*
X144311153Y-57810499D01*
X144311156Y-57810500D01*
X144311158Y-57810500D01*
X144468844Y-57810500D01*
X144468845Y-57810499D01*
X144623497Y-57779737D01*
X144769179Y-57719394D01*
X144900289Y-57631789D01*
X145011789Y-57520289D01*
X145099394Y-57389179D01*
X145099793Y-57388217D01*
X145127940Y-57320263D01*
X145159737Y-57243497D01*
X145190500Y-57088842D01*
X145190500Y-56931158D01*
X145190500Y-56931155D01*
X145190499Y-56931153D01*
X145178335Y-56870000D01*
X145159737Y-56776503D01*
X145128256Y-56700500D01*
X145099397Y-56630827D01*
X145099390Y-56630814D01*
X145011789Y-56499711D01*
X145011786Y-56499707D01*
X144900292Y-56388213D01*
X144900288Y-56388210D01*
X144769185Y-56300609D01*
X144769172Y-56300602D01*
X144623501Y-56240264D01*
X144623489Y-56240261D01*
X144468845Y-56209500D01*
X144468842Y-56209500D01*
X144311158Y-56209500D01*
X144311153Y-56209500D01*
X144154261Y-56240708D01*
X144084670Y-56234481D01*
X144029492Y-56191618D01*
X144006248Y-56125728D01*
X144022316Y-56057731D01*
X144042382Y-56031417D01*
X144136983Y-55936816D01*
X144198305Y-55903334D01*
X144224662Y-55900500D01*
X146580234Y-55900500D01*
X146647273Y-55920185D01*
X146649125Y-55921398D01*
X146780814Y-56009390D01*
X146780827Y-56009397D01*
X146921134Y-56067513D01*
X146926503Y-56069737D01*
X147081153Y-56100499D01*
X147081156Y-56100500D01*
X147081158Y-56100500D01*
X147238844Y-56100500D01*
X147238845Y-56100499D01*
X147393497Y-56069737D01*
X147398866Y-56067512D01*
X147468334Y-56060039D01*
X147515219Y-56078969D01*
X147523589Y-56084561D01*
X147530816Y-56089391D01*
X147530827Y-56089397D01*
X147676406Y-56149697D01*
X147676503Y-56149737D01*
X147831153Y-56180499D01*
X147831156Y-56180500D01*
X147831158Y-56180500D01*
X147988844Y-56180500D01*
X147988845Y-56180499D01*
X148143497Y-56149737D01*
X148253852Y-56104027D01*
X148323321Y-56096558D01*
X148385800Y-56127833D01*
X148404406Y-56149697D01*
X148438210Y-56200288D01*
X148438213Y-56200292D01*
X148549707Y-56311786D01*
X148549711Y-56311789D01*
X148680814Y-56399390D01*
X148680827Y-56399397D01*
X148815202Y-56455056D01*
X148826503Y-56459737D01*
X148981153Y-56490499D01*
X148981156Y-56490500D01*
X148981158Y-56490500D01*
X149138844Y-56490500D01*
X149138845Y-56490499D01*
X149293497Y-56459737D01*
X149439179Y-56399394D01*
X149570289Y-56311789D01*
X149681789Y-56200289D01*
X149769394Y-56069179D01*
X149829737Y-55923497D01*
X149860500Y-55768842D01*
X149860500Y-55768840D01*
X149860637Y-55768152D01*
X149893021Y-55706241D01*
X149894462Y-55704773D01*
X149990520Y-55608716D01*
X150061756Y-55485331D01*
X150069577Y-55471785D01*
X150110500Y-55319057D01*
X150110500Y-55160943D01*
X150110500Y-53306350D01*
X150130185Y-53239311D01*
X150182989Y-53193556D01*
X150234500Y-53182350D01*
X150316772Y-53182350D01*
X150316773Y-53182349D01*
X150471425Y-53151587D01*
X150617107Y-53091244D01*
X150748217Y-53003639D01*
X150859717Y-52892139D01*
X150947322Y-52761029D01*
X150951511Y-52750917D01*
X151007663Y-52615351D01*
X151007665Y-52615347D01*
X151038428Y-52460692D01*
X151038428Y-52303008D01*
X151038428Y-52303005D01*
X151038427Y-52303003D01*
X151007666Y-52148360D01*
X151007665Y-52148353D01*
X150960713Y-52035000D01*
X150947325Y-52002677D01*
X150947318Y-52002664D01*
X150859717Y-51871561D01*
X150859714Y-51871557D01*
X150748220Y-51760063D01*
X150748212Y-51760057D01*
X150715502Y-51738201D01*
X150715452Y-51738168D01*
X150617113Y-51672459D01*
X150617100Y-51672452D01*
X150541536Y-51641153D01*
X162429500Y-51641153D01*
X162429500Y-51798846D01*
X162460261Y-51953489D01*
X162460264Y-51953501D01*
X162520602Y-52099172D01*
X162520609Y-52099185D01*
X162608210Y-52230288D01*
X162608213Y-52230292D01*
X162719707Y-52341786D01*
X162719711Y-52341789D01*
X162850814Y-52429390D01*
X162850827Y-52429397D01*
X162926386Y-52460694D01*
X162996503Y-52489737D01*
X163151153Y-52520499D01*
X163151156Y-52520500D01*
X163151158Y-52520500D01*
X163308844Y-52520500D01*
X163308845Y-52520499D01*
X163463497Y-52489737D01*
X163609179Y-52429394D01*
X163740289Y-52341789D01*
X163851789Y-52230289D01*
X163939394Y-52099179D01*
X163999737Y-51953497D01*
X164030500Y-51798842D01*
X164030500Y-51641158D01*
X164030500Y-51641155D01*
X164030499Y-51641153D01*
X164024723Y-51612114D01*
X163999737Y-51486503D01*
X163994459Y-51473760D01*
X163939397Y-51340827D01*
X163939390Y-51340814D01*
X163851789Y-51209711D01*
X163851786Y-51209707D01*
X163740292Y-51098213D01*
X163740288Y-51098210D01*
X163609185Y-51010609D01*
X163609176Y-51010604D01*
X163591703Y-51003367D01*
X163591701Y-51003366D01*
X163463501Y-50950264D01*
X163463489Y-50950261D01*
X163308845Y-50919500D01*
X163308842Y-50919500D01*
X163151158Y-50919500D01*
X163151155Y-50919500D01*
X162996510Y-50950261D01*
X162996498Y-50950264D01*
X162850827Y-51010602D01*
X162850814Y-51010609D01*
X162719711Y-51098210D01*
X162719707Y-51098213D01*
X162608213Y-51209707D01*
X162608210Y-51209711D01*
X162520609Y-51340814D01*
X162520602Y-51340827D01*
X162460264Y-51486498D01*
X162460261Y-51486510D01*
X162429500Y-51641153D01*
X150541536Y-51641153D01*
X150471429Y-51612114D01*
X150471417Y-51612111D01*
X150316773Y-51581350D01*
X150316770Y-51581350D01*
X150224609Y-51581350D01*
X150157570Y-51561665D01*
X150136875Y-51543239D01*
X150136097Y-51544018D01*
X150020292Y-51428213D01*
X150020288Y-51428210D01*
X149889185Y-51340609D01*
X149889172Y-51340602D01*
X149743501Y-51280264D01*
X149743489Y-51280261D01*
X149588845Y-51249500D01*
X149588842Y-51249500D01*
X149431158Y-51249500D01*
X149431155Y-51249500D01*
X149276510Y-51280261D01*
X149276498Y-51280264D01*
X149130827Y-51340602D01*
X149130814Y-51340609D01*
X148999711Y-51428210D01*
X148999707Y-51428213D01*
X148888213Y-51539707D01*
X148888210Y-51539711D01*
X148800609Y-51670814D01*
X148800602Y-51670827D01*
X148740264Y-51816498D01*
X148740261Y-51816510D01*
X148709500Y-51971153D01*
X148709500Y-52128846D01*
X148740261Y-52283489D01*
X148740264Y-52283501D01*
X148800602Y-52429172D01*
X148800609Y-52429185D01*
X148888602Y-52560874D01*
X148909480Y-52627551D01*
X148909500Y-52629765D01*
X148909500Y-54380960D01*
X148903261Y-54402205D01*
X148901682Y-54424294D01*
X148893609Y-54435077D01*
X148889815Y-54447999D01*
X148873081Y-54462498D01*
X148859810Y-54480227D01*
X148847189Y-54484934D01*
X148837011Y-54493754D01*
X148815093Y-54496905D01*
X148794346Y-54504644D01*
X148781185Y-54501781D01*
X148767853Y-54503698D01*
X148747709Y-54494498D01*
X148726073Y-54489792D01*
X148708347Y-54476523D01*
X148704297Y-54474673D01*
X148697819Y-54468641D01*
X148566533Y-54337355D01*
X148566531Y-54337352D01*
X148447660Y-54218481D01*
X148447659Y-54218480D01*
X148360847Y-54168360D01*
X148360847Y-54168359D01*
X148360843Y-54168358D01*
X148310728Y-54139423D01*
X148158000Y-54098499D01*
X147999886Y-54098499D01*
X147992290Y-54098499D01*
X147992274Y-54098500D01*
X144037522Y-54098500D01*
X143879407Y-54098500D01*
X143726680Y-54139423D01*
X143726679Y-54139423D01*
X143726677Y-54139424D01*
X143726674Y-54139425D01*
X143676561Y-54168359D01*
X143676560Y-54168360D01*
X143633154Y-54193420D01*
X143589750Y-54218479D01*
X143589747Y-54218481D01*
X143517286Y-54290943D01*
X143477945Y-54330284D01*
X143477943Y-54330286D01*
X141871412Y-55936818D01*
X140294049Y-57514181D01*
X140232726Y-57547666D01*
X140206368Y-57550500D01*
X135288097Y-57550500D01*
X135221058Y-57530815D01*
X135175303Y-57478011D01*
X135165359Y-57408853D01*
X135194384Y-57345297D01*
X135200416Y-57338819D01*
X137662416Y-54876819D01*
X137723739Y-54843334D01*
X137750097Y-54840500D01*
X141460234Y-54840500D01*
X141527273Y-54860185D01*
X141529125Y-54861398D01*
X141660814Y-54949390D01*
X141660827Y-54949397D01*
X141799458Y-55006819D01*
X141806503Y-55009737D01*
X141947665Y-55037816D01*
X141961153Y-55040499D01*
X141961156Y-55040500D01*
X141961158Y-55040500D01*
X142118844Y-55040500D01*
X142118845Y-55040499D01*
X142273497Y-55009737D01*
X142419179Y-54949394D01*
X142550289Y-54861789D01*
X142661789Y-54750289D01*
X142749394Y-54619179D01*
X142750602Y-54616264D01*
X142795706Y-54507371D01*
X142809737Y-54473497D01*
X142840500Y-54318842D01*
X142840500Y-54161158D01*
X142840500Y-54161155D01*
X142840499Y-54161153D01*
X142828036Y-54098499D01*
X142809737Y-54006503D01*
X142807575Y-54001284D01*
X142749397Y-53860827D01*
X142749390Y-53860814D01*
X142661789Y-53729711D01*
X142661786Y-53729707D01*
X142550292Y-53618213D01*
X142550288Y-53618210D01*
X142419185Y-53530609D01*
X142419172Y-53530602D01*
X142273501Y-53470264D01*
X142273489Y-53470261D01*
X142118845Y-53439500D01*
X142118842Y-53439500D01*
X141961158Y-53439500D01*
X141961155Y-53439500D01*
X141806510Y-53470261D01*
X141806498Y-53470264D01*
X141660827Y-53530602D01*
X141660814Y-53530609D01*
X141529125Y-53618602D01*
X141462447Y-53639480D01*
X141460234Y-53639500D01*
X137536669Y-53639500D01*
X137536653Y-53639499D01*
X137529057Y-53639499D01*
X137370943Y-53639499D01*
X137218215Y-53680423D01*
X137218214Y-53680423D01*
X137218212Y-53680424D01*
X137197787Y-53692217D01*
X137197785Y-53692218D01*
X137081290Y-53759475D01*
X137081282Y-53759481D01*
X134330120Y-56510644D01*
X134268797Y-56544129D01*
X134199105Y-56539145D01*
X134143172Y-56497273D01*
X134122665Y-56455059D01*
X134098577Y-56365159D01*
X134067764Y-56311789D01*
X134019524Y-56228233D01*
X134019521Y-56228229D01*
X134019520Y-56228227D01*
X133907716Y-56116423D01*
X133907715Y-56116422D01*
X133903385Y-56112092D01*
X133903374Y-56112082D01*
X132646412Y-54855120D01*
X132646410Y-54855117D01*
X132527539Y-54736246D01*
X132527531Y-54736240D01*
X132430852Y-54680423D01*
X132430850Y-54680422D01*
X132390612Y-54657190D01*
X132390611Y-54657189D01*
X132349745Y-54646239D01*
X132237879Y-54616264D01*
X132079765Y-54616264D01*
X132072169Y-54616264D01*
X132072153Y-54616265D01*
X129899766Y-54616265D01*
X129832727Y-54596580D01*
X129830875Y-54595367D01*
X129699185Y-54507374D01*
X129699172Y-54507367D01*
X129553501Y-54447029D01*
X129553489Y-54447026D01*
X129398845Y-54416265D01*
X129398842Y-54416265D01*
X129241158Y-54416265D01*
X129241155Y-54416265D01*
X129086510Y-54447026D01*
X129086498Y-54447029D01*
X128940827Y-54507367D01*
X128940814Y-54507374D01*
X128809711Y-54594975D01*
X128809707Y-54594978D01*
X128698213Y-54706472D01*
X128698210Y-54706476D01*
X128610609Y-54837579D01*
X128610602Y-54837592D01*
X128550264Y-54983263D01*
X128550261Y-54983275D01*
X128519500Y-55137918D01*
X128519500Y-55295611D01*
X128550261Y-55450254D01*
X128550264Y-55450266D01*
X128610602Y-55595937D01*
X128610609Y-55595950D01*
X128698210Y-55727053D01*
X128698213Y-55727057D01*
X128809707Y-55838551D01*
X128809711Y-55838554D01*
X128940814Y-55926155D01*
X128940827Y-55926162D01*
X129086498Y-55986500D01*
X129086503Y-55986502D01*
X129241153Y-56017264D01*
X129241156Y-56017265D01*
X129241158Y-56017265D01*
X129398844Y-56017265D01*
X129398845Y-56017264D01*
X129553497Y-55986502D01*
X129699179Y-55926159D01*
X129714025Y-55916239D01*
X129830875Y-55838163D01*
X129897553Y-55817285D01*
X129899766Y-55817265D01*
X131858725Y-55817265D01*
X131925764Y-55836950D01*
X131946406Y-55853584D01*
X132902181Y-56809359D01*
X132935666Y-56870682D01*
X132938500Y-56897040D01*
X132938500Y-57712273D01*
X132938499Y-57712291D01*
X132938499Y-57877997D01*
X132938498Y-57877997D01*
X132938499Y-57878000D01*
X132977787Y-58024624D01*
X132979424Y-58030730D01*
X132987912Y-58045431D01*
X132987913Y-58045433D01*
X133058477Y-58167655D01*
X133058479Y-58167658D01*
X133058480Y-58167659D01*
X133170284Y-58279463D01*
X133170285Y-58279464D01*
X133522341Y-58631520D01*
X133659272Y-58710577D01*
X133812000Y-58751501D01*
X133812003Y-58751501D01*
X133977711Y-58751501D01*
X133977727Y-58751500D01*
X139324468Y-58751500D01*
X139391507Y-58771185D01*
X139437262Y-58823989D01*
X139447206Y-58893147D01*
X139418181Y-58956703D01*
X139412149Y-58963181D01*
X136655339Y-61719990D01*
X136594016Y-61753475D01*
X136591850Y-61753926D01*
X136436508Y-61784826D01*
X136436498Y-61784829D01*
X136290827Y-61845167D01*
X136290814Y-61845174D01*
X136159711Y-61932775D01*
X136159707Y-61932778D01*
X136048213Y-62044272D01*
X136048210Y-62044276D01*
X135960609Y-62175379D01*
X135960604Y-62175388D01*
X135909768Y-62298120D01*
X135865927Y-62352523D01*
X135799633Y-62374588D01*
X135731934Y-62357309D01*
X135707526Y-62338348D01*
X133276533Y-59907355D01*
X133276531Y-59907352D01*
X133157660Y-59788481D01*
X133157659Y-59788480D01*
X133070444Y-59738127D01*
X133020728Y-59709423D01*
X132868000Y-59668499D01*
X132709886Y-59668499D01*
X132702290Y-59668499D01*
X132702274Y-59668500D01*
X129529766Y-59668500D01*
X129462727Y-59648815D01*
X129460875Y-59647602D01*
X129329185Y-59559609D01*
X129329172Y-59559602D01*
X129183501Y-59499264D01*
X129183489Y-59499261D01*
X129028845Y-59468500D01*
X129028842Y-59468500D01*
X128871158Y-59468500D01*
X128871155Y-59468500D01*
X128716510Y-59499261D01*
X128716498Y-59499264D01*
X128570827Y-59559602D01*
X128570814Y-59559609D01*
X128439711Y-59647210D01*
X128439707Y-59647213D01*
X128328213Y-59758707D01*
X128328210Y-59758711D01*
X128240609Y-59889814D01*
X128240602Y-59889827D01*
X128180264Y-60035498D01*
X128180261Y-60035510D01*
X128149500Y-60190153D01*
X125540409Y-60190153D01*
X125540148Y-60188842D01*
X125529737Y-60136503D01*
X125529735Y-60136498D01*
X125469397Y-59990827D01*
X125469390Y-59990814D01*
X125381789Y-59859711D01*
X125381786Y-59859707D01*
X125270292Y-59748213D01*
X125270288Y-59748210D01*
X125139185Y-59660609D01*
X125139172Y-59660602D01*
X124993501Y-59600264D01*
X124993489Y-59600261D01*
X124838845Y-59569500D01*
X124838842Y-59569500D01*
X124681158Y-59569500D01*
X124681155Y-59569500D01*
X124526510Y-59600261D01*
X124526498Y-59600264D01*
X124380827Y-59660602D01*
X124380814Y-59660609D01*
X124249711Y-59748210D01*
X124249707Y-59748213D01*
X124138213Y-59859707D01*
X124138210Y-59859711D01*
X124050609Y-59990814D01*
X124050602Y-59990827D01*
X123990264Y-60136498D01*
X123990261Y-60136510D01*
X123959500Y-60291153D01*
X120108238Y-60291153D01*
X120056035Y-60213027D01*
X120056032Y-60213023D01*
X119944538Y-60101529D01*
X119944534Y-60101526D01*
X119813431Y-60013925D01*
X119813418Y-60013918D01*
X119667747Y-59953580D01*
X119667735Y-59953577D01*
X119513091Y-59922816D01*
X119513088Y-59922816D01*
X119355404Y-59922816D01*
X119355401Y-59922816D01*
X119200756Y-59953577D01*
X119200744Y-59953580D01*
X119055073Y-60013918D01*
X119055060Y-60013925D01*
X118923957Y-60101526D01*
X118923953Y-60101529D01*
X118812459Y-60213023D01*
X118812456Y-60213027D01*
X118724855Y-60344130D01*
X118724848Y-60344143D01*
X118664510Y-60489814D01*
X118664507Y-60489826D01*
X118633746Y-60644469D01*
X118633746Y-60802162D01*
X118664507Y-60956805D01*
X118664510Y-60956817D01*
X118724848Y-61102488D01*
X118724855Y-61102501D01*
X118812455Y-61233603D01*
X118812456Y-61233604D01*
X118812457Y-61233605D01*
X118834181Y-61255329D01*
X118867666Y-61316650D01*
X118870500Y-61343010D01*
X118870500Y-65478902D01*
X118850815Y-65545941D01*
X118834181Y-65566583D01*
X116465339Y-67935425D01*
X116404016Y-67968910D01*
X116401850Y-67969361D01*
X116246508Y-68000261D01*
X116246498Y-68000264D01*
X116100827Y-68060602D01*
X116100814Y-68060609D01*
X115969711Y-68148210D01*
X115969707Y-68148213D01*
X115858213Y-68259707D01*
X115858210Y-68259711D01*
X115770609Y-68390814D01*
X115770602Y-68390827D01*
X115710264Y-68536498D01*
X115710261Y-68536510D01*
X115679500Y-68691153D01*
X108497653Y-68691153D01*
X108356535Y-54218713D01*
X110419500Y-54218713D01*
X110419500Y-54431287D01*
X110426186Y-54473501D01*
X110449268Y-54619238D01*
X110452754Y-54641243D01*
X110517618Y-54840874D01*
X110518444Y-54843414D01*
X110614951Y-55032820D01*
X110739890Y-55204786D01*
X110890213Y-55355109D01*
X111062179Y-55480048D01*
X111062181Y-55480049D01*
X111062184Y-55480051D01*
X111251588Y-55576557D01*
X111453757Y-55642246D01*
X111663713Y-55675500D01*
X111663714Y-55675500D01*
X111876286Y-55675500D01*
X111876287Y-55675500D01*
X112086243Y-55642246D01*
X112288412Y-55576557D01*
X112477816Y-55480051D01*
X112518828Y-55450254D01*
X112649786Y-55355109D01*
X112649788Y-55355106D01*
X112649792Y-55355104D01*
X112800104Y-55204792D01*
X112800106Y-55204788D01*
X112800109Y-55204786D01*
X112925048Y-55032820D01*
X112925047Y-55032820D01*
X112925051Y-55032816D01*
X113021557Y-54843412D01*
X113087246Y-54641243D01*
X113120500Y-54431287D01*
X113120500Y-54218713D01*
X113087246Y-54008757D01*
X113021557Y-53806588D01*
X112925051Y-53617184D01*
X112925049Y-53617181D01*
X112925048Y-53617179D01*
X112800109Y-53445213D01*
X112686181Y-53331285D01*
X112652696Y-53269962D01*
X112657680Y-53200270D01*
X112699552Y-53144337D01*
X112730529Y-53127422D01*
X112862086Y-53078354D01*
X112862093Y-53078350D01*
X112977187Y-52992190D01*
X112977190Y-52992187D01*
X113063350Y-52877093D01*
X113063354Y-52877086D01*
X113113596Y-52742379D01*
X113113598Y-52742372D01*
X113119999Y-52682844D01*
X113120000Y-52682827D01*
X113120000Y-52035000D01*
X112203012Y-52035000D01*
X112235925Y-51977993D01*
X112270000Y-51850826D01*
X112270000Y-51719174D01*
X112235925Y-51592007D01*
X112203012Y-51535000D01*
X113120000Y-51535000D01*
X113120000Y-50887172D01*
X113119999Y-50887155D01*
X113113598Y-50827627D01*
X113113597Y-50827623D01*
X113098968Y-50788400D01*
X113098967Y-50788398D01*
X113085076Y-50751153D01*
X116699500Y-50751153D01*
X116699500Y-50908846D01*
X116730261Y-51063489D01*
X116730264Y-51063501D01*
X116790602Y-51209172D01*
X116790609Y-51209185D01*
X116878210Y-51340288D01*
X116878213Y-51340292D01*
X116989707Y-51451786D01*
X116989711Y-51451789D01*
X117120814Y-51539390D01*
X117120827Y-51539397D01*
X117247841Y-51592007D01*
X117266503Y-51599737D01*
X117421153Y-51630499D01*
X117421156Y-51630500D01*
X117421158Y-51630500D01*
X117578844Y-51630500D01*
X117578845Y-51630499D01*
X117733497Y-51599737D01*
X117878414Y-51539711D01*
X117879172Y-51539397D01*
X117879172Y-51539396D01*
X117879179Y-51539394D01*
X118010289Y-51451789D01*
X118121789Y-51340289D01*
X118209394Y-51209179D01*
X118269737Y-51063497D01*
X118300500Y-50908842D01*
X118300500Y-50892135D01*
X164279500Y-50892135D01*
X164279500Y-52687870D01*
X164279501Y-52687876D01*
X164285908Y-52747483D01*
X164336202Y-52882328D01*
X164336206Y-52882335D01*
X164422452Y-52997544D01*
X164422455Y-52997547D01*
X164537664Y-53083793D01*
X164537671Y-53083797D01*
X164669082Y-53132810D01*
X164725016Y-53174681D01*
X164749433Y-53240145D01*
X164734582Y-53308418D01*
X164713431Y-53336673D01*
X164599889Y-53450215D01*
X164474951Y-53622179D01*
X164378444Y-53811585D01*
X164312753Y-54013760D01*
X164289408Y-54161155D01*
X164279500Y-54223713D01*
X164279500Y-54436287D01*
X164287205Y-54484934D01*
X164308476Y-54619238D01*
X164312754Y-54646243D01*
X164376818Y-54843412D01*
X164378444Y-54848414D01*
X164474951Y-55037820D01*
X164599890Y-55209786D01*
X164750213Y-55360109D01*
X164922182Y-55485050D01*
X164930946Y-55489516D01*
X164981742Y-55537491D01*
X164998536Y-55605312D01*
X164975998Y-55671447D01*
X164930946Y-55710484D01*
X164922182Y-55714949D01*
X164750213Y-55839890D01*
X164599890Y-55990213D01*
X164474951Y-56162179D01*
X164378444Y-56351585D01*
X164378443Y-56351587D01*
X164378443Y-56351588D01*
X164372461Y-56370000D01*
X164312753Y-56553760D01*
X164279500Y-56763713D01*
X164279500Y-56976286D01*
X164312735Y-57186127D01*
X164312754Y-57186243D01*
X164375905Y-57380602D01*
X164378444Y-57388414D01*
X164474951Y-57577820D01*
X164599890Y-57749786D01*
X164750213Y-57900109D01*
X164922179Y-58025048D01*
X164922181Y-58025049D01*
X164922184Y-58025051D01*
X165111588Y-58121557D01*
X165313757Y-58187246D01*
X165523713Y-58220500D01*
X165523714Y-58220500D01*
X165736286Y-58220500D01*
X165736287Y-58220500D01*
X165946243Y-58187246D01*
X166148412Y-58121557D01*
X166337816Y-58025051D01*
X166400512Y-57979500D01*
X166509786Y-57900109D01*
X166509788Y-57900106D01*
X166509792Y-57900104D01*
X166660104Y-57749792D01*
X166660106Y-57749788D01*
X166660109Y-57749786D01*
X166727515Y-57657007D01*
X166785051Y-57577816D01*
X166789793Y-57568508D01*
X166837763Y-57517711D01*
X166905583Y-57500911D01*
X166971719Y-57523445D01*
X167010763Y-57568500D01*
X167015373Y-57577547D01*
X167054728Y-57631716D01*
X167687037Y-56999408D01*
X167704075Y-57062993D01*
X167769901Y-57177007D01*
X167862993Y-57270099D01*
X167977007Y-57335925D01*
X168040590Y-57352962D01*
X167408282Y-57985269D01*
X167408282Y-57985270D01*
X167462449Y-58024624D01*
X167651782Y-58121095D01*
X167853870Y-58186757D01*
X168063754Y-58220000D01*
X168276246Y-58220000D01*
X168486127Y-58186757D01*
X168486130Y-58186757D01*
X168688217Y-58121095D01*
X168877554Y-58024622D01*
X168931716Y-57985270D01*
X168931717Y-57985270D01*
X168299408Y-57352962D01*
X168362993Y-57335925D01*
X168477007Y-57270099D01*
X168570099Y-57177007D01*
X168635925Y-57062993D01*
X168652962Y-56999409D01*
X169285270Y-57631717D01*
X169285270Y-57631716D01*
X169324622Y-57577554D01*
X169421095Y-57388217D01*
X169486757Y-57186130D01*
X169486757Y-57186127D01*
X169520000Y-56976246D01*
X169520000Y-56763753D01*
X169486757Y-56553872D01*
X169486757Y-56553869D01*
X169421095Y-56351782D01*
X169324624Y-56162449D01*
X169285270Y-56108282D01*
X169285269Y-56108282D01*
X168652962Y-56740590D01*
X168635925Y-56677007D01*
X168570099Y-56562993D01*
X168477007Y-56469901D01*
X168362993Y-56404075D01*
X168299409Y-56387037D01*
X168931716Y-55754728D01*
X168877547Y-55715373D01*
X168877547Y-55715372D01*
X168868500Y-55710763D01*
X168817706Y-55662788D01*
X168800912Y-55594966D01*
X168823451Y-55528832D01*
X168868508Y-55489793D01*
X168877816Y-55485051D01*
X168957007Y-55427515D01*
X169049786Y-55360109D01*
X169049788Y-55360106D01*
X169049792Y-55360104D01*
X169200104Y-55209792D01*
X169200106Y-55209788D01*
X169200109Y-55209786D01*
X169325048Y-55037820D01*
X169325047Y-55037820D01*
X169325051Y-55037816D01*
X169421557Y-54848412D01*
X169487246Y-54646243D01*
X169520500Y-54436287D01*
X169520500Y-54223713D01*
X169487246Y-54013757D01*
X169421557Y-53811588D01*
X169325051Y-53622184D01*
X169325049Y-53622181D01*
X169325048Y-53622179D01*
X169200109Y-53450213D01*
X169049786Y-53299890D01*
X168877820Y-53174951D01*
X168877115Y-53174591D01*
X168869054Y-53170485D01*
X168818259Y-53122512D01*
X168801463Y-53054692D01*
X168823999Y-52988556D01*
X168869054Y-52949515D01*
X168877816Y-52945051D01*
X168964138Y-52882335D01*
X169049786Y-52820109D01*
X169049788Y-52820106D01*
X169049792Y-52820104D01*
X169200104Y-52669792D01*
X169200106Y-52669788D01*
X169200109Y-52669786D01*
X169325048Y-52497820D01*
X169325047Y-52497820D01*
X169325051Y-52497816D01*
X169421557Y-52308412D01*
X169487246Y-52106243D01*
X169520500Y-51896287D01*
X169520500Y-51683713D01*
X169487246Y-51473757D01*
X169421557Y-51271588D01*
X169325051Y-51082184D01*
X169325049Y-51082181D01*
X169325048Y-51082179D01*
X169200109Y-50910213D01*
X169049786Y-50759890D01*
X168877820Y-50634951D01*
X168688414Y-50538444D01*
X168688413Y-50538443D01*
X168688412Y-50538443D01*
X168486243Y-50472754D01*
X168486241Y-50472753D01*
X168486240Y-50472753D01*
X168324957Y-50447208D01*
X168276287Y-50439500D01*
X168063713Y-50439500D01*
X168015042Y-50447208D01*
X167853760Y-50472753D01*
X167651585Y-50538444D01*
X167462179Y-50634951D01*
X167290215Y-50759889D01*
X167176673Y-50873431D01*
X167115350Y-50906915D01*
X167045658Y-50901931D01*
X166989725Y-50860059D01*
X166972810Y-50829082D01*
X166923797Y-50697671D01*
X166923793Y-50697664D01*
X166837547Y-50582455D01*
X166837544Y-50582452D01*
X166722335Y-50496206D01*
X166722328Y-50496202D01*
X166587482Y-50445908D01*
X166587483Y-50445908D01*
X166527883Y-50439501D01*
X166527881Y-50439500D01*
X166527873Y-50439500D01*
X166527864Y-50439500D01*
X164732129Y-50439500D01*
X164732123Y-50439501D01*
X164672516Y-50445908D01*
X164537671Y-50496202D01*
X164537664Y-50496206D01*
X164422455Y-50582452D01*
X164422452Y-50582455D01*
X164336206Y-50697664D01*
X164336202Y-50697671D01*
X164285908Y-50832517D01*
X164279501Y-50892116D01*
X164279500Y-50892135D01*
X118300500Y-50892135D01*
X118300500Y-50751158D01*
X118300500Y-50751155D01*
X118300499Y-50751153D01*
X118269738Y-50596510D01*
X118269737Y-50596503D01*
X118261994Y-50577809D01*
X118209397Y-50450827D01*
X118209390Y-50450814D01*
X118121789Y-50319711D01*
X118121786Y-50319707D01*
X118010292Y-50208213D01*
X118010288Y-50208210D01*
X117879185Y-50120609D01*
X117879172Y-50120602D01*
X117733501Y-50060264D01*
X117733489Y-50060261D01*
X117578845Y-50029500D01*
X117578842Y-50029500D01*
X117421158Y-50029500D01*
X117421155Y-50029500D01*
X117266510Y-50060261D01*
X117266498Y-50060264D01*
X117120827Y-50120602D01*
X117120814Y-50120609D01*
X116989711Y-50208210D01*
X116989707Y-50208213D01*
X116878213Y-50319707D01*
X116878210Y-50319711D01*
X116790609Y-50450814D01*
X116790602Y-50450827D01*
X116730264Y-50596498D01*
X116730261Y-50596510D01*
X116699500Y-50751153D01*
X113085076Y-50751153D01*
X113063354Y-50692913D01*
X113063350Y-50692906D01*
X112977190Y-50577812D01*
X112977187Y-50577809D01*
X112862093Y-50491649D01*
X112862086Y-50491645D01*
X112727379Y-50441403D01*
X112727372Y-50441401D01*
X112667844Y-50435000D01*
X112020000Y-50435000D01*
X112020000Y-51351988D01*
X111962993Y-51319075D01*
X111835826Y-51285000D01*
X111704174Y-51285000D01*
X111577007Y-51319075D01*
X111520000Y-51351988D01*
X111520000Y-50435000D01*
X110872155Y-50435000D01*
X110812627Y-50441401D01*
X110812620Y-50441403D01*
X110677913Y-50491645D01*
X110677906Y-50491649D01*
X110562812Y-50577809D01*
X110562809Y-50577812D01*
X110476649Y-50692906D01*
X110476645Y-50692913D01*
X110426403Y-50827620D01*
X110426401Y-50827627D01*
X110420000Y-50887155D01*
X110420000Y-51535000D01*
X111336988Y-51535000D01*
X111304075Y-51592007D01*
X111270000Y-51719174D01*
X111270000Y-51850826D01*
X111304075Y-51977993D01*
X111336988Y-52035000D01*
X110420000Y-52035000D01*
X110420000Y-52682844D01*
X110426401Y-52742372D01*
X110426403Y-52742379D01*
X110476645Y-52877086D01*
X110476649Y-52877093D01*
X110562809Y-52992187D01*
X110562812Y-52992190D01*
X110677906Y-53078350D01*
X110677913Y-53078354D01*
X110809470Y-53127422D01*
X110865404Y-53169293D01*
X110889821Y-53234758D01*
X110874969Y-53303031D01*
X110853819Y-53331285D01*
X110739889Y-53445215D01*
X110614951Y-53617179D01*
X110518444Y-53806585D01*
X110452753Y-54008760D01*
X110427475Y-54168359D01*
X110419500Y-54218713D01*
X108356535Y-54218713D01*
X108311010Y-49549862D01*
X108313314Y-49538955D01*
X108310369Y-49484129D01*
X108309834Y-49429231D01*
X108309833Y-49429228D01*
X108308694Y-49421183D01*
X108308779Y-49421170D01*
X108307823Y-49415341D01*
X108307739Y-49415357D01*
X108306246Y-49407361D01*
X108290052Y-49357740D01*
X108289211Y-49355163D01*
X108274486Y-49302276D01*
X108268818Y-49292677D01*
X108265360Y-49282079D01*
X108235397Y-49236072D01*
X108207485Y-49188796D01*
X108199525Y-49180990D01*
X108193442Y-49171649D01*
X108182227Y-49161577D01*
X108154599Y-49136765D01*
X108152576Y-49134948D01*
X108113394Y-49096523D01*
X108103693Y-49091048D01*
X108095399Y-49083599D01*
X108095394Y-49083596D01*
X108095393Y-49083595D01*
X108060673Y-49065961D01*
X108009816Y-49018054D01*
X107992833Y-48956689D01*
X107976698Y-47395030D01*
X107995689Y-47327792D01*
X108048017Y-47281494D01*
X108101035Y-47269750D01*
X171605197Y-47446853D01*
G37*
%TD.AperFunction*%
%TD*%
M02*
