%TF.GenerationSoftware,KiCad,Pcbnew,9.0.2*%
%TF.CreationDate,2025-06-26T23:30:40+05:30*%
%TF.ProjectId,MCU data logger,4d435520-6461-4746-9120-6c6f67676572,VERSION 1*%
%TF.SameCoordinates,Original*%
%TF.FileFunction,Legend,Top*%
%TF.FilePolarity,Positive*%
%FSLAX46Y46*%
G04 Gerber Fmt 4.6, Leading zero omitted, Abs format (unit mm)*
G04 Created by KiCad (PCBNEW 9.0.2) date 2025-06-26 23:30:40*
%MOMM*%
%LPD*%
G01*
G04 APERTURE LIST*
%ADD10C,0.150000*%
%ADD11C,0.120000*%
%ADD12C,0.127000*%
%ADD13C,0.200000*%
G04 APERTURE END LIST*
D10*
X109764819Y-75425594D02*
X108764819Y-75425594D01*
X108764819Y-75425594D02*
X108764819Y-75187499D01*
X108764819Y-75187499D02*
X108812438Y-75044642D01*
X108812438Y-75044642D02*
X108907676Y-74949404D01*
X108907676Y-74949404D02*
X109002914Y-74901785D01*
X109002914Y-74901785D02*
X109193390Y-74854166D01*
X109193390Y-74854166D02*
X109336247Y-74854166D01*
X109336247Y-74854166D02*
X109526723Y-74901785D01*
X109526723Y-74901785D02*
X109621961Y-74949404D01*
X109621961Y-74949404D02*
X109717200Y-75044642D01*
X109717200Y-75044642D02*
X109764819Y-75187499D01*
X109764819Y-75187499D02*
X109764819Y-75425594D01*
X108860057Y-74473213D02*
X108812438Y-74425594D01*
X108812438Y-74425594D02*
X108764819Y-74330356D01*
X108764819Y-74330356D02*
X108764819Y-74092261D01*
X108764819Y-74092261D02*
X108812438Y-73997023D01*
X108812438Y-73997023D02*
X108860057Y-73949404D01*
X108860057Y-73949404D02*
X108955295Y-73901785D01*
X108955295Y-73901785D02*
X109050533Y-73901785D01*
X109050533Y-73901785D02*
X109193390Y-73949404D01*
X109193390Y-73949404D02*
X109764819Y-74520832D01*
X109764819Y-74520832D02*
X109764819Y-73901785D01*
X123178095Y-48594819D02*
X123178095Y-49404342D01*
X123178095Y-49404342D02*
X123225714Y-49499580D01*
X123225714Y-49499580D02*
X123273333Y-49547200D01*
X123273333Y-49547200D02*
X123368571Y-49594819D01*
X123368571Y-49594819D02*
X123559047Y-49594819D01*
X123559047Y-49594819D02*
X123654285Y-49547200D01*
X123654285Y-49547200D02*
X123701904Y-49499580D01*
X123701904Y-49499580D02*
X123749523Y-49404342D01*
X123749523Y-49404342D02*
X123749523Y-48594819D01*
X124749523Y-49594819D02*
X124178095Y-49594819D01*
X124463809Y-49594819D02*
X124463809Y-48594819D01*
X124463809Y-48594819D02*
X124368571Y-48737676D01*
X124368571Y-48737676D02*
X124273333Y-48832914D01*
X124273333Y-48832914D02*
X124178095Y-48880533D01*
X122326195Y-64864819D02*
X122326195Y-65674342D01*
X122326195Y-65674342D02*
X122373814Y-65769580D01*
X122373814Y-65769580D02*
X122421433Y-65817200D01*
X122421433Y-65817200D02*
X122516671Y-65864819D01*
X122516671Y-65864819D02*
X122707147Y-65864819D01*
X122707147Y-65864819D02*
X122802385Y-65817200D01*
X122802385Y-65817200D02*
X122850004Y-65769580D01*
X122850004Y-65769580D02*
X122897623Y-65674342D01*
X122897623Y-65674342D02*
X122897623Y-64864819D01*
X123278576Y-64864819D02*
X123897623Y-64864819D01*
X123897623Y-64864819D02*
X123564290Y-65245771D01*
X123564290Y-65245771D02*
X123707147Y-65245771D01*
X123707147Y-65245771D02*
X123802385Y-65293390D01*
X123802385Y-65293390D02*
X123850004Y-65341009D01*
X123850004Y-65341009D02*
X123897623Y-65436247D01*
X123897623Y-65436247D02*
X123897623Y-65674342D01*
X123897623Y-65674342D02*
X123850004Y-65769580D01*
X123850004Y-65769580D02*
X123802385Y-65817200D01*
X123802385Y-65817200D02*
X123707147Y-65864819D01*
X123707147Y-65864819D02*
X123421433Y-65864819D01*
X123421433Y-65864819D02*
X123326195Y-65817200D01*
X123326195Y-65817200D02*
X123278576Y-65769580D01*
X124718095Y-54134819D02*
X124718095Y-54944342D01*
X124718095Y-54944342D02*
X124765714Y-55039580D01*
X124765714Y-55039580D02*
X124813333Y-55087200D01*
X124813333Y-55087200D02*
X124908571Y-55134819D01*
X124908571Y-55134819D02*
X125099047Y-55134819D01*
X125099047Y-55134819D02*
X125194285Y-55087200D01*
X125194285Y-55087200D02*
X125241904Y-55039580D01*
X125241904Y-55039580D02*
X125289523Y-54944342D01*
X125289523Y-54944342D02*
X125289523Y-54134819D01*
X125718095Y-54230057D02*
X125765714Y-54182438D01*
X125765714Y-54182438D02*
X125860952Y-54134819D01*
X125860952Y-54134819D02*
X126099047Y-54134819D01*
X126099047Y-54134819D02*
X126194285Y-54182438D01*
X126194285Y-54182438D02*
X126241904Y-54230057D01*
X126241904Y-54230057D02*
X126289523Y-54325295D01*
X126289523Y-54325295D02*
X126289523Y-54420533D01*
X126289523Y-54420533D02*
X126241904Y-54563390D01*
X126241904Y-54563390D02*
X125670476Y-55134819D01*
X125670476Y-55134819D02*
X126289523Y-55134819D01*
X147674819Y-79103333D02*
X148389104Y-79103333D01*
X148389104Y-79103333D02*
X148531961Y-79150952D01*
X148531961Y-79150952D02*
X148627200Y-79246190D01*
X148627200Y-79246190D02*
X148674819Y-79389047D01*
X148674819Y-79389047D02*
X148674819Y-79484285D01*
X147674819Y-78722380D02*
X147674819Y-78103333D01*
X147674819Y-78103333D02*
X148055771Y-78436666D01*
X148055771Y-78436666D02*
X148055771Y-78293809D01*
X148055771Y-78293809D02*
X148103390Y-78198571D01*
X148103390Y-78198571D02*
X148151009Y-78150952D01*
X148151009Y-78150952D02*
X148246247Y-78103333D01*
X148246247Y-78103333D02*
X148484342Y-78103333D01*
X148484342Y-78103333D02*
X148579580Y-78150952D01*
X148579580Y-78150952D02*
X148627200Y-78198571D01*
X148627200Y-78198571D02*
X148674819Y-78293809D01*
X148674819Y-78293809D02*
X148674819Y-78579523D01*
X148674819Y-78579523D02*
X148627200Y-78674761D01*
X148627200Y-78674761D02*
X148579580Y-78722380D01*
X137109580Y-66829166D02*
X137157200Y-66876785D01*
X137157200Y-66876785D02*
X137204819Y-67019642D01*
X137204819Y-67019642D02*
X137204819Y-67114880D01*
X137204819Y-67114880D02*
X137157200Y-67257737D01*
X137157200Y-67257737D02*
X137061961Y-67352975D01*
X137061961Y-67352975D02*
X136966723Y-67400594D01*
X136966723Y-67400594D02*
X136776247Y-67448213D01*
X136776247Y-67448213D02*
X136633390Y-67448213D01*
X136633390Y-67448213D02*
X136442914Y-67400594D01*
X136442914Y-67400594D02*
X136347676Y-67352975D01*
X136347676Y-67352975D02*
X136252438Y-67257737D01*
X136252438Y-67257737D02*
X136204819Y-67114880D01*
X136204819Y-67114880D02*
X136204819Y-67019642D01*
X136204819Y-67019642D02*
X136252438Y-66876785D01*
X136252438Y-66876785D02*
X136300057Y-66829166D01*
X137204819Y-65876785D02*
X137204819Y-66448213D01*
X137204819Y-66162499D02*
X136204819Y-66162499D01*
X136204819Y-66162499D02*
X136347676Y-66257737D01*
X136347676Y-66257737D02*
X136442914Y-66352975D01*
X136442914Y-66352975D02*
X136490533Y-66448213D01*
X171348095Y-79314819D02*
X171348095Y-78314819D01*
X171348095Y-78791009D02*
X171919523Y-78791009D01*
X171919523Y-79314819D02*
X171919523Y-78314819D01*
X172824285Y-78648152D02*
X172824285Y-79314819D01*
X172586190Y-78267200D02*
X172348095Y-78981485D01*
X172348095Y-78981485D02*
X172967142Y-78981485D01*
X157685819Y-58526266D02*
X157209628Y-58859599D01*
X157685819Y-59097694D02*
X156685819Y-59097694D01*
X156685819Y-59097694D02*
X156685819Y-58716742D01*
X156685819Y-58716742D02*
X156733438Y-58621504D01*
X156733438Y-58621504D02*
X156781057Y-58573885D01*
X156781057Y-58573885D02*
X156876295Y-58526266D01*
X156876295Y-58526266D02*
X157019152Y-58526266D01*
X157019152Y-58526266D02*
X157114390Y-58573885D01*
X157114390Y-58573885D02*
X157162009Y-58621504D01*
X157162009Y-58621504D02*
X157209628Y-58716742D01*
X157209628Y-58716742D02*
X157209628Y-59097694D01*
X156685819Y-58192932D02*
X156685819Y-57573885D01*
X156685819Y-57573885D02*
X157066771Y-57907218D01*
X157066771Y-57907218D02*
X157066771Y-57764361D01*
X157066771Y-57764361D02*
X157114390Y-57669123D01*
X157114390Y-57669123D02*
X157162009Y-57621504D01*
X157162009Y-57621504D02*
X157257247Y-57573885D01*
X157257247Y-57573885D02*
X157495342Y-57573885D01*
X157495342Y-57573885D02*
X157590580Y-57621504D01*
X157590580Y-57621504D02*
X157638200Y-57669123D01*
X157638200Y-57669123D02*
X157685819Y-57764361D01*
X157685819Y-57764361D02*
X157685819Y-58050075D01*
X157685819Y-58050075D02*
X157638200Y-58145313D01*
X157638200Y-58145313D02*
X157590580Y-58192932D01*
X113066819Y-74653266D02*
X112590628Y-74986599D01*
X113066819Y-75224694D02*
X112066819Y-75224694D01*
X112066819Y-75224694D02*
X112066819Y-74843742D01*
X112066819Y-74843742D02*
X112114438Y-74748504D01*
X112114438Y-74748504D02*
X112162057Y-74700885D01*
X112162057Y-74700885D02*
X112257295Y-74653266D01*
X112257295Y-74653266D02*
X112400152Y-74653266D01*
X112400152Y-74653266D02*
X112495390Y-74700885D01*
X112495390Y-74700885D02*
X112543009Y-74748504D01*
X112543009Y-74748504D02*
X112590628Y-74843742D01*
X112590628Y-74843742D02*
X112590628Y-75224694D01*
X113066819Y-73700885D02*
X113066819Y-74272313D01*
X113066819Y-73986599D02*
X112066819Y-73986599D01*
X112066819Y-73986599D02*
X112209676Y-74081837D01*
X112209676Y-74081837D02*
X112304914Y-74177075D01*
X112304914Y-74177075D02*
X112352533Y-74272313D01*
X171328095Y-42724819D02*
X171328095Y-41724819D01*
X171328095Y-42201009D02*
X171899523Y-42201009D01*
X171899523Y-42724819D02*
X171899523Y-41724819D01*
X172280476Y-41724819D02*
X172899523Y-41724819D01*
X172899523Y-41724819D02*
X172566190Y-42105771D01*
X172566190Y-42105771D02*
X172709047Y-42105771D01*
X172709047Y-42105771D02*
X172804285Y-42153390D01*
X172804285Y-42153390D02*
X172851904Y-42201009D01*
X172851904Y-42201009D02*
X172899523Y-42296247D01*
X172899523Y-42296247D02*
X172899523Y-42534342D01*
X172899523Y-42534342D02*
X172851904Y-42629580D01*
X172851904Y-42629580D02*
X172804285Y-42677200D01*
X172804285Y-42677200D02*
X172709047Y-42724819D01*
X172709047Y-42724819D02*
X172423333Y-42724819D01*
X172423333Y-42724819D02*
X172328095Y-42677200D01*
X172328095Y-42677200D02*
X172280476Y-42629580D01*
X106888095Y-42954819D02*
X106888095Y-41954819D01*
X106888095Y-42431009D02*
X107459523Y-42431009D01*
X107459523Y-42954819D02*
X107459523Y-41954819D01*
X108459523Y-42954819D02*
X107888095Y-42954819D01*
X108173809Y-42954819D02*
X108173809Y-41954819D01*
X108173809Y-41954819D02*
X108078571Y-42097676D01*
X108078571Y-42097676D02*
X107983333Y-42192914D01*
X107983333Y-42192914D02*
X107888095Y-42240533D01*
X157671619Y-63088666D02*
X157195428Y-63421999D01*
X157671619Y-63660094D02*
X156671619Y-63660094D01*
X156671619Y-63660094D02*
X156671619Y-63279142D01*
X156671619Y-63279142D02*
X156719238Y-63183904D01*
X156719238Y-63183904D02*
X156766857Y-63136285D01*
X156766857Y-63136285D02*
X156862095Y-63088666D01*
X156862095Y-63088666D02*
X157004952Y-63088666D01*
X157004952Y-63088666D02*
X157100190Y-63136285D01*
X157100190Y-63136285D02*
X157147809Y-63183904D01*
X157147809Y-63183904D02*
X157195428Y-63279142D01*
X157195428Y-63279142D02*
X157195428Y-63660094D01*
X156766857Y-62707713D02*
X156719238Y-62660094D01*
X156719238Y-62660094D02*
X156671619Y-62564856D01*
X156671619Y-62564856D02*
X156671619Y-62326761D01*
X156671619Y-62326761D02*
X156719238Y-62231523D01*
X156719238Y-62231523D02*
X156766857Y-62183904D01*
X156766857Y-62183904D02*
X156862095Y-62136285D01*
X156862095Y-62136285D02*
X156957333Y-62136285D01*
X156957333Y-62136285D02*
X157100190Y-62183904D01*
X157100190Y-62183904D02*
X157671619Y-62755332D01*
X157671619Y-62755332D02*
X157671619Y-62136285D01*
X166566666Y-48864819D02*
X166566666Y-49579104D01*
X166566666Y-49579104D02*
X166519047Y-49721961D01*
X166519047Y-49721961D02*
X166423809Y-49817200D01*
X166423809Y-49817200D02*
X166280952Y-49864819D01*
X166280952Y-49864819D02*
X166185714Y-49864819D01*
X167471428Y-49198152D02*
X167471428Y-49864819D01*
X167233333Y-48817200D02*
X166995238Y-49531485D01*
X166995238Y-49531485D02*
X167614285Y-49531485D01*
X148385833Y-49815619D02*
X148052500Y-49339428D01*
X147814405Y-49815619D02*
X147814405Y-48815619D01*
X147814405Y-48815619D02*
X148195357Y-48815619D01*
X148195357Y-48815619D02*
X148290595Y-48863238D01*
X148290595Y-48863238D02*
X148338214Y-48910857D01*
X148338214Y-48910857D02*
X148385833Y-49006095D01*
X148385833Y-49006095D02*
X148385833Y-49148952D01*
X148385833Y-49148952D02*
X148338214Y-49244190D01*
X148338214Y-49244190D02*
X148290595Y-49291809D01*
X148290595Y-49291809D02*
X148195357Y-49339428D01*
X148195357Y-49339428D02*
X147814405Y-49339428D01*
X149242976Y-49148952D02*
X149242976Y-49815619D01*
X149004881Y-48768000D02*
X148766786Y-49482285D01*
X148766786Y-49482285D02*
X149385833Y-49482285D01*
X140399033Y-49363980D02*
X140351414Y-49411600D01*
X140351414Y-49411600D02*
X140208557Y-49459219D01*
X140208557Y-49459219D02*
X140113319Y-49459219D01*
X140113319Y-49459219D02*
X139970462Y-49411600D01*
X139970462Y-49411600D02*
X139875224Y-49316361D01*
X139875224Y-49316361D02*
X139827605Y-49221123D01*
X139827605Y-49221123D02*
X139779986Y-49030647D01*
X139779986Y-49030647D02*
X139779986Y-48887790D01*
X139779986Y-48887790D02*
X139827605Y-48697314D01*
X139827605Y-48697314D02*
X139875224Y-48602076D01*
X139875224Y-48602076D02*
X139970462Y-48506838D01*
X139970462Y-48506838D02*
X140113319Y-48459219D01*
X140113319Y-48459219D02*
X140208557Y-48459219D01*
X140208557Y-48459219D02*
X140351414Y-48506838D01*
X140351414Y-48506838D02*
X140399033Y-48554457D01*
X140779986Y-48554457D02*
X140827605Y-48506838D01*
X140827605Y-48506838D02*
X140922843Y-48459219D01*
X140922843Y-48459219D02*
X141160938Y-48459219D01*
X141160938Y-48459219D02*
X141256176Y-48506838D01*
X141256176Y-48506838D02*
X141303795Y-48554457D01*
X141303795Y-48554457D02*
X141351414Y-48649695D01*
X141351414Y-48649695D02*
X141351414Y-48744933D01*
X141351414Y-48744933D02*
X141303795Y-48887790D01*
X141303795Y-48887790D02*
X140732367Y-49459219D01*
X140732367Y-49459219D02*
X141351414Y-49459219D01*
X131509580Y-56976666D02*
X131557200Y-57024285D01*
X131557200Y-57024285D02*
X131604819Y-57167142D01*
X131604819Y-57167142D02*
X131604819Y-57262380D01*
X131604819Y-57262380D02*
X131557200Y-57405237D01*
X131557200Y-57405237D02*
X131461961Y-57500475D01*
X131461961Y-57500475D02*
X131366723Y-57548094D01*
X131366723Y-57548094D02*
X131176247Y-57595713D01*
X131176247Y-57595713D02*
X131033390Y-57595713D01*
X131033390Y-57595713D02*
X130842914Y-57548094D01*
X130842914Y-57548094D02*
X130747676Y-57500475D01*
X130747676Y-57500475D02*
X130652438Y-57405237D01*
X130652438Y-57405237D02*
X130604819Y-57262380D01*
X130604819Y-57262380D02*
X130604819Y-57167142D01*
X130604819Y-57167142D02*
X130652438Y-57024285D01*
X130652438Y-57024285D02*
X130700057Y-56976666D01*
X130604819Y-56071904D02*
X130604819Y-56548094D01*
X130604819Y-56548094D02*
X131081009Y-56595713D01*
X131081009Y-56595713D02*
X131033390Y-56548094D01*
X131033390Y-56548094D02*
X130985771Y-56452856D01*
X130985771Y-56452856D02*
X130985771Y-56214761D01*
X130985771Y-56214761D02*
X131033390Y-56119523D01*
X131033390Y-56119523D02*
X131081009Y-56071904D01*
X131081009Y-56071904D02*
X131176247Y-56024285D01*
X131176247Y-56024285D02*
X131414342Y-56024285D01*
X131414342Y-56024285D02*
X131509580Y-56071904D01*
X131509580Y-56071904D02*
X131557200Y-56119523D01*
X131557200Y-56119523D02*
X131604819Y-56214761D01*
X131604819Y-56214761D02*
X131604819Y-56452856D01*
X131604819Y-56452856D02*
X131557200Y-56548094D01*
X131557200Y-56548094D02*
X131509580Y-56595713D01*
X131429580Y-61266666D02*
X131477200Y-61314285D01*
X131477200Y-61314285D02*
X131524819Y-61457142D01*
X131524819Y-61457142D02*
X131524819Y-61552380D01*
X131524819Y-61552380D02*
X131477200Y-61695237D01*
X131477200Y-61695237D02*
X131381961Y-61790475D01*
X131381961Y-61790475D02*
X131286723Y-61838094D01*
X131286723Y-61838094D02*
X131096247Y-61885713D01*
X131096247Y-61885713D02*
X130953390Y-61885713D01*
X130953390Y-61885713D02*
X130762914Y-61838094D01*
X130762914Y-61838094D02*
X130667676Y-61790475D01*
X130667676Y-61790475D02*
X130572438Y-61695237D01*
X130572438Y-61695237D02*
X130524819Y-61552380D01*
X130524819Y-61552380D02*
X130524819Y-61457142D01*
X130524819Y-61457142D02*
X130572438Y-61314285D01*
X130572438Y-61314285D02*
X130620057Y-61266666D01*
X130524819Y-60933332D02*
X130524819Y-60314285D01*
X130524819Y-60314285D02*
X130905771Y-60647618D01*
X130905771Y-60647618D02*
X130905771Y-60504761D01*
X130905771Y-60504761D02*
X130953390Y-60409523D01*
X130953390Y-60409523D02*
X131001009Y-60361904D01*
X131001009Y-60361904D02*
X131096247Y-60314285D01*
X131096247Y-60314285D02*
X131334342Y-60314285D01*
X131334342Y-60314285D02*
X131429580Y-60361904D01*
X131429580Y-60361904D02*
X131477200Y-60409523D01*
X131477200Y-60409523D02*
X131524819Y-60504761D01*
X131524819Y-60504761D02*
X131524819Y-60790475D01*
X131524819Y-60790475D02*
X131477200Y-60885713D01*
X131477200Y-60885713D02*
X131429580Y-60933332D01*
X157768619Y-67946666D02*
X157292428Y-68279999D01*
X157768619Y-68518094D02*
X156768619Y-68518094D01*
X156768619Y-68518094D02*
X156768619Y-68137142D01*
X156768619Y-68137142D02*
X156816238Y-68041904D01*
X156816238Y-68041904D02*
X156863857Y-67994285D01*
X156863857Y-67994285D02*
X156959095Y-67946666D01*
X156959095Y-67946666D02*
X157101952Y-67946666D01*
X157101952Y-67946666D02*
X157197190Y-67994285D01*
X157197190Y-67994285D02*
X157244809Y-68041904D01*
X157244809Y-68041904D02*
X157292428Y-68137142D01*
X157292428Y-68137142D02*
X157292428Y-68518094D01*
X156768619Y-67613332D02*
X156768619Y-66946666D01*
X156768619Y-66946666D02*
X157768619Y-67375237D01*
X144663095Y-53894819D02*
X144663095Y-54704342D01*
X144663095Y-54704342D02*
X144710714Y-54799580D01*
X144710714Y-54799580D02*
X144758333Y-54847200D01*
X144758333Y-54847200D02*
X144853571Y-54894819D01*
X144853571Y-54894819D02*
X145044047Y-54894819D01*
X145044047Y-54894819D02*
X145139285Y-54847200D01*
X145139285Y-54847200D02*
X145186904Y-54799580D01*
X145186904Y-54799580D02*
X145234523Y-54704342D01*
X145234523Y-54704342D02*
X145234523Y-53894819D01*
X146139285Y-54228152D02*
X146139285Y-54894819D01*
X145901190Y-53847200D02*
X145663095Y-54561485D01*
X145663095Y-54561485D02*
X146282142Y-54561485D01*
X152231905Y-49704819D02*
X152231905Y-48704819D01*
X152231905Y-48704819D02*
X152470000Y-48704819D01*
X152470000Y-48704819D02*
X152612857Y-48752438D01*
X152612857Y-48752438D02*
X152708095Y-48847676D01*
X152708095Y-48847676D02*
X152755714Y-48942914D01*
X152755714Y-48942914D02*
X152803333Y-49133390D01*
X152803333Y-49133390D02*
X152803333Y-49276247D01*
X152803333Y-49276247D02*
X152755714Y-49466723D01*
X152755714Y-49466723D02*
X152708095Y-49561961D01*
X152708095Y-49561961D02*
X152612857Y-49657200D01*
X152612857Y-49657200D02*
X152470000Y-49704819D01*
X152470000Y-49704819D02*
X152231905Y-49704819D01*
X153755714Y-49704819D02*
X153184286Y-49704819D01*
X153470000Y-49704819D02*
X153470000Y-48704819D01*
X153470000Y-48704819D02*
X153374762Y-48847676D01*
X153374762Y-48847676D02*
X153279524Y-48942914D01*
X153279524Y-48942914D02*
X153184286Y-48990533D01*
X110984285Y-49336009D02*
X111127142Y-49383628D01*
X111127142Y-49383628D02*
X111174761Y-49431247D01*
X111174761Y-49431247D02*
X111222380Y-49526485D01*
X111222380Y-49526485D02*
X111222380Y-49669342D01*
X111222380Y-49669342D02*
X111174761Y-49764580D01*
X111174761Y-49764580D02*
X111127142Y-49812200D01*
X111127142Y-49812200D02*
X111031904Y-49859819D01*
X111031904Y-49859819D02*
X110650952Y-49859819D01*
X110650952Y-49859819D02*
X110650952Y-48859819D01*
X110650952Y-48859819D02*
X110984285Y-48859819D01*
X110984285Y-48859819D02*
X111079523Y-48907438D01*
X111079523Y-48907438D02*
X111127142Y-48955057D01*
X111127142Y-48955057D02*
X111174761Y-49050295D01*
X111174761Y-49050295D02*
X111174761Y-49145533D01*
X111174761Y-49145533D02*
X111127142Y-49240771D01*
X111127142Y-49240771D02*
X111079523Y-49288390D01*
X111079523Y-49288390D02*
X110984285Y-49336009D01*
X110984285Y-49336009D02*
X110650952Y-49336009D01*
X111508095Y-48859819D02*
X112079523Y-48859819D01*
X111793809Y-49859819D02*
X111793809Y-48859819D01*
X112936666Y-49859819D02*
X112365238Y-49859819D01*
X112650952Y-49859819D02*
X112650952Y-48859819D01*
X112650952Y-48859819D02*
X112555714Y-49002676D01*
X112555714Y-49002676D02*
X112460476Y-49097914D01*
X112460476Y-49097914D02*
X112365238Y-49145533D01*
X131684819Y-65536666D02*
X131208628Y-65869999D01*
X131684819Y-66108094D02*
X130684819Y-66108094D01*
X130684819Y-66108094D02*
X130684819Y-65727142D01*
X130684819Y-65727142D02*
X130732438Y-65631904D01*
X130732438Y-65631904D02*
X130780057Y-65584285D01*
X130780057Y-65584285D02*
X130875295Y-65536666D01*
X130875295Y-65536666D02*
X131018152Y-65536666D01*
X131018152Y-65536666D02*
X131113390Y-65584285D01*
X131113390Y-65584285D02*
X131161009Y-65631904D01*
X131161009Y-65631904D02*
X131208628Y-65727142D01*
X131208628Y-65727142D02*
X131208628Y-66108094D01*
X130684819Y-64631904D02*
X130684819Y-65108094D01*
X130684819Y-65108094D02*
X131161009Y-65155713D01*
X131161009Y-65155713D02*
X131113390Y-65108094D01*
X131113390Y-65108094D02*
X131065771Y-65012856D01*
X131065771Y-65012856D02*
X131065771Y-64774761D01*
X131065771Y-64774761D02*
X131113390Y-64679523D01*
X131113390Y-64679523D02*
X131161009Y-64631904D01*
X131161009Y-64631904D02*
X131256247Y-64584285D01*
X131256247Y-64584285D02*
X131494342Y-64584285D01*
X131494342Y-64584285D02*
X131589580Y-64631904D01*
X131589580Y-64631904D02*
X131637200Y-64679523D01*
X131637200Y-64679523D02*
X131684819Y-64774761D01*
X131684819Y-64774761D02*
X131684819Y-65012856D01*
X131684819Y-65012856D02*
X131637200Y-65108094D01*
X131637200Y-65108094D02*
X131589580Y-65155713D01*
X166516666Y-59904819D02*
X166516666Y-60619104D01*
X166516666Y-60619104D02*
X166469047Y-60761961D01*
X166469047Y-60761961D02*
X166373809Y-60857200D01*
X166373809Y-60857200D02*
X166230952Y-60904819D01*
X166230952Y-60904819D02*
X166135714Y-60904819D01*
X167516666Y-60904819D02*
X166945238Y-60904819D01*
X167230952Y-60904819D02*
X167230952Y-59904819D01*
X167230952Y-59904819D02*
X167135714Y-60047676D01*
X167135714Y-60047676D02*
X167040476Y-60142914D01*
X167040476Y-60142914D02*
X166945238Y-60190533D01*
X144145833Y-49799580D02*
X144098214Y-49847200D01*
X144098214Y-49847200D02*
X143955357Y-49894819D01*
X143955357Y-49894819D02*
X143860119Y-49894819D01*
X143860119Y-49894819D02*
X143717262Y-49847200D01*
X143717262Y-49847200D02*
X143622024Y-49751961D01*
X143622024Y-49751961D02*
X143574405Y-49656723D01*
X143574405Y-49656723D02*
X143526786Y-49466247D01*
X143526786Y-49466247D02*
X143526786Y-49323390D01*
X143526786Y-49323390D02*
X143574405Y-49132914D01*
X143574405Y-49132914D02*
X143622024Y-49037676D01*
X143622024Y-49037676D02*
X143717262Y-48942438D01*
X143717262Y-48942438D02*
X143860119Y-48894819D01*
X143860119Y-48894819D02*
X143955357Y-48894819D01*
X143955357Y-48894819D02*
X144098214Y-48942438D01*
X144098214Y-48942438D02*
X144145833Y-48990057D01*
X145002976Y-49228152D02*
X145002976Y-49894819D01*
X144764881Y-48847200D02*
X144526786Y-49561485D01*
X144526786Y-49561485D02*
X145145833Y-49561485D01*
X131694819Y-70059166D02*
X131218628Y-70392499D01*
X131694819Y-70630594D02*
X130694819Y-70630594D01*
X130694819Y-70630594D02*
X130694819Y-70249642D01*
X130694819Y-70249642D02*
X130742438Y-70154404D01*
X130742438Y-70154404D02*
X130790057Y-70106785D01*
X130790057Y-70106785D02*
X130885295Y-70059166D01*
X130885295Y-70059166D02*
X131028152Y-70059166D01*
X131028152Y-70059166D02*
X131123390Y-70106785D01*
X131123390Y-70106785D02*
X131171009Y-70154404D01*
X131171009Y-70154404D02*
X131218628Y-70249642D01*
X131218628Y-70249642D02*
X131218628Y-70630594D01*
X130694819Y-69202023D02*
X130694819Y-69392499D01*
X130694819Y-69392499D02*
X130742438Y-69487737D01*
X130742438Y-69487737D02*
X130790057Y-69535356D01*
X130790057Y-69535356D02*
X130932914Y-69630594D01*
X130932914Y-69630594D02*
X131123390Y-69678213D01*
X131123390Y-69678213D02*
X131504342Y-69678213D01*
X131504342Y-69678213D02*
X131599580Y-69630594D01*
X131599580Y-69630594D02*
X131647200Y-69582975D01*
X131647200Y-69582975D02*
X131694819Y-69487737D01*
X131694819Y-69487737D02*
X131694819Y-69297261D01*
X131694819Y-69297261D02*
X131647200Y-69202023D01*
X131647200Y-69202023D02*
X131599580Y-69154404D01*
X131599580Y-69154404D02*
X131504342Y-69106785D01*
X131504342Y-69106785D02*
X131266247Y-69106785D01*
X131266247Y-69106785D02*
X131171009Y-69154404D01*
X131171009Y-69154404D02*
X131123390Y-69202023D01*
X131123390Y-69202023D02*
X131075771Y-69297261D01*
X131075771Y-69297261D02*
X131075771Y-69487737D01*
X131075771Y-69487737D02*
X131123390Y-69582975D01*
X131123390Y-69582975D02*
X131171009Y-69630594D01*
X131171009Y-69630594D02*
X131266247Y-69678213D01*
X109238628Y-65116190D02*
X109714819Y-65116190D01*
X108714819Y-65449523D02*
X109238628Y-65116190D01*
X109238628Y-65116190D02*
X108714819Y-64782857D01*
X109714819Y-63925714D02*
X109714819Y-64497142D01*
X109714819Y-64211428D02*
X108714819Y-64211428D01*
X108714819Y-64211428D02*
X108857676Y-64306666D01*
X108857676Y-64306666D02*
X108952914Y-64401904D01*
X108952914Y-64401904D02*
X109000533Y-64497142D01*
X120324819Y-79133333D02*
X121039104Y-79133333D01*
X121039104Y-79133333D02*
X121181961Y-79180952D01*
X121181961Y-79180952D02*
X121277200Y-79276190D01*
X121277200Y-79276190D02*
X121324819Y-79419047D01*
X121324819Y-79419047D02*
X121324819Y-79514285D01*
X120420057Y-78704761D02*
X120372438Y-78657142D01*
X120372438Y-78657142D02*
X120324819Y-78561904D01*
X120324819Y-78561904D02*
X120324819Y-78323809D01*
X120324819Y-78323809D02*
X120372438Y-78228571D01*
X120372438Y-78228571D02*
X120420057Y-78180952D01*
X120420057Y-78180952D02*
X120515295Y-78133333D01*
X120515295Y-78133333D02*
X120610533Y-78133333D01*
X120610533Y-78133333D02*
X120753390Y-78180952D01*
X120753390Y-78180952D02*
X121324819Y-78752380D01*
X121324819Y-78752380D02*
X121324819Y-78133333D01*
X106908095Y-78664819D02*
X106908095Y-77664819D01*
X106908095Y-78141009D02*
X107479523Y-78141009D01*
X107479523Y-78664819D02*
X107479523Y-77664819D01*
X107908095Y-77760057D02*
X107955714Y-77712438D01*
X107955714Y-77712438D02*
X108050952Y-77664819D01*
X108050952Y-77664819D02*
X108289047Y-77664819D01*
X108289047Y-77664819D02*
X108384285Y-77712438D01*
X108384285Y-77712438D02*
X108431904Y-77760057D01*
X108431904Y-77760057D02*
X108479523Y-77855295D01*
X108479523Y-77855295D02*
X108479523Y-77950533D01*
X108479523Y-77950533D02*
X108431904Y-78093390D01*
X108431904Y-78093390D02*
X107860476Y-78664819D01*
X107860476Y-78664819D02*
X108479523Y-78664819D01*
X147813809Y-67778628D02*
X147813809Y-68254819D01*
X147480476Y-67254819D02*
X147813809Y-67778628D01*
X147813809Y-67778628D02*
X148147142Y-67254819D01*
X148432857Y-67350057D02*
X148480476Y-67302438D01*
X148480476Y-67302438D02*
X148575714Y-67254819D01*
X148575714Y-67254819D02*
X148813809Y-67254819D01*
X148813809Y-67254819D02*
X148909047Y-67302438D01*
X148909047Y-67302438D02*
X148956666Y-67350057D01*
X148956666Y-67350057D02*
X149004285Y-67445295D01*
X149004285Y-67445295D02*
X149004285Y-67540533D01*
X149004285Y-67540533D02*
X148956666Y-67683390D01*
X148956666Y-67683390D02*
X148385238Y-68254819D01*
X148385238Y-68254819D02*
X149004285Y-68254819D01*
D11*
%TO.C,D2*%
X110000000Y-73687500D02*
X110000000Y-76372500D01*
X110000000Y-76372500D02*
X111920000Y-76372500D01*
X111920000Y-76372500D02*
X111920000Y-73687500D01*
%TO.C,U1*%
X121180000Y-49980000D02*
X121180000Y-50250000D01*
X121180000Y-55500000D02*
X121180000Y-55230000D01*
X123940000Y-49980000D02*
X121180000Y-49980000D01*
X123940000Y-49980000D02*
X126700000Y-49980000D01*
X123940000Y-55500000D02*
X121180000Y-55500000D01*
X123940000Y-55500000D02*
X126700000Y-55500000D01*
X126700000Y-49980000D02*
X126700000Y-50250000D01*
X126700000Y-55500000D02*
X126700000Y-55230000D01*
X120415000Y-50250000D02*
X120175000Y-49920000D01*
X120655000Y-49920000D01*
X120415000Y-50250000D01*
G36*
X120415000Y-50250000D02*
G01*
X120175000Y-49920000D01*
X120655000Y-49920000D01*
X120415000Y-50250000D01*
G37*
D12*
%TO.C,U3*%
X121883100Y-66222000D02*
X125883100Y-66222000D01*
X121883100Y-71262000D02*
X125883100Y-71262000D01*
D13*
X119538100Y-66247000D02*
G75*
G02*
X119338100Y-66247000I-100000J0D01*
G01*
X119338100Y-66247000D02*
G75*
G02*
X119538100Y-66247000I100000J0D01*
G01*
D11*
%TO.C,U2*%
X121180000Y-56830000D02*
X121180000Y-57100000D01*
X121180000Y-62350000D02*
X121180000Y-62080000D01*
X123940000Y-56830000D02*
X121180000Y-56830000D01*
X123940000Y-56830000D02*
X126700000Y-56830000D01*
X123940000Y-62350000D02*
X121180000Y-62350000D01*
X123940000Y-62350000D02*
X126700000Y-62350000D01*
X126700000Y-56830000D02*
X126700000Y-57100000D01*
X126700000Y-62350000D02*
X126700000Y-62080000D01*
X120415000Y-57100000D02*
X120175000Y-56770000D01*
X120655000Y-56770000D01*
X120415000Y-57100000D01*
G36*
X120415000Y-57100000D02*
G01*
X120175000Y-56770000D01*
X120655000Y-56770000D01*
X120415000Y-57100000D01*
G37*
%TO.C,J3*%
X149220000Y-80150000D02*
X149220000Y-78770000D01*
X150600000Y-80150000D02*
X149220000Y-80150000D01*
X151870000Y-77390000D02*
X159600000Y-77390000D01*
X151870000Y-80150000D02*
X151870000Y-77390000D01*
X151870000Y-80150000D02*
X159600000Y-80150000D01*
X159600000Y-80150000D02*
X159600000Y-77390000D01*
%TO.C,C1*%
X136325000Y-69991252D02*
X136325000Y-69468748D01*
X137795000Y-69991252D02*
X137795000Y-69468748D01*
%TO.C,R3*%
X158015000Y-58537064D02*
X158015000Y-58082936D01*
X159485000Y-58537064D02*
X159485000Y-58082936D01*
%TO.C,R1*%
X113527000Y-74713664D02*
X113527000Y-74259536D01*
X114997000Y-74713664D02*
X114997000Y-74259536D01*
%TO.C,R2*%
X158035000Y-62967064D02*
X158035000Y-62512936D01*
X159505000Y-62967064D02*
X159505000Y-62512936D01*
%TO.C,J4*%
X164250000Y-50410000D02*
X165630000Y-50410000D01*
X164250000Y-51790000D02*
X164250000Y-50410000D01*
X164250000Y-53060000D02*
X164250000Y-58250000D01*
X164250000Y-53060000D02*
X166900000Y-53060000D01*
X164250000Y-58250000D02*
X169550000Y-58250000D01*
X166900000Y-50410000D02*
X169550000Y-50410000D01*
X166900000Y-53060000D02*
X166900000Y-50410000D01*
X169550000Y-50410000D02*
X169550000Y-58250000D01*
%TO.C,R4*%
X148325436Y-50145000D02*
X148779564Y-50145000D01*
X148325436Y-51615000D02*
X148779564Y-51615000D01*
%TO.C,C2*%
X139781248Y-50265000D02*
X140303752Y-50265000D01*
X139781248Y-51735000D02*
X140303752Y-51735000D01*
%TO.C,C5*%
X132095000Y-57071252D02*
X132095000Y-56548748D01*
X133565000Y-57071252D02*
X133565000Y-56548748D01*
%TO.C,C3*%
X132015000Y-61361252D02*
X132015000Y-60838748D01*
X133485000Y-61361252D02*
X133485000Y-60838748D01*
%TO.C,R7*%
X158085000Y-68007064D02*
X158085000Y-67552936D01*
X159555000Y-68007064D02*
X159555000Y-67552936D01*
D12*
%TO.C,U4*%
X144720000Y-57730000D02*
X144720000Y-57835000D01*
X144720000Y-57730000D02*
X144825000Y-57730000D01*
X144720000Y-64730000D02*
X144720000Y-64625000D01*
X144720000Y-64730000D02*
X144825000Y-64730000D01*
X151720000Y-57730000D02*
X151615000Y-57730000D01*
X151720000Y-57730000D02*
X151720000Y-57835000D01*
X151720000Y-64730000D02*
X151615000Y-64730000D01*
X151720000Y-64730000D02*
X151720000Y-64625000D01*
D13*
X142480000Y-58430000D02*
G75*
G02*
X142280000Y-58430000I-100000J0D01*
G01*
X142280000Y-58430000D02*
G75*
G02*
X142480000Y-58430000I100000J0D01*
G01*
D11*
%TO.C,D1*%
X151285000Y-49940000D02*
X151285000Y-51860000D01*
X151285000Y-51860000D02*
X153970000Y-51860000D01*
X153970000Y-49940000D02*
X151285000Y-49940000D01*
%TO.C,BT1*%
X110390000Y-50405000D02*
X111770000Y-50405000D01*
X110390000Y-51785000D02*
X110390000Y-50405000D01*
X110390000Y-53055000D02*
X110390000Y-55705000D01*
X110390000Y-53055000D02*
X113150000Y-53055000D01*
X110390000Y-55705000D02*
X113150000Y-55705000D01*
X113150000Y-53055000D02*
X113150000Y-55705000D01*
%TO.C,R5*%
X132015000Y-65597064D02*
X132015000Y-65142936D01*
X133485000Y-65597064D02*
X133485000Y-65142936D01*
%TO.C,J1*%
X165470000Y-61450000D02*
X166850000Y-61450000D01*
X165470000Y-62830000D02*
X165470000Y-61450000D01*
X165470000Y-64100000D02*
X165470000Y-71830000D01*
X165470000Y-64100000D02*
X168230000Y-64100000D01*
X165470000Y-71830000D02*
X168230000Y-71830000D01*
X168230000Y-64100000D02*
X168230000Y-71830000D01*
%TO.C,C4*%
X144051248Y-50205000D02*
X144573752Y-50205000D01*
X144051248Y-51675000D02*
X144573752Y-51675000D01*
%TO.C,R6*%
X132095000Y-70119564D02*
X132095000Y-69665436D01*
X133565000Y-70119564D02*
X133565000Y-69665436D01*
%TO.C,Y1*%
X110200000Y-61880000D02*
X110200000Y-69250000D01*
X110200000Y-69250000D02*
X113920000Y-69250000D01*
X113920000Y-69250000D02*
X113920000Y-61880000D01*
%TO.C,J2*%
X122310000Y-77470000D02*
X123640000Y-77470000D01*
X122310000Y-78800000D02*
X122310000Y-77470000D01*
X124910000Y-77470000D02*
X145290000Y-77470000D01*
X124910000Y-80130000D02*
X124910000Y-77470000D01*
X124910000Y-80130000D02*
X145290000Y-80130000D01*
X145290000Y-80130000D02*
X145290000Y-77470000D01*
%TO.C,Y2*%
X143680000Y-68740000D02*
X143680000Y-72460000D01*
X143680000Y-72460000D02*
X151050000Y-72460000D01*
X151050000Y-68740000D02*
X143680000Y-68740000D01*
%TD*%
M02*
