%TF.GenerationSoftware,KiCad,Pcbnew,9.0.2*%
%TF.CreationDate,2025-06-26T23:30:40+05:30*%
%TF.ProjectId,MCU data logger,4d435520-6461-4746-9120-6c6f67676572,VERSION 1*%
%TF.SameCoordinates,Original*%
%TF.FileFunction,Copper,L2,Inr*%
%TF.FilePolarity,Positive*%
%FSLAX46Y46*%
G04 Gerber Fmt 4.6, Leading zero omitted, Abs format (unit mm)*
G04 Created by KiCad (PCBNEW 9.0.2) date 2025-06-26 23:30:40*
%MOMM*%
%LPD*%
G01*
G04 APERTURE LIST*
%TA.AperFunction,ComponentPad*%
%ADD10R,1.700000X1.700000*%
%TD*%
%TA.AperFunction,ComponentPad*%
%ADD11C,1.700000*%
%TD*%
%TA.AperFunction,ViaPad*%
%ADD12C,0.600000*%
%TD*%
%TA.AperFunction,Conductor*%
%ADD13C,0.200000*%
%TD*%
G04 APERTURE END LIST*
D10*
%TO.N,GND*%
%TO.C,J3*%
X150600000Y-78770000D03*
D11*
%TO.N,/VCC*%
X153140000Y-78770000D03*
%TO.N,/RX*%
X155680000Y-78770000D03*
%TO.N,/TX*%
X158220000Y-78770000D03*
%TD*%
D10*
%TO.N,/MISO*%
%TO.C,J4*%
X165630000Y-51790000D03*
D11*
%TO.N,/VCC*%
X168170000Y-51790000D03*
%TO.N,/SCK*%
X165630000Y-54330000D03*
%TO.N,/MOSI*%
X168170000Y-54330000D03*
%TO.N,/RESET*%
X165630000Y-56870000D03*
%TO.N,GND*%
X168170000Y-56870000D03*
%TD*%
D10*
%TO.N,GND*%
%TO.C,BT1*%
X111770000Y-51785000D03*
D11*
%TO.N,/VCC*%
X111770000Y-54325000D03*
%TD*%
D10*
%TO.N,GND*%
%TO.C,J1*%
X166850000Y-62830000D03*
D11*
%TO.N,/VCC*%
X166850000Y-65370000D03*
%TO.N,/SDA*%
X166850000Y-67910000D03*
%TO.N,/SCK*%
X166850000Y-70450000D03*
%TD*%
D10*
%TO.N,/D2*%
%TO.C,J2*%
X123640000Y-78800000D03*
D11*
%TO.N,/D3*%
X126180000Y-78800000D03*
%TO.N,/D4*%
X128720000Y-78800000D03*
%TO.N,/D5*%
X131260000Y-78800000D03*
%TO.N,/D6*%
X133800000Y-78800000D03*
%TO.N,/D7*%
X136340000Y-78800000D03*
%TO.N,/D8*%
X138880000Y-78800000D03*
%TO.N,GND*%
X141420000Y-78800000D03*
%TO.N,/VCC*%
X143960000Y-78800000D03*
%TD*%
D12*
%TO.N,/VCC*%
X151030000Y-62340000D03*
X134140000Y-57550000D03*
X143280000Y-76620000D03*
X116480000Y-68770000D03*
X117500000Y-50830000D03*
X154350000Y-63200000D03*
X150059999Y-63368527D03*
X137450000Y-73030000D03*
X162089000Y-60420000D03*
X119434246Y-60723316D03*
X142040000Y-54240000D03*
%TO.N,GND*%
X131830000Y-59180000D03*
X119010000Y-55250000D03*
X122190000Y-58285000D03*
X132920000Y-67310000D03*
X118870000Y-61300000D03*
X113430000Y-51710000D03*
X118780000Y-59200000D03*
X134200000Y-66250000D03*
X130380000Y-51970000D03*
X128975735Y-52704265D03*
X150060000Y-60720000D03*
X134180000Y-62510000D03*
X150390000Y-61860000D03*
X157250000Y-66690000D03*
X138400000Y-73850000D03*
X131980000Y-56520000D03*
X145910000Y-61430000D03*
X136190000Y-67350000D03*
X146630000Y-60230000D03*
X147760001Y-60279451D03*
X120160000Y-55550000D03*
X164080000Y-66810000D03*
X145303890Y-62208472D03*
X140400000Y-61110000D03*
X164390000Y-62600000D03*
X141660000Y-77820000D03*
%TO.N,Net-(U4-PB6)*%
X143790000Y-73560000D03*
X141238000Y-62740000D03*
%TO.N,Net-(U4-PB7)*%
X144060000Y-64890000D03*
X142857468Y-65459203D03*
X141086037Y-61954565D03*
X144720000Y-68870000D03*
%TO.N,/SCK*%
X128950000Y-60269000D03*
X162090000Y-70470000D03*
X145850000Y-59430000D03*
X124760000Y-60370000D03*
X124770000Y-69380000D03*
X152500000Y-64640000D03*
%TO.N,Net-(D1-K)*%
X134800000Y-63530000D03*
X150237928Y-52381850D03*
%TO.N,Net-(D2-K)*%
X114090000Y-77220000D03*
X155780000Y-68670000D03*
%TO.N,/SDA*%
X129310000Y-61540000D03*
X149510000Y-52050000D03*
X162689000Y-67890000D03*
X149060000Y-55690000D03*
X151536382Y-55900000D03*
X129320000Y-55216765D03*
%TO.N,/D3*%
X142622902Y-58460102D03*
X140580526Y-64929072D03*
%TO.N,/D2*%
X139780656Y-64943627D03*
X144390000Y-57010000D03*
%TO.N,/D4*%
X141380000Y-64900000D03*
X142610000Y-59260000D03*
%TO.N,/TX*%
X154210000Y-67360000D03*
X147160000Y-58920000D03*
%TO.N,/RX*%
X147110000Y-58090000D03*
X149460000Y-67590000D03*
%TO.N,/RESET*%
X147910000Y-55380000D03*
X136670000Y-62554565D03*
X163490000Y-58780000D03*
X147160000Y-55300000D03*
%TO.N,/MOSI*%
X171020000Y-54330000D03*
X150210000Y-66760000D03*
%TO.N,/MISO*%
X163230000Y-51720000D03*
X152070000Y-65430000D03*
%TO.N,Net-(U3-SQW{slash}~INT)*%
X124170000Y-68150000D03*
X155150000Y-67820000D03*
%TD*%
D13*
%TO.N,Net-(U4-PB6)*%
X139090000Y-62740000D02*
X141238000Y-62740000D01*
X143790000Y-73560000D02*
X139280000Y-73560000D01*
X139090000Y-73370000D02*
X139090000Y-62740000D01*
X139280000Y-73560000D02*
X139260000Y-73540000D01*
X139260000Y-73540000D02*
X139090000Y-73370000D01*
%TO.N,Net-(U4-PB7)*%
X144640000Y-68790000D02*
X144640000Y-65840000D01*
X144040000Y-64910000D02*
X144060000Y-64890000D01*
X144720000Y-68870000D02*
X144640000Y-68790000D01*
X144640000Y-65840000D02*
X144040000Y-65840000D01*
X144040000Y-65840000D02*
X144040000Y-64910000D01*
%TO.N,/SCK*%
X124770000Y-60380000D02*
X124760000Y-60370000D01*
X124770000Y-69380000D02*
X124770000Y-60380000D01*
%TO.N,Net-(D2-K)*%
X155780000Y-68670000D02*
X155780000Y-75090000D01*
X155760000Y-75110000D02*
X153650000Y-77220000D01*
X153650000Y-77220000D02*
X114090000Y-77220000D01*
X155780000Y-75090000D02*
X155760000Y-75110000D01*
%TO.N,/SDA*%
X129550000Y-61300000D02*
X129310000Y-61540000D01*
X129550000Y-55446765D02*
X129550000Y-61300000D01*
X129320000Y-55216765D02*
X129550000Y-55446765D01*
%TO.N,/MISO*%
X155580000Y-57300000D02*
X155580000Y-65400000D01*
X155580000Y-65400000D02*
X152100000Y-65400000D01*
X158000000Y-54880000D02*
X155580000Y-57300000D01*
X152100000Y-65400000D02*
X152070000Y-65430000D01*
X161160000Y-51720000D02*
X158000000Y-54880000D01*
X163230000Y-51720000D02*
X161160000Y-51720000D01*
%TD*%
M02*
